<svg width="23" height="19" viewBox="0 0 23 19" fill="none" xmlns="http://www.w3.org/2000/svg">
<path d="M12.6528 4.80355V1.18606C12.6528 0.871498 12.774 0.569819 12.9897 0.347389C13.2054 0.12496 13.498 0 13.803 0C14.1048 0.00131015 14.3939 0.12484 14.6082 0.343958L22.6598 8.64639C22.7676 8.75665 22.8531 8.88783 22.9115 9.03236C22.9699 9.17689 23 9.33192 23 9.48849C23 9.64506 22.9699 9.80009 22.9115 9.94462C22.8531 10.0892 22.7676 10.2203 22.6598 10.3306L14.6082 18.633C14.4467 18.7962 14.2422 18.9067 14.0201 18.9508C13.7981 18.9948 13.5684 18.9703 13.3597 18.8805C13.1511 18.7906 12.9727 18.6393 12.847 18.4456C12.7213 18.2518 12.6537 18.0241 12.6528 17.7909V14.1141H11.6751C9.85783 14.0862 8.05643 14.4663 6.39594 15.2282C4.73544 15.9902 3.25562 17.1155 2.0592 18.5263C1.91501 18.7242 1.71438 18.8707 1.48542 18.9451C1.25647 19.0195 1.01066 19.0182 0.782446 18.9414C0.550209 18.8606 0.349079 18.7054 0.208382 18.4984C0.0676842 18.2915 -0.00522232 18.0436 0.000291824 17.7909C0.000291824 6.97404 9.29413 5.12379 12.6528 4.80355ZM11.6751 11.7183C12.4444 11.7167 13.2129 11.7683 13.9756 11.8725C14.2479 11.9151 14.4963 12.057 14.6757 12.2725C14.8551 12.488 14.9536 12.7627 14.9532 13.0467V14.9325L20.2213 9.48849L14.9532 4.04447V5.93031C14.9532 6.24487 14.8321 6.54655 14.6164 6.76898C14.4006 6.99141 14.1081 7.11637 13.803 7.11637C12.7563 7.11637 4.47467 7.35358 2.68032 14.7427C5.28478 12.7627 8.43931 11.702 11.6751 11.7183Z" fill="white"/>
</svg>
