<svg width="23" height="23" viewBox="0 0 23 23" fill="none" xmlns="http://www.w3.org/2000/svg">
<path fill-rule="evenodd" clip-rule="evenodd" d="M6.00974 0.265916C6.32519 0.181596 6.66121 0.225936 6.94399 0.389196C7.22677 0.552456 7.43318 0.821285 7.51788 1.13663L8.25553 3.88513C8.29749 4.04154 8.30823 4.20469 8.28714 4.36526C8.26605 4.52582 8.21355 4.68066 8.13262 4.82093C7.96917 5.10423 7.69988 5.31099 7.38399 5.39574C7.0681 5.48048 6.73148 5.43627 6.44819 5.27283C6.16489 5.10938 5.95813 4.84009 5.87338 4.5242L5.14067 1.77406C5.09867 1.61775 5.08788 1.4547 5.10891 1.29423C5.12995 1.13375 5.18239 0.978987 5.26325 0.838783C5.34411 0.698578 5.4518 0.575677 5.58016 0.477101C5.70853 0.378525 5.85506 0.306205 6.01138 0.264273L6.00974 0.265916ZM0.118455 6.1687C0.0341351 6.48415 0.0784753 6.82017 0.241735 7.10295C0.404995 7.38573 0.673824 7.59214 0.989169 7.67684L3.73767 8.41284C3.89587 8.46122 4.0622 8.47725 4.22673 8.45997C4.39126 8.44269 4.55062 8.39245 4.69532 8.31225C4.84001 8.23205 4.96707 8.12354 5.06893 7.99318C5.17078 7.86281 5.24534 7.71327 5.28816 7.55348C5.33098 7.39368 5.34118 7.2269 5.31816 7.06307C5.29513 6.89925 5.23935 6.74174 5.15414 6.59994C5.06893 6.45813 4.95604 6.33494 4.82219 6.23771C4.68835 6.14047 4.53629 6.07119 4.3751 6.03399L1.6266 5.29634C1.31115 5.21202 0.97513 5.25636 0.692351 5.41962C0.409573 5.58288 0.20316 5.85171 0.118455 6.16706V6.1687ZM7.34703 9.39691C7.25068 9.10762 7.23674 8.79722 7.30677 8.50046C7.37681 8.20369 7.52805 7.93227 7.74358 7.71658C7.9591 7.50088 8.2304 7.34943 8.52711 7.27916C8.82382 7.20889 9.13423 7.22258 9.4236 7.3187L21.1207 11.2205C22.6322 11.7248 22.6125 13.8688 21.0912 14.3452L17.7627 15.3917L22.1985 19.8274C22.5065 20.1357 22.6795 20.5537 22.6793 20.9895C22.6792 21.4253 22.5059 21.8432 22.1976 22.1512C21.8894 22.4593 21.4714 22.6323 21.0356 22.6321C20.5998 22.632 20.1819 22.4587 19.8738 22.1504L15.4282 17.7032L14.3735 21.0645C13.8971 22.5841 11.7515 22.6038 11.2472 21.0924L7.34538 9.39527L7.34703 9.39691ZM3.39431 14.383C3.28071 14.5007 3.14479 14.5947 2.99449 14.6593C2.8442 14.7239 2.68253 14.758 2.51893 14.7595C2.35533 14.761 2.19307 14.7299 2.04161 14.668C1.89016 14.6061 1.75255 14.5147 1.6368 14.3991C1.52106 14.2834 1.4295 14.1459 1.36748 13.9945C1.30545 13.8431 1.2742 13.6809 1.27555 13.5173C1.27689 13.3537 1.3108 13.192 1.37531 13.0416C1.43981 12.8913 1.53361 12.7553 1.65124 12.6416L3.66538 10.6291C3.89896 10.4114 4.20789 10.2929 4.5271 10.2986C4.84631 10.3042 5.15087 10.4335 5.37662 10.6593C5.60237 10.885 5.73168 11.1896 5.73731 11.5088C5.74295 11.828 5.62446 12.1369 5.40681 12.3705L3.39431 14.383ZM14.0072 3.55492C14.2317 3.32264 14.3561 3.01145 14.3534 2.68839C14.3508 2.36532 14.2213 2.05622 13.993 1.82766C13.7646 1.5991 13.4557 1.46938 13.1326 1.46642C12.8095 1.46346 12.4982 1.58751 12.2657 1.81184L10.2516 3.82434C10.0273 4.05683 9.90321 4.36814 9.90617 4.6912C9.90913 5.01426 10.0389 5.32324 10.2674 5.55158C10.496 5.77993 10.8051 5.90936 11.1281 5.91202C11.4512 5.91467 11.7624 5.79033 11.9947 5.56577L14.0072 3.55492Z" fill="#8A1538"/>
</svg>
