<svg width="21" height="21" viewBox="0 0 21 21" fill="none" xmlns="http://www.w3.org/2000/svg">
<g clip-path="url(#clip0_663_15834)">
<path d="M20.6401 10.9341C20.6401 10.4452 20.4735 10.0341 20.1401 9.70078C19.8068 9.36744 19.3957 9.20078 18.9068 9.20078H3.77347V3.80078C3.77347 3.35633 3.92903 2.97856 4.24014 2.66744C4.46236 2.44522 4.71791 2.31189 5.0068 2.26744C5.29569 2.223 5.59569 2.24522 5.9068 2.33411C5.5068 2.95633 5.35125 3.64522 5.44014 4.40078C5.52903 5.15633 5.84014 5.80078 6.37347 6.33411L6.5068 6.53411C6.64014 6.623 6.78458 6.66745 6.94014 6.66745C7.09569 6.66745 7.21792 6.623 7.3068 6.53411L11.1068 2.73411C11.2401 2.60078 11.3068 2.45633 11.3068 2.30078C11.3068 2.14522 11.2401 2.00078 11.1068 1.86744L10.9735 1.73411C10.3957 1.15633 9.69569 0.845222 8.87347 0.800777C8.05125 0.756334 7.32903 0.978556 6.7068 1.46745C6.17347 1.15633 5.59569 1.03411 4.97347 1.10078C4.35125 1.16744 3.81791 1.423 3.37347 1.86744C2.84014 2.40078 2.57347 3.04522 2.57347 3.80078V9.20078H2.37347C1.88458 9.20078 1.47347 9.36744 1.14014 9.70078C0.806803 10.0341 0.640137 10.4452 0.640137 10.9341C0.640137 11.3341 0.751248 11.6786 0.97347 11.9674C1.19569 12.2563 1.46236 12.4674 1.77347 12.6008V13.8674C1.77347 14.9341 2.06236 15.9119 2.64014 16.8008C3.21791 17.6897 3.95125 18.3786 4.84014 18.8674L4.3068 19.9341C4.21791 20.1119 4.2068 20.2674 4.27347 20.4008C4.34014 20.5341 4.44014 20.6452 4.57347 20.7341C4.7068 20.823 4.85125 20.8341 5.0068 20.7674C5.16236 20.7008 5.28458 20.6008 5.37347 20.4674L5.97347 19.2674C6.41791 19.3563 6.88458 19.4008 7.37347 19.4008H13.9068C14.3957 19.4008 14.8624 19.3563 15.3068 19.2674L15.9068 20.4674C15.9957 20.6008 16.1179 20.7008 16.2735 20.7674C16.429 20.8341 16.5735 20.823 16.7068 20.7341C16.8401 20.6452 16.9401 20.5341 17.0068 20.4008C17.0735 20.2674 17.0624 20.1119 16.9735 19.9341L16.4401 18.8674C17.329 18.3786 18.0624 17.6897 18.6401 16.8008C19.2179 15.9119 19.5068 14.9341 19.5068 13.8674V12.6008C19.8179 12.4674 20.0846 12.2563 20.3068 11.9674C20.529 11.6786 20.6401 11.3341 20.6401 10.9341ZM9.84014 2.33411L6.97347 5.26744C6.66236 4.823 6.52903 4.35633 6.57347 3.86744C6.61791 3.37856 6.81791 2.95633 7.17347 2.60078C7.52903 2.24522 7.96236 2.04522 8.47347 2.00078C8.98458 1.95633 9.44014 2.06745 9.84014 2.33411ZM2.37347 10.4008H18.9068C19.0401 10.4008 19.1624 10.4563 19.2735 10.5674C19.3846 10.6786 19.4401 10.8119 19.4401 10.9674C19.4401 11.123 19.3846 11.2563 19.2735 11.3674C19.1624 11.4786 19.0401 11.5341 18.9068 11.5341H2.37347C2.24014 11.5341 2.11791 11.4786 2.0068 11.3674C1.89569 11.2563 1.84014 11.123 1.84014 10.9674C1.84014 10.8119 1.89569 10.6786 2.0068 10.5674C2.11791 10.4563 2.24014 10.4008 2.37347 10.4008ZM18.3068 13.8674C18.3068 14.6674 18.1068 15.4008 17.7068 16.0674C17.3068 16.7341 16.7735 17.2674 16.1068 17.6674C15.4401 18.0674 14.7068 18.2674 13.9068 18.2674H7.37347C6.57347 18.2674 5.84014 18.0674 5.17347 17.6674C4.5068 17.2674 3.97347 16.7341 3.57347 16.0674C3.17347 15.4008 2.97347 14.6674 2.97347 13.8674V12.7341H18.3068V13.8674ZM9.1068 6.73411C9.1068 6.91189 9.16236 7.05633 9.27347 7.16745C9.38458 7.27856 9.51791 7.33411 9.67347 7.33411C9.82903 7.33411 9.96236 7.27856 10.0735 7.16745C10.1846 7.05633 10.2401 6.91189 10.2401 6.73411C10.2401 6.55633 10.1846 6.41189 10.0735 6.30078C9.96236 6.18967 9.82903 6.13411 9.67347 6.13411C9.51791 6.13411 9.38458 6.18967 9.27347 6.30078C9.16236 6.41189 9.1068 6.55633 9.1068 6.73411ZM10.7735 5.06744C10.7735 5.24522 10.829 5.38967 10.9401 5.50078C11.0512 5.61189 11.1846 5.66745 11.3401 5.66745C11.4957 5.66745 11.629 5.61189 11.7401 5.50078C11.8512 5.38967 11.9068 5.24522 11.9068 5.06744C11.9068 4.88967 11.8512 4.74522 11.7401 4.63411C11.629 4.523 11.4957 4.46745 11.3401 4.46745C11.1846 4.46745 11.0512 4.523 10.9401 4.63411C10.829 4.74522 10.7735 4.88967 10.7735 5.06744ZM11.1735 7.13411C11.1735 7.26745 11.229 7.40078 11.3401 7.53411C11.4512 7.66745 11.5846 7.73411 11.7401 7.73411C11.8957 7.73411 12.029 7.66745 12.1401 7.53411C12.2512 7.40078 12.3068 7.25633 12.3068 7.10078C12.3068 6.94522 12.2512 6.81189 12.1401 6.70078C12.029 6.58967 11.8957 6.53411 11.7401 6.53411C11.5846 6.53411 11.4512 6.58967 11.3401 6.70078C11.229 6.81189 11.1735 6.95633 11.1735 7.13411Z" fill="#1A1A1A"/>
</g>
<defs>
<clipPath id="clip0_663_15834">
<rect width="20" height="20" fill="white" transform="matrix(1 0 0 -1 0.640137 20.8008)"/>
</clipPath>
</defs>
</svg>
