<svg width="20" height="15" viewBox="0 0 20 15" fill="none" xmlns="http://www.w3.org/2000/svg">
<path d="M17.5333 4.06797H8.73333C8.28889 4.06797 7.86667 4.2013 7.46667 4.46797C7.37778 3.8013 7.1 3.25686 6.63333 2.83463C6.16667 2.41241 5.62222 2.2013 5 2.2013C4.51111 2.2013 4.06667 2.31241 3.66667 2.53463V1.53463C3.66667 1.35686 3.61111 1.21241 3.5 1.1013C3.38889 0.990191 3.24444 0.934635 3.06667 0.934635H0.6C0.422222 0.934635 0.277778 0.990191 0.166667 1.1013C0.0555556 1.21241 0 1.35686 0 1.53463V14.068C0 14.2457 0.0555556 14.3902 0.166667 14.5013C0.277778 14.6124 0.422222 14.668 0.6 14.668H3.06667C3.24444 14.668 3.38889 14.6124 3.5 14.5013C3.61111 14.3902 3.66667 14.2457 3.66667 14.068V12.1346H16.3333V14.068C16.3333 14.2457 16.3889 14.3902 16.5 14.5013C16.6111 14.6124 16.7556 14.668 16.9333 14.668H19.4C19.5778 14.668 19.7222 14.6124 19.8333 14.5013C19.9444 14.3902 20 14.2457 20 14.068V6.53463C20 5.86797 19.7556 5.29019 19.2667 4.8013C18.7778 4.31241 18.2 4.06797 17.5333 4.06797ZM5 3.33463C5.35556 3.33463 5.65556 3.46797 5.9 3.73463C6.14444 4.0013 6.26667 4.31241 6.26667 4.66797C6.26667 5.02352 6.14444 5.32352 5.9 5.56797C5.65556 5.81241 5.35556 5.93464 5 5.93464C4.64444 5.93464 4.33333 5.81241 4.06667 5.56797C3.8 5.32352 3.66667 5.02352 3.66667 4.66797C3.66667 4.31241 3.8 4.0013 4.06667 3.73463C4.33333 3.46797 4.64444 3.33463 5 3.33463ZM3.66667 6.73463C4.06667 7.0013 4.5 7.13463 4.96667 7.13463C5.43333 7.13463 5.86667 7.0013 6.26667 6.73463V8.46797H3.66667V6.73463ZM18.8 13.468H17.4667V11.5346C17.4667 11.4013 17.4111 11.2791 17.3 11.168C17.1889 11.0569 17.0667 11.0013 16.9333 11.0013H3.06667C2.93333 11.0013 2.81111 11.0569 2.7 11.168C2.58889 11.2791 2.53333 11.4013 2.53333 11.5346V13.468H1.2V2.13463H2.53333V9.06797C2.53333 9.2013 2.58889 9.33464 2.7 9.46797C2.81111 9.6013 2.93333 9.66797 3.06667 9.66797H18.8V13.468ZM18.8 8.46797H7.46667V6.53463C7.46667 6.17908 7.58889 5.87908 7.83333 5.63463C8.07778 5.39019 8.37778 5.26797 8.73333 5.26797H17.5333C17.8889 5.26797 18.1889 5.39019 18.4333 5.63463C18.6778 5.87908 18.8 6.17908 18.8 6.53463V8.46797Z" fill="#1A1A1A"/>
</svg>
