<svg width="49" height="50" viewBox="0 0 49 50" fill="none" xmlns="http://www.w3.org/2000/svg">
<path fill-rule="evenodd" clip-rule="evenodd" d="M27.1095 0.758749C26.6254 0.944449 26.0639 1.48924 19.7001 7.94788C15.8661 11.8389 12.7526 15.0746 12.6749 15.2487C12.5534 15.5206 12.5531 15.6039 12.6714 15.8901C12.8419 16.302 13.1311 16.4633 13.5748 16.3937C13.8798 16.3459 14.7028 15.5418 20.8237 9.31116L27.7285 2.28243L28.2377 2.28618C28.5966 2.28888 28.8353 2.35081 29.0472 2.49621C29.2125 2.60969 32.4126 5.79045 36.1587 9.56456C42.4304 15.8832 42.9949 16.4267 43.2852 16.4267C43.7183 16.4267 44.1573 15.9835 44.1573 15.5461C44.1573 15.2527 43.6061 14.671 37.1337 8.13319C31.9464 2.89358 29.998 0.984359 29.6812 0.830875C29.0483 0.524099 27.8116 0.489383 27.1095 0.758749ZM37.7102 2.04105L37.4429 2.27301L37.4152 4.18079L37.3874 6.08866L38.8676 7.57811L40.3477 9.06756V5.71948V2.37139L40.0693 2.09029C39.8006 1.819 39.7594 1.80919 38.8842 1.80919C38.0631 1.80919 37.9521 1.83112 37.7102 2.04105ZM21.9791 10.4114L15.5856 16.8452V20.7816V24.718L15.8475 24.6511C18.4926 23.9751 21.288 24.6754 23.538 26.5776C24.0095 26.9762 24.6727 27.441 25.0118 27.6106L25.6285 27.9188L28.8714 27.9669L32.1143 28.015L32.731 28.322C33.4095 28.6599 34.0543 29.2475 34.4014 29.8445C34.7206 30.3937 34.9476 31.3689 34.8977 31.9766C34.8746 32.2572 34.8723 32.4868 34.8926 32.4868C35.2404 32.4868 38.4 31.4323 39.8477 30.8331L41.0144 30.3501L41.0101 23.6048L41.0058 16.8595L34.6893 10.4186L28.3727 3.97768L21.9791 10.4114ZM24.4738 18.6428C23.6564 18.8061 22.878 19.4156 22.461 20.2193C22.2258 20.6724 22.2059 20.8076 22.1742 22.1686C22.1402 23.6275 22.1407 23.6315 22.3824 23.8756C22.6786 24.1747 23.1787 24.2019 23.5036 23.9366C23.7158 23.7634 23.7312 23.6771 23.7761 22.4047C23.8173 21.2385 23.8504 21.0197 24.021 20.785C24.4538 20.1899 24.5379 20.1776 28.1857 20.1775C31.7632 20.1773 31.7641 20.1774 32.2524 20.7046L32.4905 20.9617L32.5381 23.5312C32.5792 25.744 32.6084 26.1357 32.7492 26.3523C32.94 26.646 33.3525 26.7649 33.7075 26.6286C33.986 26.5217 34.3105 25.9949 34.1568 25.8991C34.098 25.8623 34.0619 24.9527 34.0619 23.5068C34.0619 20.8946 33.9955 20.4825 33.46 19.7736C33.2888 19.5469 32.974 19.243 32.7605 19.0982C32.0158 18.5932 31.5697 18.5414 28.0657 18.553C26.3088 18.5588 24.6925 18.5992 24.4738 18.6428ZM17.0263 26.0476C16.3894 26.1347 15.3518 26.4425 14.9003 26.6783C14.5267 26.8733 13.1116 27.8779 12.1918 28.6011C11.7657 28.9361 11.0157 29.6406 10.5251 30.1668C9.83169 30.9106 8.78854 31.846 7.98253 32.4469C7.9652 32.4597 8.13663 32.7041 8.36349 32.9899C8.59035 33.2756 10.3403 35.6365 12.2522 38.2363C14.1641 40.8361 15.7626 42.9645 15.8044 42.9661C15.8462 42.9677 16.3057 42.6439 16.8253 42.2466C17.3449 41.8492 17.8893 41.4754 18.035 41.4159C18.2049 41.3464 20.5014 41.2464 24.4428 41.1367C31.0694 40.9523 31.6877 40.921 32.9229 40.7069C34.9584 40.3542 36.2909 39.8614 38.6631 38.5844C41.6483 36.9773 43.9662 35.4924 46.5227 33.5493C48.4108 32.1142 48.5383 31.9859 48.5383 31.5195C48.5383 31.2112 48.4773 31.1027 48.141 30.8121C47.5301 30.2839 46.832 30.0482 45.8705 30.0453C44.9626 30.0427 44.8948 30.0689 42.6811 31.2822C40.8874 32.2653 38.5645 33.1471 35.6267 33.9602C34.3532 34.3127 34.0202 34.4437 33.6278 34.7465C32.5603 35.5707 32.0402 35.6603 28.327 35.6603C25.042 35.6603 24.8357 35.6281 24.6483 35.0854C24.4966 34.646 24.7022 34.1833 25.1135 34.0384C25.3201 33.9657 26.4748 33.9286 28.5761 33.9272C32.0914 33.9249 32.1668 33.9126 32.7952 33.2438C33.715 32.2649 33.5546 30.6552 32.4576 29.8554L32.0437 29.5536L28.7909 29.4959C25.2046 29.4324 25.0226 29.4056 23.919 28.7807C23.6047 28.6028 22.9833 28.1488 22.538 27.7719C20.9182 26.4006 18.9487 25.7844 17.0263 26.0476ZM4.61145 33.0131C4.27535 33.0997 3.73725 33.4541 2.48714 34.4124C1.56637 35.1183 0.793219 35.7281 0.769123 35.7676C0.736552 35.8208 10.6171 49.2898 11.0108 49.7288C11.0754 49.8009 13.7999 47.8456 14.3833 47.3085C15.0392 46.7046 15.3116 45.4256 14.9396 44.6963C14.8461 44.5133 12.9639 41.9164 10.7567 38.9255C7.131 34.0122 6.69937 33.4635 6.28366 33.2396C5.71365 32.9324 5.19669 32.8624 4.61145 33.0131Z" fill="#8A1538"/>
</svg>
