<svg width="48" height="49" viewBox="0 0 48 49" fill="none" xmlns="http://www.w3.org/2000/svg">
<path fill-rule="evenodd" clip-rule="evenodd" d="M38.4524 0.781103C38.3136 0.934513 38.2968 1.32373 38.2968 4.38779C38.2968 7.59575 38.3082 7.83269 38.4688 7.9781C38.6222 8.11693 39.0114 8.13377 42.0755 8.13377C45.2835 8.13377 45.5204 8.12239 45.6658 7.96173C45.8046 7.80832 45.8215 7.41911 45.8215 4.35505C45.8215 1.14709 45.8101 0.910152 45.6494 0.764737C45.496 0.625906 45.1068 0.60907 42.0428 0.60907C38.8348 0.60907 38.5979 0.620451 38.4524 0.781103ZM10.7992 2.28604C10.6661 2.43306 10.6435 2.711 10.6435 4.19967C10.6435 5.76744 10.6607 5.95678 10.8155 6.09693C10.9102 6.18252 11.0795 6.25259 11.1918 6.25259C11.3953 6.25259 11.396 6.25965 11.396 8.36892V10.4852H10.0792H8.76234V9.8414C8.76234 9.12722 8.61589 8.88624 8.18162 8.88624C7.78422 8.88624 7.63363 9.15327 7.63363 9.85777V10.4852H6.74007C6.23789 10.4852 5.84652 10.5244 5.84652 10.5747C5.84652 10.6239 5.89232 10.8778 5.94838 11.139L6.05025 11.6139H6.84194H7.63363V12.5075V13.4011H8.19798H8.76234V12.5075V11.6139H10.0792H11.396V13.6362V15.6585H11.9603H12.5247V15.1411V14.6238H13.8415H15.1583V15.1693C15.1583 15.7058 15.1637 15.7167 15.4829 15.8321C15.9197 15.99 16.2545 16.4112 16.434 17.0286L16.5826 17.5396H17.7516H18.9207V18.4802V19.4208H19.485H20.0494V18.4802V17.5396H21.3662H22.683L22.6879 19.8676L22.6927 22.1955L23.2474 23.2772C23.7967 24.3485 23.802 24.355 23.8068 23.9592L23.8117 23.5594H25.1286H26.4454V24.5V25.4406H27.0097H27.5741V24.5V23.5594H28.1709C28.8351 23.5594 29.079 23.4035 29.079 22.9787C29.079 22.5904 28.8096 22.4307 28.1545 22.4307H27.5741V21.4901V20.5495H28.1709C28.8351 20.5495 29.079 20.3936 29.079 19.9688C29.079 19.5805 28.8096 19.4208 28.1545 19.4208H27.5741V18.4802V17.5396H28.1709C28.8351 17.5396 29.079 17.3837 29.079 16.9589C29.079 16.5706 28.8096 16.4109 28.1545 16.4109H27.5741V15.528V14.6451L28.2427 14.6073C28.9572 14.5669 29.1731 14.4281 29.1731 14.0091C29.1731 13.6457 28.8884 13.4951 28.2015 13.4951H27.5741V12.5652V11.6352L28.2427 11.5974C28.9572 11.557 29.1731 11.4182 29.1731 10.9992C29.1731 10.6358 28.8884 10.4852 28.2015 10.4852H27.5741V9.8414C27.5741 9.12722 27.4276 8.88624 26.9934 8.88624C26.596 8.88624 26.4454 9.15327 26.4454 9.85777V10.4852H25.1286H23.8117V9.8414C23.8117 9.12722 23.6653 8.88624 23.231 8.88624C22.8336 8.88624 22.683 9.15327 22.683 9.85777V10.4852H21.3662H20.0494V9.8414C20.0494 9.12722 19.9029 8.88624 19.4687 8.88624C19.0713 8.88624 18.9207 9.15327 18.9207 9.85777V10.4852H17.6039H16.287V9.8414C16.287 9.12722 16.1406 8.88624 15.7063 8.88624C15.3089 8.88624 15.1583 9.15327 15.1583 9.85777V10.4852H13.8415H12.5247V8.36892V6.25259H24.8464H37.1681V5.69097V5.12934L35.935 5.1031L34.7018 5.07686L35.935 4.09724L37.1681 3.11762V2.61581V2.11401H24.0615C11.4835 2.11401 10.9485 2.12097 10.7992 2.28604ZM41.3537 2.44359C41.1468 2.51677 40.8014 2.76245 40.5861 2.98941C39.7749 3.84488 39.7944 4.95421 40.6354 5.79519C41.4989 6.65874 42.6193 6.65874 43.4829 5.79519C44.3464 4.93163 44.3464 3.81121 43.4829 2.94765C42.8611 2.32583 42.1572 2.15916 41.3537 2.44359ZM11.7722 4.1833V5.12389H14.0484C15.4399 5.12389 16.2899 5.09022 16.2353 5.03717C16.1861 4.98938 15.6646 4.56612 15.0761 4.09658L14.0062 3.24271H12.8893H11.7722V4.1833ZM15.9108 3.27375C15.9108 3.29087 16.3764 3.6752 16.9454 4.12781L17.9801 4.95082L19.0147 4.12781C19.5838 3.6752 20.0494 3.29087 20.0494 3.27375C20.0494 3.25673 19.1182 3.24271 17.9801 3.24271C16.842 3.24271 15.9108 3.25673 15.9108 3.27375ZM23.4355 3.27375C23.4355 3.29087 23.9011 3.6752 24.4701 4.12781L25.5048 4.95082L26.5394 4.12781C27.1085 3.6752 27.5741 3.29087 27.5741 3.27375C27.5741 3.25673 26.6429 3.24271 25.5048 3.24271C24.3667 3.24271 23.4355 3.25673 23.4355 3.27375ZM30.9602 3.27375C30.9602 3.29087 31.4258 3.6752 31.9948 4.12781L33.0295 4.95082L34.0641 4.12781C34.6332 3.6752 35.0988 3.29087 35.0988 3.27375C35.0988 3.25673 34.1676 3.24271 33.0295 3.24271C31.8914 3.24271 30.9602 3.25673 30.9602 3.27375ZM20.6749 4.2578L19.6543 5.07686L20.6984 5.10348C21.2726 5.11806 22.2125 5.11806 22.787 5.10348L23.8316 5.07686L22.7965 4.25385C22.2271 3.80123 21.7465 3.43262 21.7283 3.43478C21.7103 3.43695 21.2361 3.80735 20.6749 4.2578ZM28.1996 4.2578L27.179 5.07686L28.2231 5.10348C28.7973 5.11806 29.7372 5.11806 30.3117 5.10348L31.3563 5.07686L30.3212 4.25385C29.7518 3.80123 29.2712 3.43262 29.253 3.43478C29.235 3.43695 28.7608 3.80735 28.1996 4.2578ZM41.5992 3.56214C40.7838 4.01409 41.1249 5.31201 42.0591 5.31201C42.5357 5.31201 42.9997 4.85253 42.9997 4.38054C42.9997 3.67435 42.2193 3.21835 41.5992 3.56214ZM39.2374 26.7574V44.2523H39.8002H40.363L40.3881 41.7712L40.4131 39.2903L41.871 40.505C42.6729 41.1732 43.3289 41.7591 43.3289 41.8071C43.3289 41.8549 42.7363 42.3863 42.0121 42.9877C41.2878 43.5892 40.6551 44.1198 40.6059 44.1668C40.552 44.2184 40.8692 44.2519 41.4054 44.2514L42.2943 44.2504L43.0232 43.6355L43.7522 43.0204V43.6364V44.2523H44.3165H44.8809V26.7574V9.26247H44.3165H43.7522V9.87837V10.4944L43.0232 9.87931L42.2943 9.26435L41.4054 9.26341C40.8692 9.26285 40.552 9.29643 40.6059 9.34797C40.655 9.395 41.2878 9.92559 42.0121 10.5271C42.7363 11.1285 43.3289 11.6598 43.3289 11.7077C43.3289 11.7557 42.6729 12.3416 41.871 13.0098L40.4131 14.2245L40.3881 11.7436L40.363 9.26247H39.8002H39.2374V26.7574ZM2.52201 9.81074C2.37848 9.96932 2.36634 11.227 2.36634 25.9888V41.9949H6.22275H10.0792V39.1731C10.0792 36.4768 10.0875 36.343 10.2673 36.1633C10.4504 35.9801 10.5808 35.9752 15.1583 35.9752C19.7359 35.9752 19.8663 35.9801 20.0494 36.1633C20.2291 36.343 20.2375 36.4768 20.2375 39.1731V41.9949H24.0939H27.9503V34.4378C27.9503 27.236 27.9422 26.8733 27.7783 26.7249C27.6298 26.5905 27.3374 26.5693 25.6372 26.5693H23.6681L22.2585 23.7415C21.4832 22.1862 20.7732 20.8318 20.6806 20.7316C20.5233 20.5613 20.367 20.5495 18.2688 20.5495H16.0253L15.9752 20.3379C15.9478 20.2214 15.791 19.449 15.6268 18.6213C15.4595 17.7774 15.2641 17.044 15.1817 16.9518C15.0492 16.8031 14.8009 16.7872 12.6062 16.7872H10.1774L9.50559 15.776C9.13613 15.22 8.76732 14.712 8.68606 14.6473C8.58156 14.5642 8.09132 14.5298 7.01096 14.5298H5.48364L5.38262 14.036C5.32703 13.7644 5.11671 12.7193 4.91524 11.7137C4.64379 10.3592 4.50514 9.85335 4.38023 9.76202C4.27376 9.68414 3.92875 9.63871 3.44463 9.63871C2.82112 9.63871 2.64861 9.67088 2.52201 9.81074ZM12.5247 12.5545V13.4951H13.8415H15.1583V12.5545V11.6139H13.8415H12.5247V12.5545ZM16.287 12.5545V13.4951H17.6039H18.9207V12.5545V11.6139H17.6039H16.287V12.5545ZM20.0494 12.5545V13.4951H21.3662H22.683V12.5545V11.6139H21.3662H20.0494V12.5545ZM23.8117 12.5545V13.4951H25.1286H26.4454V12.5545V11.6139H25.1286H23.8117V12.5545ZM42.2472 14.1806C41.4454 14.8509 40.7893 15.4313 40.7893 15.4703C40.7893 15.5094 41.4454 16.0898 42.2472 16.7601L43.7052 17.9789L43.7313 16.7246C43.7457 16.0348 43.7457 14.9059 43.7313 14.2161L43.7052 12.9618L42.2472 14.1806ZM16.287 15.5174V16.4109H17.6039H18.9207V15.5174V14.6238H17.6039H16.287V15.5174ZM20.0494 15.5174V16.4109H21.3662H22.683V15.5174V14.6238H21.3662H20.0494V15.5174ZM23.8117 15.5174V16.4109H25.1286H26.4454V15.5174V14.6238H25.1286H23.8117V15.5174ZM40.3661 19.2327V21.7886L40.9539 21.2971C41.2773 21.0268 41.9544 20.4638 42.4589 20.0461C42.9633 19.6283 43.3759 19.2623 43.3759 19.2327C43.3759 19.2031 42.9633 18.8371 42.4589 18.4193C41.9544 18.0016 41.2773 17.4386 40.9539 17.1683L40.3661 16.6768V19.2327ZM23.8117 18.4802V19.4208H25.1286H26.4454V18.4802V17.5396H25.1286H23.8117V18.4802ZM4.99999 19.6089C4.82024 19.7887 4.81187 19.9224 4.81187 22.6188C4.81187 25.3152 4.82024 25.4489 4.99999 25.6287C5.17842 25.8071 5.31349 25.8168 7.63363 25.8168C9.95378 25.8168 10.0888 25.8071 10.2673 25.6287C10.447 25.4489 10.4554 25.3152 10.4554 22.6188C10.4554 19.9224 10.447 19.7887 10.2673 19.6089C10.0888 19.4305 9.95378 19.4208 7.63363 19.4208C5.31349 19.4208 5.17842 19.4305 4.99999 19.6089ZM42.2472 21.7053C41.4454 22.3756 40.7893 22.956 40.7893 22.995C40.7893 23.0341 41.4454 23.6145 42.2472 24.2848L43.7052 25.5036L43.7313 24.2493C43.7457 23.5595 43.7457 22.4306 43.7313 21.7408L43.7052 20.4865L42.2472 21.7053ZM5.94057 22.6188V24.6881H7.63363H9.32669V22.6188V20.5495H7.63363H5.94057V22.6188ZM23.8117 21.4901V22.4307H25.1286H26.4454V21.4901V20.5495H25.1286H23.8117V21.4901ZM40.3661 26.7574V29.3133L40.9539 28.8218C41.2773 28.5515 41.9544 27.9885 42.4589 27.5708C42.9633 27.153 43.3759 26.787 43.3759 26.7574C43.3759 26.7278 42.9633 26.3618 42.4589 25.944C41.9544 25.5263 41.2773 24.9633 40.9539 24.693L40.3661 24.2015V26.7574ZM4.99999 27.8861C4.82024 28.0658 4.81187 28.1996 4.81187 30.896C4.81187 33.5924 4.82024 33.7261 4.99999 33.9059C5.17842 34.0843 5.31349 34.094 7.63363 34.094C9.95378 34.094 10.0888 34.0843 10.2673 33.9059C10.447 33.7261 10.4554 33.5924 10.4554 30.896C10.4554 28.1996 10.447 28.0658 10.2673 27.8861C10.0888 27.7077 9.95378 27.698 7.63363 27.698C5.31349 27.698 5.17842 27.7077 4.99999 27.8861ZM12.5247 27.8861C12.3449 28.0658 12.3366 28.1996 12.3366 30.896C12.3366 33.5924 12.3449 33.7261 12.5247 33.9059C12.7031 34.0843 12.8382 34.094 15.1583 34.094C17.4785 34.094 17.6135 34.0843 17.792 33.9059C17.9717 33.7261 17.9801 33.5924 17.9801 30.896C17.9801 28.1996 17.9717 28.0658 17.792 27.8861C17.6135 27.7077 17.4785 27.698 15.1583 27.698C12.8382 27.698 12.7031 27.7077 12.5247 27.8861ZM20.0494 27.8861C19.8696 28.0658 19.8613 28.1996 19.8613 30.896C19.8613 33.5924 19.8696 33.7261 20.0494 33.9059C20.2278 34.0843 20.3629 34.094 22.683 34.094C25.0032 34.094 25.1382 34.0843 25.3167 33.9059C25.4964 33.7261 25.5048 33.5924 25.5048 30.896C25.5048 28.1996 25.4964 28.0658 25.3167 27.8861C25.1382 27.7077 25.0032 27.698 22.683 27.698C20.3629 27.698 20.2278 27.7077 20.0494 27.8861ZM42.2472 29.23C41.4454 29.9003 40.7893 30.4807 40.7893 30.5197C40.7893 30.5588 41.4454 31.1392 42.2472 31.8095L43.7052 33.0283L43.7313 31.774C43.7457 31.0842 43.7457 29.9553 43.7313 29.2655L43.7052 28.0112L42.2472 29.23ZM5.94057 30.896V32.9653H7.63363H9.32669V30.896V28.8267H7.63363H5.94057V30.896ZM13.4653 30.896V32.9653H15.1583H16.8514V30.896V28.8267H15.1583H13.4653V30.896ZM20.99 30.896V32.9653H22.683H24.3761V30.896V28.8267H22.683H20.99V30.896ZM29.079 30.3316V31.4603H31.3364H33.5938V30.4873C33.5938 29.124 33.7431 29.2029 31.1644 29.2029H29.079V30.3316ZM40.3661 34.2821V36.838L40.9539 36.3465C41.2773 36.0762 41.9544 35.5132 42.4589 35.0955C42.9633 34.6777 43.3759 34.3117 43.3759 34.2821C43.3759 34.2525 42.9633 33.8865 42.4589 33.4687C41.9544 33.051 41.2773 32.488 40.9539 32.2177L40.3661 31.7262V34.2821ZM29.079 33.7177V34.8464H29.6434H30.2077V33.7177V32.589H29.6434H29.079V33.7177ZM31.3364 33.7177V34.8464H33.5938H35.8512V33.8734C35.8512 32.5101 36.0005 32.589 33.4218 32.589H31.3364V33.7177ZM42.2472 36.7547C41.4454 37.425 40.7893 38.0054 40.7893 38.0444C40.7893 38.0835 41.4454 38.6639 42.2472 39.3342L43.7052 40.553L43.7313 39.2987C43.7457 38.6089 43.7457 37.48 43.7313 36.7902L43.7052 35.5359L42.2472 36.7547ZM29.079 37.1039V38.2326H32.4651H35.8512V37.1039V35.9752H32.4651H29.079V37.1039ZM11.2079 41.0543V45.0048H12.9009H14.594V41.0543V37.1039H12.9009H11.2079V41.0543ZM15.7227 41.0543V45.0048H17.4157H19.1088V41.0543V37.1039H17.4157H15.7227V41.0543ZM29.079 40.49V41.6187H29.6434H30.2077V40.49V39.3613H29.6434H29.079V40.49ZM31.3364 40.49V41.6187H33.4382C36.0038 41.6187 35.8512 41.7009 35.8512 40.3179V39.3613H33.5938H31.3364V40.49ZM29.079 43.8761V45.0048H31.3364H33.5938V43.8761V42.7474H31.3364H29.079V43.8761ZM2.36634 45.1929V47.2622H1.39331C0.570103 47.2622 0.396283 47.2887 0.264601 47.4342C0.0589884 47.6614 0.0667953 48.0414 0.280967 48.2352C0.435411 48.375 0.867141 48.3909 4.51361 48.3909H8.57422V46.886C8.57422 45.0641 8.60385 45.0048 9.51481 45.0048H10.0792V44.0642V43.1236H6.22275H2.36634V45.1929ZM20.2375 44.0642V45.0048H20.8019C21.7128 45.0048 21.7424 45.0641 21.7424 46.886V48.3909H24.8464H27.9503V45.7573V43.1236H24.0939H20.2375V44.0642ZM37.8881 45.5531C37.77 45.6835 37.7324 45.9105 37.7324 46.4936V47.2622H37.3562H36.98V47.8266V48.3909H42.2797C47.2945 48.3909 47.5878 48.3817 47.7351 48.2189C47.9407 47.9917 47.9329 47.6117 47.7187 47.4179C47.5978 47.3084 47.3744 47.2622 46.9663 47.2622H46.3858V46.4773C46.3858 45.8363 46.3543 45.6638 46.2138 45.5367C46.0594 45.397 45.6319 45.381 42.0428 45.381C38.288 45.381 38.0343 45.3916 37.8881 45.5531ZM9.70292 47.2622V48.3909H15.1583H20.6137V47.2622V46.1335H15.1583H9.70292V47.2622ZM29.079 47.2622V48.3909H29.6434H30.2077V47.2622V46.1335H29.6434H29.079V47.2622ZM31.3364 47.2622V48.3909H33.5938H35.8512V47.4179C35.8512 46.0546 36.0005 46.1335 33.4218 46.1335H31.3364V47.2622Z" fill="#8A1538"/>
</svg>
