<svg width="20" height="21" viewBox="0 0 20 21" fill="none" xmlns="http://www.w3.org/2000/svg">
<path d="M19.799 5.29L17.424 3.46C17.2626 3.35643 17.0871 3.27661 16.903 3.223C16.7197 3.16317 16.5287 3.13017 16.336 3.125H9.5L10.301 8.125H16.336C16.5 8.125 16.705 8.088 16.902 8.027C17.099 7.966 17.289 7.882 17.423 7.791L19.798 5.959C19.933 5.868 20 5.747 20 5.625C20 5.503 19.933 5.382 19.799 5.29ZM8.5 1.125H7.5C7.36739 1.125 7.24021 1.17768 7.14645 1.27145C7.05268 1.36521 7 1.49239 7 1.625V5.125H3.664C3.498 5.125 3.294 5.162 3.097 5.224C2.899 5.284 2.71 5.367 2.576 5.46L0.201 7.29C0.066 7.381 0 7.503 0 7.625C0 7.746 0.066 7.867 0.201 7.96L2.576 9.792C2.71 9.883 2.899 9.967 3.097 10.027C3.294 10.088 3.498 10.125 3.664 10.125H7V18.625C7 18.7576 7.05268 18.8848 7.14645 18.9786C7.24021 19.0723 7.36739 19.125 7.5 19.125H8.5C8.63261 19.125 8.75979 19.0723 8.85355 18.9786C8.94732 18.8848 9 18.7576 9 18.625V1.625C9 1.49239 8.94732 1.36521 8.85355 1.27145C8.75979 1.17768 8.63261 1.125 8.5 1.125Z" fill="white"/>
</svg>
