<svg width="24" height="24" viewBox="0 0 24 24" fill="none" xmlns="http://www.w3.org/2000/svg">
<g clip-path="url(#clip0_978_13209)">
<path d="M22 21H2V19H3V4.00003C3 3.73481 3.10536 3.48046 3.29289 3.29292C3.48043 3.10539 3.73478 3.00003 4 3.00003H18C18.2652 3.00003 18.5196 3.10539 18.7071 3.29292C18.8946 3.48046 19 3.73481 19 4.00003V9.00003H21V19H22V21ZM17 19H19V11H13V19H15V13H17V19ZM17 9.00003V5.00003H5V19H11V9.00003H17ZM7 11H9V13H7V11ZM7 15H9V17H7V15ZM7 7.00003H9V9.00003H7V7.00003Z" fill="white"/>
</g>
<defs>
<clipPath id="clip0_978_13209">
<rect width="24" height="24" fill="white"/>
</clipPath>
</defs>
</svg>
