<svg width="48" height="34" viewBox="0 0 48 34" fill="none" xmlns="http://www.w3.org/2000/svg">
<path d="M45.269 0H2.50096C1.12558 0 0 1.25098 0 2.48802C0 3.72506 1.12558 4.97505 2.50096 4.97505H3.10505V9.95109H44.7257V4.97505H45.269C46.6454 4.97505 47.77 3.72506 47.77 2.48802C47.77 1.25098 46.6454 0 45.269 0ZM23.885 7.48397C23.1943 7.48397 22.635 6.90774 22.635 6.19816C22.635 5.48857 23.1943 4.91235 23.885 4.91235C24.5767 4.91235 25.135 5.48857 25.135 6.19816C25.135 6.90774 24.5767 7.48397 23.885 7.48397ZM3.10505 19.9022H44.7257V11.9425H3.10505V19.9022ZM23.885 14.5539C24.5767 14.5539 25.135 15.1292 25.135 15.8387C25.135 16.5493 24.5767 17.1245 23.885 17.1245C23.1943 17.1245 22.635 16.5493 22.635 15.8387C22.634 15.1292 23.1943 14.5539 23.885 14.5539ZM3.10505 26.7661V32.5523C3.10505 33.2589 3.19362 33.8381 3.88131 33.8381H8.88124C9.56893 33.8381 9.88043 33.2589 9.88043 32.5523V28.86H37.9503V32.5523C37.9503 33.2589 38.2011 33.8381 38.8878 33.8381H43.8887C44.5744 33.8381 44.7247 33.2589 44.7247 32.5523V21.8946H3.10505V26.7661ZM23.885 24.1955C24.5767 24.1955 25.135 24.7717 25.135 25.4803C25.135 26.1919 24.5767 26.7651 23.885 26.7651C23.1943 26.7651 22.635 26.1919 22.635 25.4803C22.634 24.7727 23.1943 24.1955 23.885 24.1955Z" fill="#8A1538"/>
</svg>
