<svg width="24" height="21" viewBox="0 0 24 21" fill="none" xmlns="http://www.w3.org/2000/svg">
<path d="M4.28027 1.44238C6.04911 0.633911 8.42319 0.805247 10.7236 3.05469L10.9463 3.2793L11.667 4.02734L12.3867 3.2793C14.7556 0.81776 17.2268 0.608488 19.0527 1.44336C20.9419 2.30726 22.333 4.36707 22.333 6.8291C22.3329 9.35301 21.3024 11.301 19.8125 12.9785C18.6693 14.2656 17.303 15.3469 15.9424 16.3975L14.5918 17.4434L14.5908 17.4443C13.9767 17.9295 13.4365 18.3493 12.918 18.6523C12.3992 18.9555 11.9965 19.0839 11.667 19.084C11.3377 19.084 10.9351 18.9557 10.416 18.6523C10.0269 18.4249 9.62511 18.1323 9.18945 17.7959L8.74121 17.4453C6.96563 16.0451 5.04588 14.6939 3.52148 12.9775C2.03144 11.2998 1 9.35168 1 6.82715C1.00017 4.36469 2.39138 2.30579 4.28027 1.44238Z" stroke="white" stroke-width="2"/>
</svg>
