<svg width="60" height="53" viewBox="0 0 60 53" fill="none" xmlns="http://www.w3.org/2000/svg">
<g filter="url(#filter0_d_2053_10321)">
<path fill-rule="evenodd" clip-rule="evenodd" d="M51.875 20.4006L53.83 21.9656C54.2192 22.2689 54.7122 22.4066 55.2022 22.3487C55.6923 22.2909 56.1397 22.0423 56.4476 21.6567C56.7555 21.2712 56.8991 20.7798 56.8471 20.2892C56.7951 19.7985 56.5518 19.3481 56.17 19.0356L35.8575 2.78561C34.195 1.45527 32.1292 0.730469 30 0.730469C27.8708 0.730469 25.805 1.45527 24.1425 2.78561L3.83 19.0356C3.44146 19.3462 3.19223 19.7985 3.13714 20.2929C3.08205 20.7873 3.22562 21.2833 3.53625 21.6719C3.84688 22.0604 4.29914 22.3096 4.79354 22.3647C5.28793 22.4198 5.78396 22.2762 6.1725 21.9656L8.125 20.4006V46.1256H5C4.50272 46.1256 4.02581 46.3232 3.67417 46.6748C3.32254 47.0264 3.125 47.5033 3.125 48.0006C3.125 48.4979 3.32254 48.9748 3.67417 49.3264C4.02581 49.6781 4.50272 49.8756 5 49.8756H55C55.4973 49.8756 55.9742 49.6781 56.3258 49.3264C56.6775 48.9748 56.875 48.4979 56.875 48.0006C56.875 47.5033 56.6775 47.0264 56.3258 46.6748C55.9742 46.3232 55.4973 46.1256 55 46.1256H51.875V20.4006ZM23.125 16.7506C23.125 14.9272 23.8493 13.1786 25.1386 11.8893C26.428 10.5999 28.1766 9.87561 30 9.87561C31.8234 9.87561 33.572 10.5999 34.8614 11.8893C36.1507 13.1786 36.875 14.9272 36.875 16.7506C36.875 18.574 36.1507 20.3227 34.8614 21.612C33.572 22.9013 31.8234 23.6256 30 23.6256C28.1766 23.6256 26.428 22.9013 25.1386 21.612C23.8493 20.3227 23.125 18.574 23.125 16.7506ZM30.125 26.1256C31.785 26.1256 33.2175 26.1256 34.365 26.2806C35.595 26.4456 36.7725 26.8181 37.7275 27.7731C38.6825 28.7281 39.055 29.9056 39.22 31.1356C39.365 32.2106 39.375 33.5356 39.375 35.0681V46.1256H35.625V35.5006C35.625 33.6806 35.62 32.5006 35.505 31.6356C35.395 30.8231 35.22 30.5681 35.075 30.4256C34.93 30.2831 34.6775 30.1056 33.865 29.9956C32.9975 29.8806 31.82 29.8756 30 29.8756C28.18 29.8756 27 29.8806 26.135 29.9956C25.3225 30.1056 25.0675 30.2831 24.925 30.4256C24.7825 30.5681 24.605 30.8231 24.495 31.6356C24.38 32.5031 24.375 33.6806 24.375 35.5006V46.1256H20.625V35.3756C20.625 33.7156 20.625 32.2831 20.78 31.1356C20.945 29.9056 21.3175 28.7281 22.2725 27.7731C23.2275 26.8181 24.4075 26.4456 25.635 26.2806C26.7825 26.1256 28.215 26.1256 29.8775 26.1256H30.125Z" fill="#8A1538"/>
</g>
<defs>
<filter id="filter0_d_2053_10321" x="-0.875" y="0.730469" width="61.75" height="57.1445" filterUnits="userSpaceOnUse" color-interpolation-filters="sRGB">
<feFlood flood-opacity="0" result="BackgroundImageFix"/>
<feColorMatrix in="SourceAlpha" type="matrix" values="0 0 0 0 0 0 0 0 0 0 0 0 0 0 0 0 0 0 127 0" result="hardAlpha"/>
<feOffset dy="4"/>
<feGaussianBlur stdDeviation="2"/>
<feComposite in2="hardAlpha" operator="out"/>
<feColorMatrix type="matrix" values="0 0 0 0 0 0 0 0 0 0 0 0 0 0 0 0 0 0 0.25 0"/>
<feBlend mode="normal" in2="BackgroundImageFix" result="effect1_dropShadow_2053_10321"/>
<feBlend mode="normal" in="SourceGraphic" in2="effect1_dropShadow_2053_10321" result="shape"/>
</filter>
</defs>
</svg>
