<svg width="21" height="21" viewBox="0 0 21 21" fill="none" xmlns="http://www.w3.org/2000/svg">
<g clip-path="url(#clip0_663_15837)">
<path d="M16.3867 19.6008H13.9867C13.8534 19.6008 13.72 19.6674 13.5867 19.8008C13.4534 19.9341 13.3867 20.0786 13.3867 20.2341C13.3867 20.3897 13.4534 20.523 13.5867 20.6341C13.72 20.7452 13.8534 20.8008 13.9867 20.8008H16.3867C16.5645 20.8008 16.7089 20.7452 16.82 20.6341C16.9311 20.523 16.9867 20.3897 16.9867 20.2341C16.9867 20.0786 16.9311 19.9341 16.82 19.8008C16.7089 19.6674 16.5645 19.6008 16.3867 19.6008ZM11.6534 19.6008H9.32002C9.14224 19.6008 8.9978 19.6674 8.88669 19.8008C8.77558 19.9341 8.72002 20.0786 8.72002 20.2341C8.72002 20.3897 8.77558 20.523 8.88669 20.6341C8.9978 20.7452 9.14224 20.8008 9.32002 20.8008H11.6534C11.8311 20.8008 11.9756 20.7452 12.0867 20.6341C12.1978 20.523 12.2534 20.3897 12.2534 20.2341C12.2534 20.0786 12.1978 19.9341 12.0867 19.8008C11.9756 19.6674 11.8311 19.6008 11.6534 19.6008ZM19.92 9.00078C19.7867 9.00078 19.6534 9.05634 19.52 9.16745C19.3867 9.27856 19.32 9.423 19.32 9.60078V11.9341C19.32 12.1119 19.3867 12.2563 19.52 12.3674C19.6534 12.4786 19.7978 12.5341 19.9534 12.5341C20.1089 12.5341 20.2422 12.4786 20.3534 12.3674C20.4645 12.2563 20.52 12.1119 20.52 11.9341V9.60078C20.52 9.423 20.4645 9.27856 20.3534 9.16745C20.2422 9.05634 20.0978 9.00078 19.92 9.00078ZM19.92 13.6674C19.7867 13.6674 19.6534 13.7341 19.52 13.8674C19.3867 14.0008 19.32 14.1341 19.32 14.2674V16.6008C19.32 16.7786 19.3867 16.923 19.52 17.0341C19.6534 17.1452 19.7978 17.2008 19.9534 17.2008C20.1089 17.2008 20.2422 17.1452 20.3534 17.0341C20.4645 16.923 20.52 16.7786 20.52 16.6008V14.2674C20.52 14.1341 20.4645 14.0008 20.3534 13.8674C20.2422 13.7341 20.0978 13.6674 19.92 13.6674ZM6.98669 19.6008H6.38669V19.0674C6.38669 18.8897 6.33113 18.7452 6.22002 18.6341C6.10891 18.523 5.96446 18.4674 5.78669 18.4674C5.60891 18.4674 5.46446 18.523 5.35335 18.6341C5.24224 18.7452 5.18669 18.8897 5.18669 19.0674V20.2008C5.18669 20.3786 5.24224 20.523 5.35335 20.6341C5.46446 20.7452 5.60891 20.8008 5.78669 20.8008H6.98669C7.12002 20.8008 7.24224 20.7452 7.35335 20.6341C7.46446 20.523 7.52002 20.3897 7.52002 20.2341C7.52002 20.0786 7.46446 19.9341 7.35335 19.8008C7.24224 19.6674 7.12002 19.6008 6.98669 19.6008ZM19.92 5.46745H18.7867C18.6089 5.46745 18.4645 5.523 18.3534 5.63411C18.2422 5.74522 18.1867 5.88967 18.1867 6.06745C18.1867 6.24522 18.2422 6.38967 18.3534 6.50078C18.4645 6.61189 18.6089 6.66745 18.7867 6.66745H19.32V7.26745C19.32 7.40078 19.3867 7.523 19.52 7.63411C19.6534 7.74522 19.7978 7.80078 19.9534 7.80078C20.1089 7.80078 20.2422 7.74522 20.3534 7.63411C20.4645 7.523 20.52 7.40078 20.52 7.26745V6.06745C20.52 5.88967 20.4645 5.74522 20.3534 5.63411C20.2422 5.523 20.0978 5.46745 19.92 5.46745ZM19.92 18.4674C19.7867 18.4674 19.6534 18.523 19.52 18.6341C19.3867 18.7452 19.32 18.8897 19.32 19.0674V19.6008H18.7867C18.6089 19.6008 18.4645 19.6674 18.3534 19.8008C18.2422 19.9341 18.1867 20.0786 18.1867 20.2341C18.1867 20.3897 18.2422 20.523 18.3534 20.6341C18.4645 20.7452 18.6089 20.8008 18.7867 20.8008H19.92C20.0978 20.8008 20.2422 20.7452 20.3534 20.6341C20.4645 20.523 20.52 20.3786 20.52 20.2008V19.0674C20.52 18.8897 20.4645 18.7452 20.3534 18.6341C20.2422 18.523 20.0978 18.4674 19.92 18.4674ZM16.3867 5.46745H15.7867V1.40078C15.7867 1.223 15.72 1.07856 15.5867 0.967447C15.4534 0.856337 15.32 0.800779 15.1867 0.800779H1.12002C0.942242 0.800779 0.797797 0.856337 0.686686 0.967447C0.575575 1.07856 0.52002 1.223 0.52002 1.40078V15.4674C0.52002 15.6008 0.575575 15.7341 0.686686 15.8674C0.797797 16.0008 0.942242 16.0674 1.12002 16.0674H5.18669V16.6008C5.18669 16.7786 5.24224 16.923 5.35335 17.0341C5.46446 17.1452 5.60891 17.2008 5.78669 17.2008C5.96446 17.2008 6.10891 17.1452 6.22002 17.0341C6.33113 16.923 6.38669 16.7786 6.38669 16.6008V6.66745H16.3867C16.5645 6.66745 16.7089 6.61189 16.82 6.50078C16.9311 6.38967 16.9867 6.24522 16.9867 6.06745C16.9867 5.88967 16.9311 5.74522 16.82 5.63411C16.7089 5.523 16.5645 5.46745 16.3867 5.46745ZM14.5867 5.46745H5.78669C5.60891 5.46745 5.46446 5.523 5.35335 5.63411C5.24224 5.74522 5.18669 5.88967 5.18669 6.06745V14.8674H1.72002V2.00078H14.5867V5.46745Z" fill="#1A1A1A"/>
</g>
<defs>
<clipPath id="clip0_663_15837">
<rect width="20" height="20" fill="white" transform="matrix(1 0 0 -1 0.52002 20.8008)"/>
</clipPath>
</defs>
</svg>
