<svg width="61" height="61" viewBox="0 0 61 61" fill="none" xmlns="http://www.w3.org/2000/svg">
<path d="M18.4604 43.49C18.4604 42.9567 18.6604 42.49 19.0604 42.09C19.4604 41.69 19.8604 41.49 20.2605 41.49H41.0605C41.4604 41.49 41.8605 41.69 42.2604 42.09C42.6604 42.49 42.8605 42.9567 42.8605 43.49C42.8605 44.0233 42.6604 44.4567 42.2604 44.79C41.8605 45.1233 41.4604 45.29 41.0605 45.29H20.2605C19.8604 45.29 19.4604 45.1233 19.0604 44.79C18.6604 44.4567 18.4604 44.0233 18.4604 43.49ZM38.6604 4.88999C36.3938 3.02332 33.7271 2.08999 30.6604 2.08999C27.5938 2.08999 24.9271 3.02332 22.6604 4.88999L7.66045 16.49C6.06045 17.8233 4.79378 19.3567 3.86045 21.09C2.92712 22.8233 2.46045 24.69 2.46045 26.69V45.49C2.46045 47.7567 3.06045 49.89 4.26045 51.89C5.46045 53.89 7.06045 55.49 9.06045 56.69C11.0604 57.89 13.2604 58.49 15.6604 58.49H45.6604C48.0605 58.49 50.2604 57.89 52.2604 56.69C54.2604 55.49 55.8605 53.89 57.0605 51.89C58.2604 49.89 58.8605 47.7567 58.8605 45.49V26.69C58.8605 24.69 58.3938 22.8233 57.4604 21.09C56.5271 19.3567 55.2604 17.8233 53.6604 16.49L38.6604 4.88999ZM24.8604 7.88999C26.5938 6.55666 28.5271 5.88999 30.6604 5.88999C32.7938 5.88999 34.7271 6.55666 36.4604 7.88999L51.4604 19.49C52.5271 20.4233 53.3938 21.5233 54.0605 22.79C54.7271 24.0567 55.0605 25.3567 55.0605 26.69V45.49C55.0605 48.0233 54.1271 50.19 52.2604 51.99C50.3938 53.79 48.1938 54.69 45.6604 54.69H15.6604C13.1271 54.69 10.9271 53.79 9.06045 51.99C7.19378 50.19 6.26045 48.0233 6.26045 45.49V26.69C6.26045 25.3567 6.59378 24.0567 7.26045 22.79C7.92712 21.5233 8.79378 20.4233 9.86045 19.49L24.8604 7.88999Z" fill="#1A1A1A"/>
</svg>
