<svg width="61" height="61" viewBox="0 0 61 61" fill="none" xmlns="http://www.w3.org/2000/svg">
<path d="M30.9903 56.6904C30.1903 56.6904 29.457 56.4904 28.7903 56.0904L19.9903 50.8904C16.257 48.7571 13.2236 45.8238 10.8903 42.0904C8.55696 38.3571 7.19029 34.3571 6.79029 30.0904L5.59029 15.0904C5.45696 14.0238 5.65696 13.0571 6.19029 12.1904C6.72363 11.3238 7.45696 10.7571 8.39029 10.4904C9.85696 10.0904 11.1903 9.49043 12.3903 8.69043C13.857 7.7571 15.1903 6.55709 16.3903 5.09043C17.1903 4.02376 18.3236 3.49043 19.7903 3.49043H42.1903C43.657 3.49043 44.7903 4.02376 45.5903 5.09043C46.7903 6.55709 48.1236 7.7571 49.5903 8.69043C50.7903 9.49043 52.1236 10.0904 53.5903 10.4904C54.5236 10.7571 55.257 11.3238 55.7903 12.1904C56.3236 13.0571 56.5903 13.9571 56.5903 14.8904L55.1903 29.8904C54.9236 34.2904 53.6236 38.3238 51.2903 41.9904C48.957 45.6571 45.9236 48.6238 42.1903 50.8904L33.3903 56.0904C32.5903 56.4904 31.7903 56.6904 30.9903 56.6904ZM19.7903 7.09043C19.5236 7.09043 19.3236 7.1571 19.1903 7.29043C17.857 9.02376 16.3236 10.5571 14.5903 11.8904C13.1236 12.8238 11.5236 13.4904 9.79029 13.8904C9.39029 14.0238 9.19029 14.2904 9.19029 14.6904L10.5903 29.6904C10.857 33.4238 11.9903 36.8904 13.9903 40.0904C15.9903 43.2904 18.5903 45.8238 21.7903 47.6904L30.5903 52.8904C30.857 53.0238 31.1236 53.0238 31.3903 52.8904L40.1903 47.6904C43.3903 45.8238 45.9903 43.3238 47.9903 40.1904C49.9903 37.0571 51.1236 33.5571 51.3903 29.6904L52.7903 14.6904C52.7903 14.4238 52.5903 14.2238 52.1903 14.0904C50.457 13.6904 48.857 12.9571 47.3903 11.8904C45.657 10.6904 44.1236 9.22376 42.7903 7.49043C42.657 7.35709 42.457 7.29043 42.1903 7.29043L19.7903 7.09043ZM29.1903 35.8904C28.657 35.8904 28.1903 35.6904 27.7903 35.2904L22.7903 30.2904C22.5236 30.0238 22.4236 29.6571 22.4903 29.1904C22.557 28.7238 22.757 28.3238 23.0903 27.9904C23.4236 27.6571 23.7903 27.4571 24.1903 27.3904C24.5903 27.3238 24.9903 27.4238 25.3903 27.6904L29.1903 31.4904L37.7903 22.6904C38.1903 22.5571 38.5903 22.4904 38.9903 22.4904C39.3903 22.4904 39.757 22.6571 40.0903 22.9904C40.4236 23.3238 40.6236 23.6904 40.6903 24.0904C40.757 24.4904 40.657 24.8904 40.3903 25.2904L30.3903 35.2904C30.1236 35.6904 29.7236 35.8904 29.1903 35.8904Z" fill="#1A1A1A"/>
</svg>
