<svg width="32" height="32" viewBox="0 0 32 32" fill="none" xmlns="http://www.w3.org/2000/svg">
<path d="M15.9992 0.25C20.1766 0.25 24.183 1.90949 27.1369 4.8634C30.0908 7.81731 31.7503 11.8237 31.7503 16.0011C31.7503 20.1786 30.0908 24.1849 27.1369 27.1389C24.183 30.0928 20.1766 31.7523 15.9992 31.7523C11.8217 31.7523 7.81535 30.0928 4.86144 27.1389C1.90754 24.1849 0.248047 20.1786 0.248047 16.0011C0.248047 11.8237 1.90754 7.81731 4.86144 4.8634C7.81535 1.90949 11.8217 0.25 15.9992 0.25ZM18.3617 9.9205C19.5317 9.9205 20.4812 9.10825 20.4812 7.9045C20.4812 6.70075 19.5294 5.8885 18.3617 5.8885C17.1917 5.8885 16.2467 6.70075 16.2467 7.9045C16.2467 9.10825 17.1917 9.9205 18.3617 9.9205ZM18.7734 22.5813C18.7734 22.3405 18.8567 21.715 18.8094 21.3595L16.9599 23.488C16.5774 23.8908 16.0982 24.1697 15.8732 24.0955C15.7711 24.0579 15.6858 23.9852 15.6326 23.8903C15.5793 23.7954 15.5617 23.6847 15.5829 23.578L18.6654 13.84C18.9174 12.6047 18.2244 11.4775 16.7552 11.3335C15.2049 11.3335 12.9234 12.9062 11.5352 14.902C11.5352 15.1405 11.4902 15.7345 11.5374 16.09L13.3847 13.9592C13.7672 13.561 14.2127 13.2797 14.4377 13.3562C14.5485 13.396 14.6394 13.4777 14.6907 13.5837C14.742 13.6897 14.7497 13.8116 14.7122 13.9233L11.6567 23.614C11.3034 24.748 11.9717 25.8595 13.5917 26.1115C15.9767 26.1115 17.3852 24.577 18.7757 22.5813H18.7734Z" fill="#8A1538"/>
</svg>
