<svg width="102" height="101" viewBox="0 0 102 101" fill="none" xmlns="http://www.w3.org/2000/svg">
<path fill-rule="evenodd" clip-rule="evenodd" d="M45.4472 14.6497C44.7526 15.3443 44.6024 16.1278 45.011 16.9267C45.444 17.7732 45.959 18.004 47.425 18.0086L48.8104 18.0128V19.1593C48.8104 20.2944 48.805 20.3059 48.2616 20.3059C47.0417 20.3059 43.8752 21.2903 41.8357 22.3039C37.9001 24.2595 34.6436 27.468 32.7117 31.2934C32.1138 32.4773 31.0393 35.4948 31.0393 35.9903C31.0393 36.3497 31.4415 36.3572 50.9123 36.3572C69.0148 36.3572 70.7854 36.3298 70.7854 36.051C70.7854 35.5374 69.6843 32.4229 69.0883 31.2507C67.0798 27.3008 63.5776 23.9543 59.4059 21.9995C57.7607 21.2284 54.5776 20.3059 53.5631 20.3059C53.0196 20.3059 53.0143 20.2944 53.0143 19.1593V18.0128L54.3997 18.0086C55.8657 18.004 56.3807 17.7732 56.8137 16.9267C57.2222 16.1278 57.072 15.3443 56.3774 14.6497L55.7277 14H50.9123H46.0969L45.4472 14.6497ZM46.0396 24.9554C43.2522 25.8852 41.1329 27.2309 39.1234 29.3468C37.5745 30.9779 37.2916 31.6992 37.8091 32.7001C37.9778 33.0263 38.3845 33.4322 38.7124 33.6017C39.7034 34.1142 40.3265 33.8428 42.0268 32.1592C43.8614 30.3423 45.3154 29.4345 47.4187 28.7918C49.238 28.2362 49.7658 27.7409 49.7658 26.589C49.7658 26.0553 49.6215 25.6936 49.2403 25.2705C48.5262 24.4783 47.7107 24.398 46.0396 24.9554ZM4.38266 34.7461C3.01735 35.4549 2.00478 36.9514 2 38.268C1.99866 38.6359 2.76378 44.7059 3.70029 51.757C5.57619 65.881 5.5439 65.7333 7.09132 67.2391C7.53541 67.6713 8.22542 68.1773 8.62479 68.3636C9.02417 68.5498 9.37672 68.7237 9.40825 68.7498C9.43978 68.776 8.63683 72.512 7.62388 77.0518C6.61093 81.5916 5.83072 85.5001 5.89034 85.7375C6.31283 87.4209 8.64314 87.9162 9.55959 86.5175C9.71074 86.2868 10.653 82.4091 11.6537 77.9C12.6544 73.391 13.5191 69.5503 13.5753 69.3651C13.671 69.0502 14.1468 69.0317 20.9612 69.0785L28.2448 69.1286L30.3948 77.7275C32.4336 85.8825 32.5751 86.3535 33.1326 86.8519C34.4053 87.9894 36.3897 87.0816 36.3897 85.3616C36.3897 85.1034 35.5298 81.3973 34.4789 77.1257C33.4279 72.8542 32.568 69.2858 32.568 69.196C32.568 69.1064 32.7426 69.033 32.9563 69.033C33.5616 69.033 34.711 68.4913 35.3086 67.9241C36.6614 66.64 36.8986 65.0427 36.1293 62.3968C35.3502 59.7168 34.4487 58.5607 32.3769 57.585L31.3259 57.0901L24.4002 57.0276L17.4742 56.9653L17.1943 55.9766C17.0405 55.433 15.84 50.9717 14.5269 46.0627C13.2139 41.1536 12.0057 36.8781 11.8419 36.5616C11.4613 35.8256 10.8724 35.2722 9.9796 34.8118C9.03831 34.3265 5.27619 34.2823 4.38266 34.7461ZM91.7858 34.8267C90.7922 35.3519 89.9638 36.3853 89.6072 37.5444C89.4362 38.1001 88.1953 42.6821 86.8493 47.7268L84.402 56.899L77.4505 56.9945L70.4987 57.0901L69.4478 57.585C67.3701 58.5636 66.4628 59.7309 65.6984 62.4092C64.9347 65.085 65.1657 66.6423 66.5161 67.9241C67.1404 68.5165 68.2697 69.033 68.941 69.033H69.4017L67.4238 76.9154C66.3357 81.2507 65.4431 85.0857 65.4403 85.4378C65.4363 85.9152 65.6 86.2431 66.0846 86.7277C66.9395 87.5826 67.8361 87.6168 68.7189 86.828C69.3127 86.2975 69.4061 85.9851 71.4505 77.7036L73.5674 69.1286L80.8572 69.0785C87.6774 69.0317 88.1536 69.0502 88.2494 69.3651C88.3055 69.5503 89.1702 73.391 90.1709 77.9C91.1717 82.4091 92.1139 86.2868 92.2651 86.5175C93.1729 87.903 95.5114 87.4225 95.9274 85.7648C95.9832 85.5427 95.1982 81.6256 94.1828 77.0606C93.1676 72.4953 92.4107 68.7347 92.5009 68.7036C92.591 68.6724 93.1175 68.3875 93.6707 68.0703C94.6984 67.481 95.6255 66.4052 96.1346 65.2113C96.404 64.5797 99.8288 39.6475 99.83 38.3097C99.8311 36.9656 98.8629 35.5133 97.4974 34.8109C96.476 34.2856 92.7905 34.2957 91.7858 34.8267ZM21.1729 40.8997C20.4506 41.4848 20.3384 41.9788 20.3384 44.5739C20.3384 47.1691 20.4506 47.663 21.1729 48.2481C21.5549 48.5575 23.3576 48.5785 49.9238 48.5825L78.2672 48.5867L78.8257 48.0282L79.3843 47.4696V44.5739V41.6782L78.8257 41.1196L78.2672 40.5611L49.9238 40.5653C23.3576 40.5693 21.5549 40.5903 21.1729 40.8997ZM46.8995 65.504C46.8995 76.0497 46.8533 78.3281 46.6283 78.8664C46.4164 79.3735 45.792 79.8936 43.7697 81.2471C42.3467 82.1995 41.0928 83.1459 40.9834 83.3502C40.6521 83.9693 40.7444 86.0751 41.1233 86.5429C41.7895 87.3653 41.9314 87.3774 50.9123 87.3774C59.8932 87.3774 60.0352 87.3653 60.7013 86.5429C61.0802 86.0751 61.1725 83.9693 60.8412 83.3502C60.7319 83.1459 59.478 82.1995 58.055 81.2471C56.0327 79.8936 55.4082 79.3735 55.1963 78.8664C54.9714 78.3281 54.9251 76.0497 54.9251 65.504V52.7906H50.9123H46.8995V65.504Z" fill="#8A1538"/>
</svg>
