<svg width="101" height="101" viewBox="0 0 101 101" fill="none" xmlns="http://www.w3.org/2000/svg">
<path fill-rule="evenodd" clip-rule="evenodd" d="M3.38847 2.32592C2.44511 2.77588 1.68509 3.56595 1.29331 4.50358C1.02728 5.14014 0.996462 10.0352 1.00029 51.0117C1.00431 95.1798 1.01713 96.8355 1.35896 97.5739C1.79323 98.5121 2.58233 99.275 3.52589 99.6691C5.29129 100.406 7.52923 99.6515 8.55509 97.9724L9.13023 97.0311L9.19032 92.3742L9.25061 87.7172H50.0046H90.7588L90.7672 92.0714C90.7762 96.7383 90.8658 97.3079 91.7781 98.5042C92.7873 99.8273 95.0266 100.343 96.5528 99.6046C97.5731 99.1106 98.0537 98.6195 98.6929 97.4169L99.18 96.501V50.6615C99.18 23.7999 99.1092 4.86588 99.0091 4.9277C98.9149 4.98588 98.7836 4.8165 98.717 4.55142C98.5274 3.79581 97.325 2.6021 96.396 2.24726C94.8191 1.64514 92.7349 2.18142 91.7781 3.4358C90.7538 4.7788 90.7762 4.40884 90.7672 20.1081L90.7588 34.7017H49.9923H9.22592L9.2175 20.1081C9.2085 4.40884 9.2309 4.7788 8.20657 3.4358C7.21822 2.14027 4.89856 1.60591 3.38847 2.32592ZM1.09024 50.97C1.09024 76.2864 1.11245 86.6429 1.13962 73.9849C1.1668 61.3266 1.1668 40.6132 1.13962 27.9552C1.11245 15.2969 1.09024 25.6537 1.09024 50.97ZM22.0344 10.763L21.475 11.3225V20.3474V29.3722L22.0344 29.9317L22.5939 30.4911H37.7433H52.8927L53.4521 29.9317L54.0116 29.3722V20.3474V11.3225L53.4521 10.763L52.8927 10.2036H46.8491H40.8055V11.9613C40.8055 13.3482 40.7219 13.8921 40.4092 14.538C39.3328 16.7616 36.1538 16.7616 35.0774 14.538C34.7646 13.8921 34.681 13.3482 34.681 11.9613V10.2036H28.6374H22.5939L22.0344 10.763ZM9.22592 61.1138V79.4874H49.9923H90.7588V61.1138V42.7402H49.9923H9.22592V61.1138ZM50.6431 51.6208L49.9923 52.2715V63.2191V74.1667L50.6431 74.8174L51.2938 75.4682H64.1488C73.2395 75.4682 77.1261 75.4056 77.4218 75.2544C77.6517 75.1369 77.9885 74.8568 78.1706 74.6323C78.4753 74.2561 78.5013 73.3609 78.5013 63.2191C78.5013 53.0772 78.4753 52.1821 78.1706 51.8058C77.5334 51.0194 77.183 50.97 72.2315 50.97H67.4591L67.3711 52.9521C67.2649 55.3368 66.9142 56.0712 65.5705 56.7217C64.0981 57.4343 62.7021 57.0157 61.7151 55.5653C61.3369 55.0099 61.2845 54.6909 61.2845 52.9513V50.97H56.2891H51.2938L50.6431 51.6208ZM18.4933 55.2608C17.2814 55.7885 17.2644 55.9297 17.2651 65.3533C17.2657 73.4991 17.2812 73.8666 17.6479 74.4681C17.8581 74.8128 18.251 75.179 18.521 75.2815C19.2449 75.5568 40.1334 75.5311 40.6746 75.2544C41.7906 74.6836 41.7537 75.0247 41.7583 65.2796L41.7625 56.3351L41.2044 55.71L40.6463 55.0849L36.6277 55.0266L32.6092 54.968L32.5445 57.1319C32.4754 59.4481 32.3397 59.8154 31.2469 60.6462C30.5372 61.1856 28.594 61.1678 27.8527 60.6152C26.8439 59.8632 26.5601 59.1061 26.4805 56.9524L26.4077 54.9892L22.7453 54.9967C20.1178 55.0021 18.9161 55.0767 18.4933 55.2608Z" fill="#8A1538"/>
</svg>
