<svg width="102" height="101" viewBox="0 0 102 101" fill="none" xmlns="http://www.w3.org/2000/svg">
<path fill-rule="evenodd" clip-rule="evenodd" d="M49.3703 2.25769C49.0421 2.40057 48.5257 2.84221 48.2227 3.23948L47.672 3.96133L47.6267 50.7418L47.5814 97.5222L48.0131 98.2834C48.5056 99.1514 49.6836 99.9052 50.5552 99.91C50.8785 99.9117 58.5337 98.1893 67.5668 96.0825C85.2742 91.9528 84.8446 92.0823 85.5165 90.6661C85.8044 90.0598 85.8304 86.7392 85.8304 50.6924C85.8304 23.3815 85.7682 11.2156 85.6269 10.8415C85.3662 10.1514 84.5315 9.26525 83.9177 9.02692C83.6547 8.92479 76.5538 7.38411 68.1379 5.603C59.7221 3.82189 52.4754 2.27873 52.0343 2.17372C50.9563 1.91723 50.0899 1.94439 49.3703 2.25769ZM20.0052 6.83937C18.5468 7.36039 17.2716 8.85096 17.0704 10.2698C17.008 10.709 16.9822 29.3153 17.013 51.6174C17.0652 89.5508 17.0901 92.2055 17.398 92.768C17.8764 93.6421 18.8603 94.564 19.7424 94.9647C20.461 95.2912 21.3036 95.3146 32.5139 95.3184L44.5161 95.3226V90.7321V86.1416H35.3351H26.1542V50.9479V15.7543H35.3351H44.5161V11.1638V6.57331L32.6095 6.58173C23.3272 6.58823 20.5492 6.64504 20.0052 6.83937ZM55.7863 11.7229L55.2272 12.282V26.346C55.2272 36.246 55.2901 40.548 55.4395 40.8762C55.8651 41.8102 57.0886 42.0269 57.818 41.2974L58.2875 40.828V27.7173C58.2875 15.3541 58.3067 14.6072 58.6222 14.6181C58.8063 14.6246 62.572 15.336 66.9903 16.199L75.0237 17.7682V50.5637V83.3592L71.8677 83.9776C64.7188 85.3786 58.7072 86.5242 58.504 86.5242C58.3457 86.5242 58.2875 83.9376 58.2875 76.9077C58.2875 66.4335 58.3078 66.6313 57.2107 66.3561C56.5305 66.1853 55.7107 66.5454 55.4433 67.1323C55.2909 67.4664 55.2272 70.7411 55.2272 78.2276V88.8489L55.7863 89.4079C56.0939 89.7155 56.4596 89.9664 56.5992 89.9659C56.7388 89.9651 61.4578 89.0665 67.0859 87.9688C76.6992 86.094 77.3449 85.9429 77.7492 85.4729L78.1796 84.9726V50.5654V16.1582L77.7492 15.6611C77.3462 15.1956 76.6678 15.0368 67.0859 13.1654C61.4578 12.0664 56.7388 11.1663 56.5992 11.1653C56.4596 11.1646 56.0939 11.4153 55.7863 11.7229ZM63.2745 22.5702C62.6565 23.3555 62.8239 24.3056 63.6586 24.7522C64.114 24.9959 68.0402 25.6973 68.9594 25.699C69.7253 25.7005 70.5288 24.9767 70.5288 24.2851C70.5288 24.0233 70.3352 23.5914 70.0984 23.3255C69.7329 22.9148 69.3188 22.7834 67.3516 22.4541C64.2272 21.931 63.767 21.944 63.2745 22.5702ZM66.3188 30.2973C66.0519 31.1056 65.669 31.4384 65.0059 31.4384C64.3791 31.4384 64.3408 31.7959 64.8802 32.6111C65.3322 33.2941 65.3741 33.4942 65.2589 34.4171C65.1122 35.5905 65.3244 35.747 66.165 35.0857C66.6324 34.7181 66.6372 34.7185 67.195 35.1745C67.5033 35.4264 67.8199 35.6356 67.8988 35.6395C67.9778 35.6433 68.0423 35.1207 68.0423 34.4785C68.0423 33.5068 68.124 33.2136 68.5283 32.7329C69.1241 32.0248 69.0643 31.7877 68.2192 31.5101C67.698 31.3389 67.5008 31.1257 67.2548 30.4666C67.0846 30.011 66.8624 29.6106 66.761 29.5768C66.6598 29.5431 66.4607 29.8673 66.3188 30.2973ZM56.6124 49.5123C55.0105 50.2085 53.8122 51.776 53.5785 53.4807C53.3958 54.8133 53.9302 56.3555 54.9162 57.3413C56.008 58.4333 57.1543 58.8581 58.7372 58.7573C60.9938 58.6135 62.6869 57.1055 63.1137 54.8588L63.3298 53.7214H65.3655C67.2973 53.7214 67.4494 53.6917 68.3376 53.143C69.522 52.4114 69.8406 51.5908 69.249 50.7951C68.7699 50.1505 67.7206 50.0088 66.9871 50.4895C66.1298 51.0512 64.5696 50.9024 61.9806 50.0119C59.4807 49.1519 57.8011 48.9957 56.6124 49.5123ZM57.9593 52.2478C57.3635 52.3377 56.5661 53.3518 56.5661 54.0199C56.5661 54.8942 57.4938 55.8062 58.3832 55.8062C59.2726 55.8062 60.2002 54.8942 60.2002 54.0199C60.2002 52.9482 59.0974 52.0762 57.9593 52.2478ZM66.3188 67.7862C66.0519 68.5945 65.669 68.9273 65.0059 68.9273C64.3791 68.9273 64.3408 69.2848 64.8802 70.1C65.3322 70.783 65.3741 70.9831 65.2589 71.906C65.1122 73.0794 65.3244 73.2359 66.165 72.5747C66.6324 72.207 66.6372 72.2074 67.195 72.6634C67.5033 72.9153 67.8199 73.1245 67.8988 73.1284C67.9778 73.1322 68.0423 72.6097 68.0423 71.9674C68.0423 70.9957 68.124 70.7025 68.5283 70.2218C69.1241 69.5138 69.0643 69.2766 68.2192 68.9991C67.698 68.8279 67.5008 68.6146 67.2548 67.9555C67.0846 67.4999 66.8624 67.0995 66.761 67.0657C66.6598 67.032 66.4607 67.3562 66.3188 67.7862ZM65.9576 76.7925C64.8638 76.9865 63.7676 77.277 63.522 77.4379C62.9319 77.8246 62.7437 78.6167 63.0936 79.2402C63.5643 80.0788 64.1482 80.1432 67.0444 79.6767C69.3351 79.3077 69.7228 79.1922 70.0984 78.7663C70.6348 78.1582 70.6459 77.5437 70.1323 76.8909C69.6505 76.2782 68.9501 76.2618 65.9576 76.7925Z" fill="#8A1538"/>
</svg>
