<svg width="104" height="101" viewBox="0 0 104 101" fill="none" xmlns="http://www.w3.org/2000/svg">
<path fill-rule="evenodd" clip-rule="evenodd" d="M29.4613 10.2128C29.3405 11.2603 27.72 28.9568 27.72 29.2284C27.72 29.2832 30.2148 29.328 33.264 29.328H38.808L38.8242 46.9417C38.8387 63.0695 38.8699 64.4589 39.1915 63.4104C39.4578 62.5423 39.9013 61.9138 41.0235 60.8135L42.504 59.3619V44.3448V29.328H48.048C51.0972 29.328 53.592 29.2832 53.592 29.2284C53.592 28.9568 51.9715 11.2603 51.8507 10.2128L51.7107 9H40.656H29.6013L29.4613 10.2128ZM16.4463 31.4359C15.0912 33.2303 14.1125 35.529 13.805 37.6385L13.5426 39.4393L12.364 38.6567C10.7792 37.6045 8.76668 36.9182 6.84107 36.7731L5.25063 36.6535L5.40933 37.784C5.88057 41.1425 7.08777 43.6304 9.32986 45.8637C11.0381 47.5652 12.9642 48.7027 15.1554 49.3044C16.2344 49.6006 16.1226 49.6156 12.678 49.6354L9.07045 49.656L10.5283 54.7465C11.3301 57.5463 12.051 60.0411 12.1303 60.2905C12.2707 60.7334 12.1307 60.744 6.13698 60.744H0V76.452V92.16H1.848H3.696V87.54V82.92H17.556H31.416V87.54V92.16H33.264H35.112V76.4557V60.7514L28.9085 60.6899L22.7052 60.6285L24.2841 55.2C25.1527 52.2143 25.8651 49.7454 25.8676 49.7138C25.8699 49.6821 24.2347 49.6491 22.2338 49.6408C18.6292 49.6257 18.607 49.6225 19.8374 49.2915C24.9907 47.9055 28.8738 43.3763 29.4772 38.0483L29.6276 36.72H28.4848C26.6398 36.72 23.6687 37.8059 21.7718 39.1737C21.2599 39.5428 21.252 39.5359 21.252 38.723C21.252 36.4359 19.9 32.9787 18.301 31.1767L17.4045 30.1665L16.4463 31.4359ZM58.0965 39.0388C55.4328 39.8935 53.0415 42.313 52.2021 45.0025C51.7904 46.3215 51.7442 47.1312 51.747 52.972L51.7498 59.4735L52.9856 60.5571C54.3991 61.7967 55.1383 63.1799 55.3501 64.9819L55.4973 66.2351L56.2841 65.7013C57.8258 64.6551 58.5172 64.6035 72.4185 64.5003C86.643 64.3945 87.1549 64.4278 89.3392 65.5952L90.552 66.2437V65.4991C90.552 63.7532 91.2295 62.3215 92.7705 60.8105L94.248 59.3619V52.8967C94.248 46.9584 94.2085 46.3116 93.7643 44.9584C92.8604 42.2051 90.6109 39.9556 87.8576 39.0517C86.4286 38.5826 85.9803 38.5685 72.9334 38.5809C60.3109 38.5932 59.397 38.6214 58.0965 39.0388ZM45.969 62.5964C44.2076 62.7368 43.5671 63.0459 42.9544 64.0505C42.5246 64.7555 42.5056 65.3166 42.5056 77.376C42.5056 89.4559 42.5241 89.9955 42.9568 90.7049C43.6738 91.8812 44.4726 92.16 47.124 92.16C49.7754 92.16 50.5742 91.8812 51.2912 90.7049C51.7239 89.9955 51.7424 89.4555 51.7431 77.4222C51.744 64.0175 51.7611 64.2303 50.5959 63.176C50.0073 62.6431 48.2076 62.4176 45.969 62.5964ZM95.7031 63.0448C94.2099 63.9549 94.248 63.5798 94.2489 77.4222C94.2496 89.4555 94.2681 89.9955 94.7008 90.7049C95.4178 91.8812 96.2166 92.16 98.868 92.16C101.519 92.16 102.318 91.8812 103.035 90.7049C103.468 89.9955 103.486 89.4555 103.487 77.4222C103.488 63.5798 103.526 63.9549 102.033 63.0448C101.424 62.6731 100.867 62.5936 98.868 62.5936C96.8689 62.5936 96.3125 62.6731 95.7031 63.0448ZM59.0205 68.4797C57.8156 68.9112 56.0196 70.7934 55.6943 71.9651C55.5557 72.4636 55.4421 73.8849 55.4414 75.1237L55.44 77.376H73.0203H90.6007L90.51 74.6618C90.4104 71.6821 90.209 71.0734 88.8939 69.7768C87.26 68.166 88.1568 68.2568 73.3425 68.2002C62.2011 68.1575 59.7888 68.2046 59.0205 68.4797ZM12.936 71.832V73.68H17.556H22.176V71.832V69.984H17.556H12.936V71.832ZM55.44 86.0489C55.44 91.0253 55.44 91.026 56.0071 91.5929L56.574 92.16H72.996H89.418L89.9849 91.5929C90.552 91.026 90.552 91.0253 90.552 86.0489V81.072H72.996H55.44V86.0489Z" fill="#8A1538"/>
</svg>
