<svg width="102" height="101" viewBox="0 0 102 101" fill="none" xmlns="http://www.w3.org/2000/svg">
<path fill-rule="evenodd" clip-rule="evenodd" d="M18.7841 8.55229C6.63836 20.1105 1.5609 29.91 2.19863 40.5626C2.898 52.2609 10.6618 61.272 23.118 64.8434C23.8349 65.0489 24.0693 68.5891 24.0693 79.2189V93.3211H14.5064C4.62777 93.3211 2 93.9345 2 96.2396C2 99.4183 1.85922 99.4092 50.7389 99.4092C95.2206 99.4092 97.7167 99.3369 98.9108 98.0173C100.183 96.6117 100.653 93.9962 99.5995 94.1841C99.2859 94.2397 97.9154 94.0258 96.5554 93.7085C94.3006 93.1819 94.0822 92.8752 94.0822 90.2421C94.0822 87.6547 94.3188 87.3023 96.3568 86.8548C99.1193 86.2476 99.6961 85.4348 99.0858 83.0041C98.7213 81.5529 98.1216 81.145 96.3507 81.145C94.2838 81.145 94.0822 80.9174 94.0822 78.5918C94.0822 76.3628 94.3972 75.9481 96.5554 75.3309L99.0287 74.6239L99.2532 68.1812C99.3765 64.6379 99.2844 60.9683 99.0485 60.027L98.6193 58.3147H73.5471C44.4476 58.3147 46.8996 57.4875 46.8996 67.3037C46.8996 73.7556 47.2907 74.5531 50.8994 75.4587C52.6627 75.9016 52.9876 76.3841 52.9876 78.5636C52.9876 80.9174 52.789 81.145 50.7313 81.145C49.2305 81.145 48.1933 81.6708 47.6347 82.7157C46.564 84.7156 47.6712 86.1867 50.7571 86.864C52.7609 87.3046 52.9876 87.6569 52.9876 90.3372V93.3211H41.5558H30.1239L30.3309 79.0826L30.5379 64.8442L32.8209 64.3739C39.0566 63.0893 46.0944 57.7036 49.3454 51.7304C55.4921 40.4363 53.1513 27.9344 42.5215 15.2895C37.1929 8.9503 29.1498 2 27.1445 2C26.3325 2 22.5731 4.94663 18.7841 8.55229ZM26.1621 24.8912C25.0259 25.5532 24.8303 26.8561 24.8303 33.7744V41.8815L21.8776 38.9988C18.3914 35.594 15.46 35.3908 15.0985 38.5285C14.9288 40.0048 15.9934 41.5337 19.8548 45.3555L24.8303 50.28V57.2599C24.8303 64.6638 25.2565 65.507 28.5623 64.6425C30.0957 64.2414 30.1574 63.7666 30.1574 52.3887V40.5527L35.1039 35.4289C40.1213 30.2319 40.7772 28.9055 39.1373 27.2655C37.67 25.7983 36.4418 26.1788 33.2037 29.1041L30.1574 31.8567V29.1589C30.1574 27.0722 28.5889 23.9292 27.63 24.0921C27.5547 24.105 26.8941 24.4642 26.1621 24.8912ZM59.0757 78.4815V81.145H73.5349H87.9941V78.4815V75.8179H73.5349H59.0757V78.4815ZM59.0757 90.2771V93.3211H73.5349H87.9941V90.2771V87.2331H73.5349H59.0757V90.2771ZM2.12024 96.3652C2.12024 97.4116 2.29299 97.84 2.50379 97.3164C2.71535 96.7936 2.71535 95.9375 2.50379 95.4139C2.29299 94.8911 2.12024 95.3188 2.12024 96.3652Z" fill="#8A1538"/>
</svg>
