<svg width="102" height="101" viewBox="0 0 102 101" fill="none" xmlns="http://www.w3.org/2000/svg">
<path fill-rule="evenodd" clip-rule="evenodd" d="M19.306 16.1119C15.148 16.6036 11.8323 19.4159 10.5037 23.5784C10.2197 24.468 10.1543 25.6264 10.0792 31.0913C10.0302 34.6449 10.0487 37.9418 10.1201 38.4178C10.2023 38.9668 10.4488 39.5061 10.794 39.8925L11.3382 40.502L16.6606 40.5532L21.9832 40.6047L21.3826 40.213C20.2324 39.4632 20.1954 39.0062 21.0173 35.6741C22.1006 31.2816 22.9566 29.8623 25.1287 28.8574C25.9619 28.4719 26.3335 28.4524 33.8588 28.399C41.5161 28.3447 41.7477 28.3539 42.8465 28.7574C44.3113 29.2953 45.9681 30.9217 46.4289 32.2741C46.8034 33.373 46.8904 38.8253 46.5437 39.473C46.4318 39.6822 46.0662 40.0203 45.731 40.2247L45.1217 40.5963H50.9541H56.7866L56.1773 40.2247C55.8421 40.0203 55.4765 39.6822 55.3646 39.473C55.0179 38.8253 55.1049 33.373 55.4793 32.2741C55.9402 30.9217 57.597 29.2953 59.0618 28.7574C60.1606 28.3539 60.3921 28.3447 68.0494 28.399C75.5748 28.4524 75.9464 28.4719 76.7795 28.8574C78.9517 29.8623 79.8076 31.2816 80.8909 35.6741C81.7128 39.0062 81.6759 39.4632 80.5257 40.213L79.925 40.6047L85.2476 40.5532L90.5701 40.502L91.1143 39.8925C91.4595 39.5061 91.7059 38.9668 91.7882 38.4178C91.8595 37.9418 91.8781 34.6449 91.8291 31.0913C91.754 25.6264 91.6886 24.468 91.4046 23.5784C90.2714 20.0281 87.8537 17.6043 84.2276 16.3831C83.2222 16.0444 81.7977 16.0276 51.8147 16.0025C34.566 15.988 19.9371 16.0372 19.306 16.1119ZM9.70167 44.9077C6.15345 45.8634 3.21334 48.8322 2.28474 52.3969C2.04417 53.3207 2 55.8426 2 68.6651C2 79.4649 2.06158 83.9604 2.2136 84.2578C2.79321 85.3912 4.40219 85.7285 5.3459 84.9145C6.03374 84.3211 6.19705 83.4089 6.20241 80.1338L6.207 77.3132H50.9541H95.7013L95.7058 80.1338C95.7112 83.4089 95.8745 84.3211 96.5624 84.9145C97.1798 85.4472 98.4762 85.4945 99.06 85.0059C100.157 84.0882 100.099 85.0053 100.099 68.3209C100.099 59.6163 100.027 53.0494 99.9322 53.1082C99.8402 53.165 99.7128 52.8904 99.6493 52.498C99.2726 50.1676 96.7892 46.9857 94.4095 45.7844C91.9228 44.529 95.0427 44.612 50.8662 44.626C16.9675 44.6365 10.545 44.6805 9.70167 44.9077ZM2.09122 68.6124C2.09122 77.1315 2.11455 80.6446 2.14342 76.4192C2.1721 72.1937 2.1721 65.2234 2.14342 60.9298C2.11474 56.636 2.09122 60.0932 2.09122 68.6124ZM6.207 71.0983V73.1062H50.9541H95.7013V71.0983V69.0904H50.9541H6.207V71.0983Z" fill="#8A1538"/>
</svg>
