<svg width="102" height="101" viewBox="0 0 102 101" fill="none" xmlns="http://www.w3.org/2000/svg">
<path fill-rule="evenodd" clip-rule="evenodd" d="M6.64536 14.9754V28.9508H14.4877H22.33V14.9754V1H14.4877H6.64536V14.9754ZM25.3463 14.9754V28.9508H33.1886H41.0309V14.9754V1H33.1886H25.3463V14.9754ZM75.8187 2.61974C72.5872 3.01648 68.8115 4.43212 66.1326 6.25114C64.3317 7.47414 61.7467 10.0257 60.5396 11.7721C59.2513 13.6358 57.8795 16.5079 57.3289 18.4944C57.0991 19.3239 56.8039 21.0032 56.6732 22.2264L56.4355 24.45L55.2698 24.6716C52.1125 25.2716 48.5095 28.1063 47.0191 31.1628C46.6147 31.9923 46.2232 32.9199 46.1492 33.2239C46.0158 33.7713 46.0249 33.7769 47.0166 33.7769C47.5676 33.7769 48.2795 33.829 48.5982 33.8927C49.1445 34.0021 49.2093 33.9398 49.7329 32.799C50.7727 30.5336 53.0574 28.5672 55.4588 27.871L56.5145 27.565L56.5147 29.1125V30.6601L58.1234 30.6655L59.7319 30.6711V29.1234V27.5756L60.4859 27.7815C62.9856 28.4642 65.3399 30.4115 66.3972 32.6709C67.0023 33.9641 67.0508 34.0124 67.6275 33.8969C67.9577 33.831 68.6749 33.7769 69.2215 33.7769C70.4071 33.7769 70.4075 33.79 69.1421 31.1744C67.6172 28.0226 64.2728 25.3844 60.9255 24.6931L59.7319 24.4465V23.4178C59.7319 20.3649 61.1419 16.3372 63.2523 13.3617C64.2139 12.0058 66.4348 9.83367 67.8674 8.84816C69.2617 7.88878 71.9699 6.67382 73.7507 6.20851C74.6494 5.97384 76.3007 5.75345 77.6285 5.69132C82.8376 5.4474 87.8923 7.42045 91.6065 11.1474C93.9485 13.4976 95.5735 16.3285 96.4953 19.6643L97.0332 21.6112L97.0875 59.9093L97.1418 98.2074L97.5749 98.6685C98.1277 99.2567 99.1896 99.2856 99.7478 98.7274C100.147 98.3281 100.15 98.0572 100.15 60.1412C100.15 26.906 100.111 21.7496 99.846 20.3545C98.2166 11.7653 91.5401 4.84495 83.1173 3.01487C80.9407 2.54212 77.8253 2.37341 75.8187 2.61974ZM13.5828 4.39211C12.696 4.95736 10.1157 7.65451 9.8943 8.24771C9.62464 8.96941 10.0859 9.99615 10.7549 10.1643C11.6673 10.3931 12.1523 10.0991 14.0413 8.17291C15.5536 6.63079 15.8953 6.1703 15.8953 5.67423C15.8953 4.40437 14.6482 3.71284 13.5828 4.39211ZM32.2837 4.39271C31.9519 4.59902 30.9791 5.49305 30.1221 6.37983C28.7694 7.77899 28.5637 8.08665 28.5637 8.71081C28.5637 9.59298 29.1926 10.2499 30.0374 10.2499C30.5174 10.2499 31.0101 9.87731 32.6135 8.30201C34.4225 6.52482 34.5962 6.28814 34.5962 5.60184C34.5962 5.02894 34.4701 4.75064 34.0664 4.43313C33.4134 3.91936 33.0581 3.91131 32.2837 4.39271ZM56.1147 34.5024C54.6955 35.7847 54.6161 37.679 55.9267 38.9896C57.8982 40.9611 61.1411 39.5714 61.1387 36.7562C61.1373 35.011 59.8276 33.7789 57.973 33.7777C57.043 33.7769 56.8226 33.863 56.1147 34.5024ZM45.9475 37.065C44.0786 37.9124 43.5005 40.2975 44.792 41.8324C46.2403 43.5537 48.7584 43.3683 49.83 41.4618C50.6563 39.9916 50.2766 38.4021 48.8459 37.3425C48.1689 36.841 46.7426 36.7045 45.9475 37.065ZM67.5131 37.2583C66.4202 37.9199 65.9683 38.7007 65.9669 39.9305C65.9653 41.1561 66.5183 42.095 67.571 42.6544C68.9918 43.4095 70.6255 42.9749 71.6707 41.5639C72.3198 40.6878 72.2454 39.0656 71.5118 38.104C70.4966 36.7729 68.8798 36.4308 67.5131 37.2583ZM3.47646 38.803C2.05901 39.6671 1.56072 41.7328 2.43022 43.1396C2.9834 44.0349 4.41292 44.7181 5.44328 44.58C7.80382 44.2633 9.00168 41.3699 7.50742 39.5941C6.47404 38.3661 4.74853 38.0272 3.47646 38.803ZM86.3107 38.7403C84.7616 39.5036 84.1696 41.6341 85.1189 43.0288C86.4696 45.0135 88.8239 45.1457 90.22 43.3152C90.6887 42.7007 90.7995 42.3534 90.7995 41.4988C90.7995 39.1803 88.4046 37.7085 86.3107 38.7403ZM4.15573 47.8506C3.83721 47.9512 3.3536 48.2416 3.08093 48.4959C1.96048 49.5426 2.0204 48.1084 2.0204 73.8886V97.7325L5.08695 97.677L8.1535 97.6215L8.20458 74.0088C8.25565 50.4704 8.25445 50.3936 7.8384 49.5343C7.16859 48.1505 5.55126 47.4111 4.15573 47.8506ZM86.9789 47.7962C86.7577 47.8498 86.2826 48.1155 85.923 48.3865C84.5786 49.3996 84.6664 47.6146 84.6664 73.8833V97.722H87.7833H90.9001V74.0366V50.3511L90.4476 49.4539C89.7903 48.1503 88.3515 47.4628 86.9789 47.7962ZM11.2703 57.1028V58.7115H46.3597H81.4491V57.1028V55.4941H46.3597H11.2703V57.1028ZM11.2703 73.4912V85.2547H14.3871H17.504V73.4912V61.7277H14.3871H11.2703V73.4912ZM20.7213 73.4912V85.2634L24.5922 85.2089L28.4631 85.1542V73.4912V61.8283L24.5922 61.7736L20.7213 61.7191V73.4912ZM31.5799 73.4912V85.2547H35.5011H39.4223V73.4912V61.7277H35.5011H31.5799V73.4912ZM42.4872 73.441L42.5391 85.1542L46.41 85.2089L50.2809 85.2634V73.4957V61.7277H46.3581H42.4353L42.4872 73.441ZM53.4982 73.4912V85.2547H57.3188H61.1395V73.4912V61.7277H57.3188H53.4982V73.4912ZM64.3568 73.4957V85.2634L68.2277 85.2089L72.0986 85.1542L72.1505 73.441L72.2024 61.7277H68.2796H64.3568V73.4957ZM75.2641 73.441L75.316 85.1542L78.3825 85.2097L81.4491 85.2652V73.4965V61.7277H78.3306H75.2122L75.2641 73.441ZM11.2703 91.3878V94.5046H46.3597H81.4491V91.3878V88.271H46.3597H11.2703V91.3878Z" fill="#8A1538"/>
</svg>
