<svg width="100" height="98" viewBox="0 0 100 98" fill="none" xmlns="http://www.w3.org/2000/svg">
<path fill-rule="evenodd" clip-rule="evenodd" d="M11.8736 0.296527C11.1444 0.824478 10.9122 1.70741 11.016 3.55626C11.1136 5.29644 11.6023 6.71349 12.2048 7.00417C12.3743 7.08593 13.2063 7.35298 14.0537 7.59744C14.901 7.8419 15.7365 8.08944 15.9103 8.14758C16.4097 8.31439 17.3405 7.31539 17.3405 6.61262C17.3405 6.27839 17.5166 5.43901 17.7318 4.74754L18.123 3.49032L17.3456 2.50693C15.7871 0.535235 13.0635 -0.565038 11.8736 0.296527ZM24.9303 0.594809C23.0473 1.79882 21.6245 3.70622 20.9751 5.89711L20.6612 6.95589L21.4146 7.09456C22.6744 7.32648 23.8495 7.94544 24.9066 8.93437L25.9126 9.87523L26.7797 8.93437C28.4983 7.0699 29.5754 3.74608 29.0631 1.88736C28.6949 0.551464 28.0542 0.0107767 26.8397 0.0107767C26.0961 0.0107767 25.6119 0.15889 24.9303 0.594809ZM8.50689 10.5486C6.55388 10.9895 5.03474 11.9211 4.46201 13.0286C3.78204 14.3435 4.71037 15.739 6.96638 16.7934C8.09007 17.3185 8.39863 17.3684 10.4587 17.3569C11.7015 17.3501 12.9636 17.2402 13.2636 17.1127C13.8082 16.8814 13.8086 16.8801 13.5002 15.9953C13.196 15.1229 13.2221 12.8369 13.5516 11.4788C13.673 10.9776 13.6153 10.9102 12.8934 10.7099C11.5848 10.3469 9.70597 10.2779 8.50689 10.5486ZM19.1203 10.534C17.5496 10.949 16.307 12.8965 16.6053 14.4748C16.9931 16.5264 19.1125 17.868 21.0487 17.2879C22.1596 16.9551 23.0037 16.1776 23.4105 15.1128C24.4335 12.434 21.9522 9.78566 19.1203 10.534ZM29.4505 11.117C29.099 11.5608 28.4028 12.2173 27.9034 12.5758C27.1626 13.1078 26.9956 13.3459 26.9956 13.8698C26.9956 14.3973 27.1756 14.649 28.0047 15.2813C28.5598 15.7047 29.2656 16.3809 29.5733 16.7844C30.1196 17.5005 30.1574 17.5145 31.1833 17.3808C33.3914 17.0932 35.7017 15.5872 35.9478 14.2747C36.2627 12.5963 33.9617 10.8541 30.8536 10.4174C30.1559 10.3194 30.0339 10.3802 29.4505 11.117ZM25.4561 18.3658C24.9477 19.1417 23.045 20.3307 21.8622 20.6117C20.5893 20.9141 20.5633 21.1327 21.5538 23.1997C22.5477 25.2733 24.4212 27.1478 25.9966 27.6444C27.4094 28.0897 28.1316 27.9003 28.8122 26.906C29.2463 26.2721 29.2857 26.0274 29.2122 24.4237C29.1415 22.8827 29.0306 22.4427 28.3833 21.1368C27.9714 20.3058 27.2247 19.2269 26.7195 18.7329L25.8029 17.8366L25.4561 18.3658ZM14.9781 20.0472C14.6391 20.2021 13.8326 20.4373 13.1857 20.5698L12.0096 20.8104L11.5665 21.9659C10.9408 23.5972 10.9102 26.0529 11.5057 26.8574C11.7409 27.1754 12.1984 27.5651 12.5222 27.7236C13.6962 28.2984 15.9372 27.2325 17.4588 25.3756L18.2193 24.4475L17.7793 22.9626C17.5373 22.1461 17.3395 21.2344 17.3399 20.9367C17.3403 20.5877 17.1608 20.2777 16.8341 20.0636C16.2339 19.6702 15.8103 19.6666 14.9781 20.0472ZM19.2407 28.4909L18.3676 29.4071V33.9165V38.4258H20.1138H21.8599V33.8464V29.267L20.9869 28.4211L20.1138 27.5749L19.2407 28.4909ZM48.0695 27.8952L47.2652 27.9778L49.8125 30.5312L52.3598 33.0847H69.314H86.268L88.7301 30.6138C90.7071 28.6294 91.1313 28.1043 90.8838 27.9463C90.5884 27.758 49.8797 27.7093 48.0695 27.8952ZM91.1406 32.9288L88.6241 35.4531V57.6393V79.8258L91.1625 82.3581L93.7008 84.8904L93.8331 84.2295C94.0042 83.3731 93.9634 34.5767 93.7894 32.2069L93.6571 30.4045L91.1406 32.9288ZM44.6624 57.5991C44.6624 72.438 44.7272 84.6435 44.8065 84.7228C44.8857 84.8019 46.0875 83.7326 47.477 82.3462L50.0036 79.8258V57.621V35.4163L47.5578 33.0179C46.2126 31.6989 45.0109 30.6196 44.8872 30.6196C44.7255 30.6196 44.6624 38.2001 44.6624 57.5991ZM53.4959 57.6334V78.6898H69.3138H85.1318V57.6334V36.577H69.3138H53.4959V57.6334ZM58.4876 41.5586C57.1788 42.8904 57.0062 43.268 57.262 44.2427C57.4319 44.8907 58.5568 45.4959 59.185 45.2773C59.389 45.2062 60.1339 44.5858 60.8399 43.8987C61.9464 42.8218 62.1238 42.5465 62.1238 41.9085C62.1238 40.9446 61.4422 40.2747 60.4613 40.2747C59.8598 40.2747 59.5541 40.4735 58.4876 41.5586ZM62.9967 45.6672C60.0129 48.6332 57.4345 51.3206 57.2669 51.6396C56.6364 52.8393 57.4162 54.0384 58.8273 54.0384C59.4968 54.0384 59.9516 53.6345 65.2525 48.3336C70.3997 43.1864 70.9573 42.5632 70.9573 41.9561C70.9573 41.0101 70.1824 40.2747 69.1852 40.2747C68.4615 40.2747 68.1402 40.5547 62.9967 45.6672ZM11.8874 42.4224C11.2013 43.1084 11.2013 44.2201 11.8874 44.9061L12.3915 45.4104H20.1138H27.836L28.3402 44.9061C28.6884 44.5581 28.8445 44.1735 28.8445 43.6643C28.8445 43.155 28.6884 42.7704 28.3402 42.4224L27.836 41.9181H20.1138H12.3915L11.8874 42.4224ZM14.8737 52.2409C14.871 58.3768 14.5103 59.3397 10.8523 62.9735C8.74292 65.0688 8.24332 65.6933 7.52966 67.1268C6.34784 69.5003 5.96677 71.3882 6.09331 74.2418C6.20794 76.8224 6.75006 78.7251 7.92758 80.6773C9.60511 83.4584 12.4967 85.792 15.5759 86.8496C17.0913 87.3701 17.4915 87.4196 20.1138 87.4114C22.6894 87.4032 23.1471 87.3457 24.4966 86.8609C31.173 84.4623 35.1939 77.7138 33.9631 70.9726C33.3976 67.8752 32.0637 65.6013 29.1239 62.7226C25.8146 59.482 25.3555 58.2059 25.3534 52.2409L25.3522 48.9027H20.1138H14.8754L14.8737 52.2409ZM49.8394 84.7086C48.453 86.0981 47.3838 87.2999 47.4628 87.3792C47.6599 87.576 91.0892 87.563 91.0892 87.366C91.0892 87.2795 89.9555 86.0778 88.5698 84.6954L86.0503 82.182H69.2052H52.3598L49.8394 84.7086ZM1.41058 91.5198C0.931518 91.9986 0.90625 92.1467 0.90625 94.4703C0.90625 96.8397 0.9233 96.9338 1.44776 97.4585L1.98947 98H50.0036H98.0177L98.5594 97.4585C99.0839 96.9338 99.1009 96.8397 99.1009 94.4703C99.1009 92.1467 99.0756 91.9986 98.5966 91.5198L98.0925 91.0154H50.0036H1.9147L1.41058 91.5198Z" fill="#8A1538"/>
</svg>
