<svg width="99" height="85" viewBox="0 0 99 85" fill="none" xmlns="http://www.w3.org/2000/svg">
<path fill-rule="evenodd" clip-rule="evenodd" d="M78.004 1.01808C77.0816 1.99213 76.9304 2.07079 74.5046 2.84196C72.514 3.47474 71.9017 3.75093 71.655 4.12743C71.4377 4.45913 71.3933 4.72078 71.5108 4.97668C71.7725 5.54649 79.0328 11.867 79.4258 11.867C80.2201 11.867 80.5288 11.2691 80.9821 8.85241C81.224 7.56293 81.4856 6.50772 81.5635 6.50772C81.6414 6.50772 82.6017 7.6058 83.6975 8.94811C85.4337 11.0748 85.6862 11.4746 85.6623 12.0584C85.6414 12.5637 85.0019 13.7229 83.0599 16.7756L80.4852 20.823L79.63 20.9198C78.3993 21.0594 77.7098 21.8646 77.7098 23.1629V24.1168H52.7317H27.7535V15.6359C27.7535 9.0953 27.698 7.07925 27.5112 6.82373C27.3052 6.54217 26.9952 6.50064 25.4536 6.54772L23.6383 6.60342L23.5886 15.3601L23.5388 24.1168H22.1052H20.6716V15.6359C20.6716 9.0953 20.6161 7.07925 20.4293 6.82373C20.2233 6.54217 19.9132 6.50064 18.3717 6.54772L16.5564 6.60342L16.5066 15.3601L16.4569 24.1168H15.0233H13.5896V15.542C13.5896 9.12784 13.5318 6.90928 13.36 6.7374C13.2147 6.59213 12.4841 6.50772 11.3707 6.50772C9.94284 6.50772 9.58932 6.56476 9.49495 6.81052C9.43102 6.97704 9.37877 10.9391 9.37877 15.6151V24.1168L5.88566 24.118C3.96435 24.1186 2.07501 24.2072 1.68703 24.3149C1.29906 24.4227 0.760829 24.7734 0.490759 25.0941C0.000765604 25.6766 0 25.6827 0 29.4134C0 32.5591 0.0505305 33.2349 0.319452 33.6903C0.982857 34.8132 -2.43848 34.7397 49.1459 34.7397H96.7026L97.4462 33.9016L98.19 33.0636V29.2283C98.19 27.1188 98.1374 25.4456 98.0731 25.5099C98.0087 25.5742 97.7448 25.3757 97.4866 25.0689C97.2282 24.7619 96.6995 24.4227 96.3116 24.3149C95.9236 24.2072 93.7864 24.1186 91.5625 24.118L87.5189 24.1168L87.4304 23.0517C87.3076 21.5696 86.7623 21.0398 85.1981 20.8831L84.0416 20.7673L86.1122 17.5155C87.8242 14.8271 88.3119 14.197 88.9278 13.8789C89.8592 13.3975 90.4355 12.3273 90.2619 11.4017C90.1151 10.6196 89.3087 9.77498 88.5672 9.62664C87.7953 9.47218 83.2688 3.98406 83.2638 3.19644C83.2588 2.37187 82.792 1.64798 81.7102 0.786669C80.8775 0.123647 80.5845 0 79.8451 0C79.0341 0 78.8956 0.0765614 78.004 1.01808ZM0.0807723 29.4761C0.0807723 31.6342 0.108717 32.517 0.142787 31.438C0.176857 30.3591 0.176857 28.5932 0.142787 27.5143C0.108717 26.4353 0.0807723 27.3181 0.0807723 29.4761ZM3.49043 43.8793L3.54096 50.052H20.3845H37.228L37.2785 43.8793L37.329 37.7065H20.3845H3.4399L3.49043 43.8793ZM40.1947 57.4211V77.1356H62.5889H84.9832V57.4211V37.7065H62.5889H40.1947V57.4211ZM87.8542 60.3939C87.8542 84.8375 87.8188 83.9603 88.8336 84.671C89.4714 85.1177 92.9362 85.1177 93.5739 84.671C94.5887 83.9603 94.5533 84.8375 94.5533 60.3939V37.7065H91.2038H87.8542V60.3939ZM18.7711 39.9559C15.6941 41.5248 16.5468 46.2657 19.9754 46.6521C22.2987 46.9141 24.0567 45.2022 23.8862 42.8445C23.748 40.9347 22.3211 39.6211 20.3845 39.6211C19.8512 39.6211 19.1369 39.7692 18.7711 39.9559ZM19.7737 42.8047C19.6154 43.2174 19.9555 43.7357 20.3845 43.7357C20.572 43.7357 20.8132 43.5967 20.9204 43.4268C21.2129 42.9632 20.9426 42.4916 20.3845 42.4916C20.1069 42.4916 19.8418 42.6275 19.7737 42.8047ZM3.44526 59.9093V66.7998H20.3845H37.3237V59.9093V53.0188H20.3845H3.44526V59.9093ZM19.2361 56.4956C18.2609 56.8599 17.6587 57.3893 17.2428 58.2485C16.1476 60.5107 17.3919 62.9486 19.884 63.4233C21.2695 63.6872 23.1001 62.6626 23.6669 61.3062C24.2887 59.8176 23.7017 57.7851 22.4013 56.9246C21.5765 56.3787 20.0889 56.1771 19.2361 56.4956ZM19.9136 59.4216C19.5151 59.9018 19.7519 60.3878 20.3845 60.3878C20.7799 60.3878 20.9736 60.2829 21.0197 60.0437C21.0957 59.649 20.739 59.1437 20.3845 59.1437C20.2524 59.1437 20.0405 59.2687 19.9136 59.4216ZM3.57293 69.7985C3.50268 69.8686 3.44526 72.8861 3.44526 76.5038C3.44526 83.5597 3.50096 84.024 4.42467 84.671C4.82777 84.9533 6.35115 84.9832 20.3845 84.9832C37.4288 84.9832 36.4061 85.0538 37.0377 83.8326C37.2756 83.3723 37.3237 82.1376 37.3237 76.4753V69.6709H20.5121C11.2656 69.6709 3.64298 69.7283 3.57293 69.7985ZM18.8532 73.4348C17.5498 74.1235 16.8435 75.2566 16.8435 76.659C16.8435 78.649 18.3941 80.1981 20.3864 80.1981C22.3755 80.1981 23.9254 78.6473 23.9254 76.6571C23.9254 75.7357 23.4446 74.5744 22.8452 74.0485C21.7808 73.1142 19.9831 72.8378 18.8532 73.4348ZM19.9002 76.2812C19.5526 76.7002 19.8884 77.2313 20.501 77.2313C20.8819 77.2313 20.9587 77.135 20.9587 76.6571C20.9587 76.2207 20.8628 76.0691 20.559 76.0259C20.3393 75.9945 20.0428 76.1093 19.9002 76.2812Z" fill="#8A1538"/>
</svg>
