<svg width="20" height="21" viewBox="0 0 20 21" fill="none" xmlns="http://www.w3.org/2000/svg">
<g clip-path="url(#clip0_663_15826)">
<path d="M16.1335 3.20325C15.2891 2.40325 14.3446 1.78103 13.3002 1.33659C12.2557 0.892143 11.1557 0.66992 10.0002 0.66992C8.84461 0.66992 7.7335 0.892143 6.66683 1.33659C5.60016 1.78103 4.66683 2.40325 3.86683 3.20325C3.06683 4.00325 2.44461 4.93659 2.00016 6.00325C1.55572 7.06992 1.3335 8.18103 1.3335 9.33659C1.3335 10.4921 1.55572 11.5921 2.00016 12.6366C2.44461 13.681 3.06683 14.6255 3.86683 15.4699L8.46683 20.0699C8.86683 20.4699 9.36683 20.6699 9.96683 20.6699C10.5668 20.6699 11.0891 20.4699 11.5335 20.0699L16.1335 15.4699C16.9335 14.6255 17.5557 13.681 18.0002 12.6366C18.4446 11.5921 18.6668 10.4921 18.6668 9.33659C18.6668 8.18103 18.4446 7.06992 18.0002 6.00325C17.5557 4.93659 16.9335 4.00325 16.1335 3.20325ZM15.2668 14.6033L10.6668 19.2033C10.4891 19.381 10.2668 19.4699 10.0002 19.4699C9.7335 19.4699 9.48905 19.381 9.26683 19.2033L4.66683 14.6033C3.95572 13.8921 3.42239 13.081 3.06683 12.1699C2.71127 11.2588 2.5335 10.3033 2.5335 9.30326C2.5335 8.30325 2.71127 7.3477 3.06683 6.43659C3.42239 5.52548 3.95572 4.72548 4.66683 4.03659C5.37794 3.3477 6.18905 2.81437 7.10016 2.43659C8.01127 2.05881 8.96683 1.86992 9.96683 1.86992C10.9668 1.86992 11.9224 2.05881 12.8335 2.43659C13.7446 2.81437 14.5557 3.33659 15.2668 4.00325C16.2446 4.98103 16.9002 6.11437 17.2335 7.40325C17.5668 8.69214 17.5668 9.98103 17.2335 11.2699C16.9002 12.5588 16.2446 13.6699 15.2668 14.6033ZM10.0002 6.20325C9.15572 6.20325 8.42239 6.51437 7.80016 7.13659C7.17794 7.75881 6.86683 8.49214 6.86683 9.33659C6.86683 10.181 7.17794 10.9033 7.80016 11.5033C8.42239 12.1033 9.15572 12.4033 10.0002 12.4033C10.8446 12.4033 11.5668 12.1033 12.1668 11.5033C12.7668 10.9033 13.0668 10.181 13.0668 9.33659C13.0668 8.49214 12.7668 7.75881 12.1668 7.13659C11.5668 6.51437 10.8446 6.20325 10.0002 6.20325ZM10.0002 11.2699C9.46683 11.2699 9.01127 11.081 8.6335 10.7033C8.25572 10.3255 8.06683 9.86992 8.06683 9.33659C8.06683 8.80325 8.25572 8.3477 8.6335 7.96992C9.01127 7.59214 9.46683 7.40325 10.0002 7.40325C10.5335 7.40325 10.9891 7.59214 11.3668 7.96992C11.7446 8.3477 11.9335 8.80325 11.9335 9.33659C11.9335 9.86992 11.7446 10.3255 11.3668 10.7033C10.9891 11.081 10.5335 11.2699 10.0002 11.2699Z" fill="#1A1A1A"/>
</g>
<defs>
<clipPath id="clip0_663_15826">
<rect width="20" height="20" fill="white" transform="matrix(1 0 0 -1 0 20.6699)"/>
</clipPath>
</defs>
</svg>
