<svg width="58" height="58" viewBox="0 0 58 58" fill="none" xmlns="http://www.w3.org/2000/svg">
<path fill-rule="evenodd" clip-rule="evenodd" d="M27.5979 47.7004C27.5979 47.7004 14 36.2483 14 24.9798C14 21.0069 15.5782 17.1967 18.3875 14.3875C21.1967 11.5782 25.0069 10 28.9798 10C32.9527 10 36.7628 11.5782 39.5721 14.3875C42.3814 17.1967 43.9596 21.0069 43.9596 24.9798C43.9596 36.2483 30.3617 47.7004 30.3617 47.7004C29.6052 48.3969 28.36 48.3895 27.5979 47.7004ZM28.9798 31.5334C29.8404 31.5334 30.6926 31.3639 31.4878 31.0346C32.2829 30.7052 33.0054 30.2225 33.6139 29.6139C34.2225 29.0054 34.7052 28.2829 35.0346 27.4878C35.3639 26.6926 35.5334 25.8404 35.5334 24.9798C35.5334 24.1192 35.3639 23.2669 35.0346 22.4718C34.7052 21.6767 34.2225 20.9542 33.6139 20.3457C33.0054 19.7371 32.2829 19.2544 31.4878 18.925C30.6926 18.5956 29.8404 18.4261 28.9798 18.4261C27.2417 18.4261 25.5747 19.1166 24.3457 20.3457C23.1166 21.5747 22.4261 23.2417 22.4261 24.9798C22.4261 26.7179 23.1166 28.3849 24.3457 29.6139C25.5747 30.843 27.2417 31.5334 28.9798 31.5334Z" fill="#8A1538"/>
</svg>
