<svg width="134" height="30" viewBox="0 0 134 30" fill="none" xmlns="http://www.w3.org/2000/svg">
<g clip-path="url(#clip0_420_8972)">
<path d="M5.55895 4.16797H1.15044C0.79121 4.16797 0.5 4.45946 0.5 4.81903V28.3294C0.5 28.689 0.79121 28.9805 1.15044 28.9805H5.55895C5.91818 28.9805 6.20939 28.689 6.20939 28.3294V4.81903C6.20939 4.45946 5.91818 4.16797 5.55895 4.16797Z" fill="white"/>
<path d="M6.20937 14.7154L8.34477 12.7636H14.3664C15.5337 12.7636 16.6791 13.1335 17.5941 13.8583C18.5268 14.5953 19.4867 15.7773 19.7813 17.609C19.8372 17.9598 19.8576 18.3147 19.8576 18.6695V28.3289C19.8576 28.6879 19.5672 28.98 19.2072 28.98H15.1682C14.8096 28.98 14.5178 28.6892 14.5178 28.3289V19.5485C14.5178 18.8565 13.9573 18.2955 13.266 18.2955H6.20801V14.7154H6.20937Z" fill="white"/>
<path d="M16.7703 10.3482C18.4753 10.3482 19.8575 8.96473 19.8575 7.2581C19.8575 5.55147 18.4753 4.16797 16.7703 4.16797C15.0653 4.16797 13.6831 5.55147 13.6831 7.2581C13.6831 8.96473 15.0653 10.3482 16.7703 10.3482Z" fill="white"/>
<path d="M21.7899 15.459H24.5266C24.8253 15.459 25.0707 15.6951 25.0803 15.994C25.1416 17.9991 25.9271 24.9682 33.8537 25.147C41.7803 25.3258 43.2584 17.9445 43.4888 15.9503C43.5216 15.6705 43.7575 15.459 44.0384 15.459H46.8747C47.1869 15.459 47.4378 15.717 47.4283 16.0295C47.3601 18.1901 46.5924 25.8882 39.1908 28.6371C35.8991 29.86 32.2473 29.7754 28.9992 28.4405C25.3871 26.9569 21.1272 23.5965 21.2349 16.0063C21.239 15.7033 21.4872 15.459 21.7899 15.459Z" fill="#16B68A"/>
<path d="M21.6482 13.6471H24.5526C25.0244 13.6471 25.4785 13.4656 25.8208 13.138L34.331 5.00455L42.3026 12.648C42.6448 12.9756 43.0989 13.1585 43.5735 13.1585H46.5952C46.8297 13.1585 46.9879 12.9196 46.8952 12.7039C46.4616 11.6926 45.3257 9.27668 44.0194 8.34992C42.7635 7.45864 37.9213 3.10325 35.5937 0.994478C34.8723 0.342057 33.7774 0.333867 33.0478 0.978099L23.2681 9.60426C23.2681 9.60426 21.8186 11.5588 21.3332 13.2281C21.2718 13.4369 21.43 13.6457 21.6482 13.6457V13.6471Z" fill="#16B68A"/>
<path d="M33.4529 12.7636H31.2139C31.0181 12.7636 30.8594 12.9225 30.8594 13.1185V15.3596C30.8594 15.5556 31.0181 15.7145 31.2139 15.7145H33.4529C33.6487 15.7145 33.8075 15.5556 33.8075 15.3596V13.1185C33.8075 12.9225 33.6487 12.7636 33.4529 12.7636Z" fill="white"/>
<path d="M37.3172 12.7295H35.0782C34.8824 12.7295 34.7236 12.8884 34.7236 13.0844V15.3255C34.7236 15.5215 34.8824 15.6804 35.0782 15.6804H37.3172C37.513 15.6804 37.6717 15.5215 37.6717 15.3255V13.0844C37.6717 12.8884 37.513 12.7295 37.3172 12.7295Z" fill="white"/>
<path d="M33.3094 16.7014H31.0704C30.8746 16.7014 30.7158 16.8602 30.7158 17.0562V19.2974C30.7158 19.4934 30.8746 19.6523 31.0704 19.6523H33.3094C33.5052 19.6523 33.6639 19.4934 33.6639 19.2974V17.0562C33.6639 16.8602 33.5052 16.7014 33.3094 16.7014Z" fill="white"/>
<path d="M37.1741 16.6672H34.9351C34.7393 16.6672 34.5806 16.8261 34.5806 17.0221V19.2633C34.5806 19.4593 34.7393 19.6181 34.9351 19.6181H37.1741C37.3699 19.6181 37.5287 19.4593 37.5287 19.2633V17.0221C37.5287 16.8261 37.3699 16.6672 37.1741 16.6672Z" fill="white"/>
<path d="M49.3347 28.98H53.8837C54.1659 28.98 54.3936 28.7507 54.3936 28.4695V16.7027L58.3167 28.6292C58.3863 28.8394 58.5813 28.98 58.8022 28.98H61.8389C62.0516 28.98 62.2425 28.8476 62.3175 28.6483L66.7888 16.7014V28.4681C66.7888 28.7507 67.0178 28.9786 67.2987 28.9786H71.7086C71.9909 28.9786 72.2186 28.7493 72.2186 28.4681V4.67933C72.2186 4.39679 71.9895 4.16885 71.7086 4.16885H65.8956C65.6788 4.16885 65.4865 4.30534 65.4143 4.50871L60.5217 18.3174L55.9031 4.51827C55.8336 4.30944 55.6386 4.16885 55.4191 4.16885H49.3347C49.0524 4.16885 48.8247 4.39816 48.8247 4.67933V28.4695C48.8247 28.752 49.0538 28.98 49.3347 28.98Z" fill="white"/>
<path d="M74.0852 4.16747H78.8196C79.1223 4.16747 79.3896 4.36402 79.4796 4.65338L83.9235 18.9425L88.7098 4.63836C88.8039 4.35583 89.0684 4.16611 89.3657 4.16611H94.1001C94.5732 4.16611 94.9073 4.63154 94.7546 5.08059L86.7994 28.5091C86.7039 28.7902 86.4407 28.9786 86.1448 28.9786H81.7786C81.48 28.9786 81.2154 28.7861 81.1213 28.5022L73.4293 5.07376C73.282 4.62608 73.6147 4.16611 74.0865 4.16611L74.0852 4.16747Z" fill="white"/>
<path d="M100.663 9.047H96.2765C95.8344 9.047 95.4761 9.4057 95.4761 9.84819V28.1788C95.4761 28.6213 95.8344 28.98 96.2765 28.98H100.663C101.105 28.98 101.464 28.6213 101.464 28.1788V9.84819C101.464 9.4057 101.105 9.047 100.663 9.047Z" fill="white"/>
<path d="M98.4704 7.82712C100.306 7.82712 101.795 6.33729 101.795 4.4995C101.795 2.6617 100.306 1.17188 98.4704 1.17188C96.6344 1.17188 95.146 2.6617 95.146 4.4995C95.146 6.33729 96.6344 7.82712 98.4704 7.82712Z" fill="white"/>
<path d="M102.996 4.86543V28.283C102.996 28.6679 103.308 28.9805 103.693 28.9805H116.783C117.168 28.9805 117.48 28.6679 117.48 28.283V24.1706C117.48 23.7857 117.168 23.4731 116.783 23.4731H108.707V4.86543C108.707 4.48053 108.395 4.16797 108.01 4.16797H103.693C103.308 4.16797 102.996 4.48053 102.996 4.86543Z" fill="white"/>
<path d="M119.017 4.95821V28.3758C119.017 28.7607 119.329 29.0732 119.714 29.0732H132.804C133.189 29.0732 133.501 28.7607 133.501 28.3758V24.2633C133.501 23.8784 133.189 23.5659 132.804 23.5659H124.728V4.95821C124.728 4.5733 124.416 4.26074 124.031 4.26074H119.714C119.329 4.26074 119.017 4.5733 119.017 4.95821Z" fill="white"/>
</g>
<defs>
<clipPath id="clip0_420_8972">
<rect width="133" height="29" fill="white" transform="translate(0.5 0.5)"/>
</clipPath>
</defs>
</svg>
