<svg width="133" height="29" viewBox="0 0 133 29" fill="none" xmlns="http://www.w3.org/2000/svg">
<g clip-path="url(#clip0_149_5248)">
<path d="M5.05895 3.66748H0.650437C0.29121 3.66748 0 3.95897 0 4.31854V27.8289C0 28.1885 0.29121 28.48 0.650437 28.48H5.05895C5.41818 28.48 5.70939 28.1885 5.70939 27.8289V4.31854C5.70939 3.95897 5.41818 3.66748 5.05895 3.66748Z" fill="#8A1538"/>
<path d="M5.70937 14.2154L7.84477 12.2636H13.8664C15.0337 12.2636 16.1791 12.6335 17.0941 13.3583C18.0268 14.0953 18.9867 15.2773 19.2813 17.109C19.3372 17.4598 19.3576 17.8147 19.3576 18.1695V27.8289C19.3576 28.1879 19.0672 28.48 18.7072 28.48H14.6682C14.3096 28.48 14.0178 28.1892 14.0178 27.8289V19.0485C14.0178 18.3565 13.4573 17.7955 12.766 17.7955H5.70801V14.2154H5.70937Z" fill="#8A1538"/>
<path d="M16.2703 9.84774C17.9753 9.84774 19.3575 8.46424 19.3575 6.75761C19.3575 5.05098 17.9753 3.66748 16.2703 3.66748C14.5653 3.66748 13.1831 5.05098 13.1831 6.75761C13.1831 8.46424 14.5653 9.84774 16.2703 9.84774Z" fill="#8A1538"/>
<path d="M21.2899 14.9593H24.0266C24.3253 14.9593 24.5707 15.1954 24.5803 15.4943C24.6416 17.4994 25.4271 24.4685 33.3537 24.6473C41.2803 24.8261 42.7584 17.4448 42.9888 15.4507C43.0216 15.1708 43.2575 14.9593 43.5384 14.9593H46.3747C46.6869 14.9593 46.9378 15.2173 46.9283 15.5298C46.8601 17.6905 46.0924 25.3885 38.6908 28.1374C35.3991 29.3603 31.7473 29.2757 28.4992 27.9408C24.8871 26.4572 20.6272 23.0968 20.7349 15.5066C20.739 15.2036 20.9872 14.9593 21.2899 14.9593Z" fill="#16B68A"/>
<path d="M21.1482 13.1467H24.0526C24.5244 13.1467 24.9785 12.9652 25.3208 12.6376L33.831 4.50415L41.8026 12.1476C42.1448 12.4752 42.5989 12.6581 43.0735 12.6581H46.0952C46.3297 12.6581 46.4879 12.4192 46.3952 12.2035C45.9616 11.1922 44.8257 8.77629 43.5194 7.84952C42.2635 6.95824 37.4213 2.60285 35.0937 0.494081C34.3723 -0.15834 33.2774 -0.166529 32.5478 0.477703L22.7681 9.10386C22.7681 9.10386 21.3186 11.0584 20.8332 12.7277C20.7718 12.9365 20.93 13.1453 21.1482 13.1453V13.1467Z" fill="#16B68A"/>
<path d="M32.9529 12.2636H30.7139C30.5181 12.2636 30.3594 12.4225 30.3594 12.6185V14.8596C30.3594 15.0556 30.5181 15.2145 30.7139 15.2145H32.9529C33.1487 15.2145 33.3075 15.0556 33.3075 14.8596V12.6185C33.3075 12.4225 33.1487 12.2636 32.9529 12.2636Z" fill="#8A1538"/>
<path d="M36.8172 12.2295H34.5782C34.3824 12.2295 34.2236 12.3884 34.2236 12.5844V14.8255C34.2236 15.0215 34.3824 15.1804 34.5782 15.1804H36.8172C37.013 15.1804 37.1717 15.0215 37.1717 14.8255V12.5844C37.1717 12.3884 37.013 12.2295 36.8172 12.2295Z" fill="#8A1538"/>
<path d="M32.8094 16.2014H30.5704C30.3746 16.2014 30.2158 16.3602 30.2158 16.5562V18.7974C30.2158 18.9934 30.3746 19.1523 30.5704 19.1523H32.8094C33.0052 19.1523 33.1639 18.9934 33.1639 18.7974V16.5562C33.1639 16.3602 33.0052 16.2014 32.8094 16.2014Z" fill="#8A1538"/>
<path d="M36.6741 16.1672H34.4351C34.2393 16.1672 34.0806 16.3261 34.0806 16.5221V18.7633C34.0806 18.9593 34.2393 19.1181 34.4351 19.1181H36.6741C36.8699 19.1181 37.0287 18.9593 37.0287 18.7633V16.5221C37.0287 16.3261 36.8699 16.1672 36.6741 16.1672Z" fill="#8A1538"/>
<path d="M48.8347 28.48H53.3837C53.6659 28.48 53.8936 28.2507 53.8936 27.9695V16.2027L57.8167 28.1292C57.8863 28.3394 58.0813 28.48 58.3022 28.48H61.3389C61.5516 28.48 61.7425 28.3476 61.8175 28.1483L66.2888 16.2014V27.9681C66.2888 28.2507 66.5178 28.4786 66.7987 28.4786H71.2086C71.4909 28.4786 71.7186 28.2493 71.7186 27.9681V4.17933C71.7186 3.89679 71.4895 3.66885 71.2086 3.66885H65.3956C65.1788 3.66885 64.9865 3.80534 64.9143 4.00871L60.0217 17.8174L55.4031 4.01827C55.3336 3.80944 55.1386 3.66885 54.9191 3.66885H48.8347C48.5524 3.66885 48.3247 3.89816 48.3247 4.17933V27.9695C48.3247 28.252 48.5538 28.48 48.8347 28.48Z" fill="#8A1538"/>
<path d="M73.5852 3.66747H78.3196C78.6223 3.66747 78.8896 3.86402 78.9796 4.15338L83.4235 18.4425L88.2098 4.13836C88.3039 3.85583 88.5684 3.66611 88.8657 3.66611H93.6001C94.0732 3.66611 94.4073 4.13154 94.2546 4.58059L86.2994 28.0091C86.2039 28.2902 85.9407 28.4786 85.6448 28.4786H81.2786C80.98 28.4786 80.7154 28.2861 80.6213 28.0022L72.9293 4.57376C72.782 4.12608 73.1147 3.66611 73.5865 3.66611L73.5852 3.66747Z" fill="#8A1538"/>
<path d="M100.163 8.547H95.7765C95.3344 8.547 94.9761 8.9057 94.9761 9.34819V27.6788C94.9761 28.1213 95.3344 28.48 95.7765 28.48H100.163C100.605 28.48 100.964 28.1213 100.964 27.6788V9.34819C100.964 8.9057 100.605 8.547 100.163 8.547Z" fill="#8A1538"/>
<path d="M97.9704 7.32678C99.8065 7.32678 101.295 5.83696 101.295 3.99916C101.295 2.16137 99.8065 0.671539 97.9704 0.671539C96.1344 0.671539 94.646 2.16137 94.646 3.99916C94.646 5.83696 96.1344 7.32678 97.9704 7.32678Z" fill="#8A1538"/>
<path d="M102.496 4.36494V27.7825C102.496 28.1674 102.808 28.48 103.193 28.48H116.283C116.668 28.48 116.98 28.1674 116.98 27.7825V23.6701C116.98 23.2852 116.668 22.9726 116.283 22.9726H108.207V4.36494C108.207 3.98004 107.895 3.66748 107.51 3.66748H103.193C102.808 3.66748 102.496 3.98004 102.496 4.36494Z" fill="#8A1538"/>
<path d="M118.517 4.45775V27.8753C118.517 28.2602 118.829 28.5728 119.214 28.5728H132.304C132.689 28.5728 133.001 28.2602 133.001 27.8753V23.7629C133.001 23.378 132.689 23.0654 132.304 23.0654H124.228V4.45775C124.228 4.07285 123.916 3.76028 123.531 3.76028H119.214C118.829 3.76028 118.517 4.07285 118.517 4.45775Z" fill="#8A1538"/>
</g>
<defs>
<clipPath id="clip0_149_5248">
<rect width="133" height="29" fill="white"/>
</clipPath>
</defs>
</svg>
