<svg width="28" height="24" viewBox="0 0 28 24" fill="none" xmlns="http://www.w3.org/2000/svg">
<path d="M4.82617 1.0918C7.30999 -0.0433854 10.5724 0.310168 13.5811 3.43652L13.9414 3.81055L14.3018 3.43652C17.3105 0.310178 20.5728 -0.0430726 23.0566 1.09277C25.5721 2.2431 27.3818 4.95816 27.3818 8.16016C27.3818 11.3931 26.0522 13.8779 24.1943 15.9697C22.788 17.5532 21.1025 18.889 19.4697 20.1494L17.8672 21.3906H17.8662C17.1384 21.9656 16.4555 22.498 15.7871 22.8887C15.1185 23.2794 14.5115 23.4999 13.9414 23.5C13.3714 23.5 12.7645 23.2795 12.0957 22.8887C11.427 22.4978 10.7438 21.9655 10.0156 21.3916H10.0146C7.93434 19.7512 5.56348 18.0799 3.68848 15.9688C1.83057 13.8768 0.5 11.3918 0.5 8.1582C0.500178 4.95567 2.3109 2.24152 4.82617 1.0918Z" fill="#FF0000" stroke="white"/>
</svg>
