<svg width="49" height="49" viewBox="0 0 49 49" fill="none" xmlns="http://www.w3.org/2000/svg">
<path fill-rule="evenodd" clip-rule="evenodd" d="M12.4609 9.824C6.11867 15.0786 0.826643 19.4927 0.700966 19.633C0.291324 20.0901 0.386216 20.4512 1.14779 21.3333C1.82769 22.1206 2.10068 22.2858 2.53958 22.1757C2.67075 22.1427 7.551 18.1602 13.3846 13.3256C23.0487 5.31661 24.0234 4.53542 24.3519 4.53542C24.6805 4.53542 25.6569 5.31884 35.3689 13.3744C44.6916 21.1073 46.0667 22.2134 46.3567 22.2134C46.7305 22.2134 46.9441 22.0463 47.7083 21.1562C48.302 20.4647 48.3783 20.0596 47.9948 19.6349C47.869 19.4956 42.5813 15.0812 36.2444 9.82501C25.6629 1.04828 24.6927 0.268414 24.3574 0.269227C24.0232 0.270039 23.0185 1.07703 12.4609 9.824ZM39.3835 5.43497L39.0795 5.73895L39.0846 7.85493L39.0896 9.97091L41.1858 11.6981C42.3386 12.648 43.3209 13.441 43.3685 13.4603C43.4163 13.4795 43.4423 11.732 43.4263 9.57691L43.3975 5.65848L43.1663 5.42715C42.9482 5.20891 42.8434 5.19398 41.3114 5.1634L39.6875 5.13099L39.3835 5.43497ZM14.7203 14.4555L5.24513 22.3285L5.27175 35.1827L5.29827 48.0369L5.58335 48.2821L5.86844 48.5273H24.3479H42.8273L43.1124 48.2821L43.3975 48.0369V35.1582V22.2796L33.9489 14.4293C28.7521 10.1117 24.4317 6.57998 24.3479 6.58089C24.264 6.58181 19.9316 10.1254 14.7203 14.4555ZM23.1555 12.3385C22.4857 12.6067 21.8338 13.1234 21.4974 13.6529C20.7754 14.7892 20.7206 15.9599 21.3337 17.1547L21.6875 17.8444L19.2503 21.3031C17.4017 23.9265 16.7721 24.7497 16.6436 24.7116C16.1295 24.5594 11.6646 23.839 11.235 23.839C10.318 23.839 9.52921 24.3109 9.08655 25.1242C8.85704 25.5459 8.65201 26.5445 7.73296 31.715C7.13719 35.0665 6.64942 38.0655 6.64901 38.3793C6.64861 38.7267 6.72582 39.1241 6.84652 39.3953C7.09604 39.9559 7.85 40.6557 8.36165 40.8017C9.11489 41.0165 37.0015 45.8854 37.454 45.8812C38.3767 45.8724 39.1779 45.3937 39.6138 44.5908C39.833 44.1868 40.0538 43.1015 40.9619 37.9611C41.5591 34.5804 42.0467 31.5781 42.0453 31.2893C42.0406 30.3307 41.4266 29.3936 40.5538 29.0132C40.3297 28.9156 38.763 28.5936 37.0723 28.2979L33.9982 27.7602L30.4974 22.7949L26.9964 17.8295L27.2367 17.4489C28.4128 15.5859 27.6129 13.1143 25.5886 12.3564C24.911 12.1027 23.7657 12.0943 23.1555 12.3385ZM23.473 14.076C22.5272 14.6526 22.3434 15.9008 23.0835 16.7199C23.7509 17.4587 24.7374 17.4989 25.5118 16.8191C26.3717 16.064 26.1823 14.5631 25.1604 14.0347C24.7408 13.8177 23.8611 13.8392 23.473 14.076ZM20.9144 21.9311C19.0756 24.5439 18.7783 25.0164 18.9332 25.0784C19.1689 25.1727 31.4649 27.3236 31.5046 27.2775C31.5212 27.2583 30.2034 25.3559 28.5763 23.0499L25.6178 18.8574L25.2114 18.9342C24.6923 19.0323 24.0022 19.0322 23.4843 18.9339L23.0779 18.8567L20.9144 21.9311ZM10.8233 25.6685C10.7328 25.7213 10.6083 25.8914 10.5464 26.0463C10.4159 26.374 8.38217 37.8491 8.36683 38.345C8.35982 38.5737 8.43571 38.7571 8.60924 38.9307C8.84596 39.1675 9.63873 39.3202 21.253 41.366C37.9081 44.2998 37.3597 44.2078 37.6855 44.1241C37.8673 44.0775 38.0209 43.935 38.1169 43.7241C38.2676 43.393 40.3098 31.9959 40.3289 31.3798C40.3359 31.1511 40.26 30.9676 40.0869 30.7944C39.8502 30.5578 38.9629 30.3884 25.7264 28.0542C17.9669 26.6858 11.4763 25.5676 11.303 25.5692C11.1296 25.571 10.9138 25.6156 10.8233 25.6685ZM12.0801 28.567C11.9576 28.6528 11.8094 28.8929 11.7509 29.1004C11.5906 29.6688 10.5306 35.7813 10.5306 36.1368C10.5306 36.8279 11.3651 37.1811 11.9 36.7165C12.127 36.5194 12.197 36.3008 12.4088 35.1297C12.5439 34.3825 12.672 33.7538 12.6935 33.7323C12.7485 33.6772 13.634 33.806 13.7675 33.8884C13.8283 33.9259 14.0922 34.6779 14.3539 35.5592C14.8958 37.3841 15.0541 37.6563 15.5737 37.6563C16.0428 37.6563 16.2674 37.5246 16.4178 37.1614C16.5273 36.8973 16.4928 36.6997 16.127 35.488C15.8988 34.7323 15.712 34.0537 15.712 33.9797C15.712 33.9057 15.8405 33.7884 15.9975 33.7189C16.3925 33.5439 16.9058 33.0217 17.165 32.531C17.4684 31.9564 17.4687 30.8588 17.1657 30.2905C16.9143 29.8189 16.4069 29.3149 15.954 29.0869C15.6437 28.9308 13.0218 28.4109 12.5445 28.4109C12.4116 28.4109 12.2027 28.4811 12.0801 28.567ZM19.7248 29.9603C19.4753 30.1748 19.4188 30.4142 18.8113 33.8318C18.3843 36.2335 18.1919 37.5488 18.2469 37.6925C18.4175 38.1384 18.6845 38.2445 20.4364 38.5622C22.7551 38.9828 22.917 38.9768 23.1832 38.4618C23.3902 38.0617 23.3693 37.812 23.1033 37.5081C22.9065 37.2832 22.6873 37.214 21.5264 37.0092C20.7847 36.8785 20.1547 36.7481 20.1262 36.7196C20.0631 36.6566 20.2875 35.1941 20.3745 35.1009C20.4085 35.0646 21.0291 35.143 21.7535 35.2753C22.4779 35.4076 23.1758 35.4893 23.3045 35.457C23.5823 35.3872 23.9415 34.9611 23.9415 34.701C23.9415 34.4259 23.7485 34.0541 23.5373 33.9222C23.4347 33.8581 22.7636 33.7048 22.046 33.5815C21.3283 33.4582 20.724 33.3435 20.7029 33.3266C20.682 33.3098 20.7245 32.9284 20.7975 32.479C20.9011 31.8411 20.9669 31.662 21.0978 31.662C21.19 31.662 21.7647 31.7528 22.3749 31.8637C23.8246 32.1273 23.9027 32.1229 24.266 31.7596C24.5256 31.4999 24.5645 31.3988 24.5097 31.1249C24.3895 30.5243 24.2096 30.4427 22.198 30.0776C21.1731 29.8916 20.2573 29.7377 20.1626 29.7355C20.068 29.7334 19.8709 29.8346 19.7248 29.9603ZM13.2737 30.2707C13.2737 30.2997 13.2057 30.6786 13.1227 31.1126C13.0396 31.5467 12.9911 31.9212 13.0147 31.945C13.0879 32.018 14.5258 32.2715 14.8485 32.2683C15.193 32.2647 15.4211 32.1202 15.5939 31.7957C15.7818 31.4427 15.7331 31.1594 15.4327 30.8593C15.2099 30.6369 14.9895 30.5538 14.347 30.4503C13.9036 30.3789 13.4807 30.2974 13.4072 30.2691C13.3337 30.241 13.2737 30.2417 13.2737 30.2707ZM26.539 31.1795C26.3 31.3908 26.2344 31.6693 25.6698 34.8722C25.3339 36.7775 25.059 38.4954 25.059 38.6898C25.059 39.1553 25.4019 39.4851 25.8861 39.4851C26.5147 39.4851 26.6539 39.22 26.9576 37.4437C27.1048 36.5827 27.2542 35.8444 27.2894 35.803C27.3247 35.7615 27.6031 36.5845 27.9081 37.6317C28.3353 39.0989 28.5249 39.6 28.7341 39.8153C29.1282 40.2207 29.7815 40.1662 30.0272 39.7074C30.1277 39.5195 31.3581 32.6474 31.3581 32.274C31.3581 31.9496 30.9137 31.5604 30.5433 31.5604C29.827 31.5604 29.741 31.7283 29.3712 33.8464C29.2248 34.6846 29.0944 35.3812 29.0814 35.3944C29.0684 35.4078 28.7883 34.5162 28.459 33.4133C27.8154 31.2578 27.6461 30.9509 27.1013 30.9509C26.9306 30.9509 26.6843 31.051 26.539 31.1795ZM32.8079 32.0395C32.4343 32.1096 32.1432 32.5686 32.2094 32.9828C32.2912 33.4937 32.5547 33.6529 33.6437 33.8489C34.1747 33.9445 34.6089 34.0517 34.6085 34.087C34.6082 34.1223 34.3799 35.4313 34.1013 36.9959C33.8226 38.5605 33.5943 39.9913 33.594 40.1754C33.5926 40.8913 34.4159 41.2552 34.9629 40.7805C35.2075 40.5683 35.2651 40.331 35.7662 37.4768C36.0631 35.7855 36.3249 34.3828 36.3479 34.3599C36.371 34.3368 36.732 34.3832 37.1504 34.4631C38.2112 34.6654 38.4984 34.6503 38.7419 34.3798C38.8551 34.254 38.9769 34.0686 39.0126 33.9677C39.1169 33.673 38.833 33.1323 38.5079 33.0065C38.3473 32.9443 37.1187 32.7045 35.7776 32.4736C34.4365 32.2427 33.2707 32.0409 33.1869 32.0254C33.1031 32.0098 32.9325 32.0161 32.8079 32.0395Z" fill="#8A1538"/>
</svg>
