<svg width="58" height="58" viewBox="0 0 58 58" fill="none" xmlns="http://www.w3.org/2000/svg">
<path d="M25.9986 9C29.1905 8.99979 32.318 9.89821 35.0232 11.5925C37.7283 13.2867 39.9019 15.7083 41.295 18.5802C42.6881 21.452 43.2446 24.6581 42.9008 27.8315C42.5569 31.0048 41.3265 34.0172 39.3506 36.524L46.6546 43.828C47.0189 44.2052 47.2205 44.7104 47.2159 45.2348C47.2113 45.7592 47.001 46.2608 46.6302 46.6316C46.2594 47.0025 45.7578 47.2128 45.2334 47.2173C44.709 47.2219 44.2038 47.0203 43.8266 46.656L36.5226 39.352C34.3934 41.0299 31.8939 42.1744 29.2326 42.6898C26.5712 43.2053 23.8252 43.0768 21.2236 42.3152C18.622 41.5536 16.2402 40.1808 14.277 38.3115C12.3138 36.4421 10.8262 34.1304 9.93811 31.5692C9.05005 29.0079 8.78737 26.2715 9.17197 23.5881C9.55657 20.9047 10.5773 18.3522 12.149 16.1435C13.7207 13.9348 15.7979 12.134 18.2071 10.8914C20.6163 9.64873 23.2877 9.00023 25.9986 9ZM25.9986 13C22.5507 13 19.2441 14.3696 16.8062 16.8076C14.3682 19.2456 12.9986 22.5522 12.9986 26C12.9986 29.4478 14.3682 32.7544 16.8062 35.1924C19.2441 37.6304 22.5507 39 25.9986 39C29.4464 39 32.753 37.6304 35.1909 35.1924C37.6289 32.7544 38.9986 29.4478 38.9986 26C38.9986 22.5522 37.6289 19.2456 35.1909 16.8076C32.753 14.3696 29.4464 13 25.9986 13ZM25.9986 15C28.9159 15 31.7138 16.1589 33.7767 18.2218C35.8396 20.2847 36.9986 23.0826 36.9986 26C36.9986 28.9174 35.8396 31.7153 33.7767 33.7782C31.7138 35.8411 28.9159 37 25.9986 37C23.0812 37 20.2833 35.8411 18.2204 33.7782C16.1575 31.7153 14.9986 28.9174 14.9986 26C14.9986 23.0826 16.1575 20.2847 18.2204 18.2218C20.2833 16.1589 23.0812 15 25.9986 15Z" fill="#8A1538"/>
</svg>
