<svg width="49" height="49" viewBox="0 0 49 49" fill="none" xmlns="http://www.w3.org/2000/svg">
<path fill-rule="evenodd" clip-rule="evenodd" d="M19.2433 3.76212C16.3959 5.29885 13.9818 6.6405 13.8786 6.74359C13.7092 6.91284 13.6881 7.07518 13.6612 8.42139C13.6449 9.24112 13.6587 9.91185 13.6919 9.91185C13.7251 9.91185 16.1887 8.60286 19.1665 7.00296C24.229 4.28301 24.5981 4.10061 24.8484 4.19512C24.9956 4.25073 27.4658 5.55972 30.3376 7.10401C33.2096 8.6483 35.5854 9.91185 35.6175 9.91185C35.6496 9.91185 35.6624 9.24093 35.6461 8.42093C35.6172 6.9704 35.61 6.92394 35.3831 6.70721C35.0448 6.38402 24.8848 0.953905 24.6327 0.961556C24.5159 0.965008 22.0907 2.22529 19.2433 3.76212ZM20.082 8.07703L15.557 10.5218L15.5326 14.3687L15.5083 18.2155H18.3005H21.0929L21.1239 16.6061C21.154 15.0441 21.1631 14.9802 21.4292 14.4381C21.7785 13.7266 22.4039 13.1012 23.1154 12.7519C23.6259 12.5013 23.7585 12.4776 24.6537 12.4776C25.5479 12.4776 25.6819 12.5014 26.191 12.751C26.9021 13.0995 27.5311 13.7288 27.8782 14.4389C28.1422 14.9789 28.1519 15.0477 28.1827 16.6061L28.2144 18.2155H31.0068H33.799L33.7747 14.3669L33.7503 10.5183L29.2253 8.07348C26.7366 6.72885 24.6793 5.62941 24.6537 5.63044C24.628 5.63137 22.5708 6.7324 20.082 8.07703ZM24.1952 13.8421C23.3348 14.0032 22.6826 14.6813 22.5094 15.5947C22.4572 15.8699 22.4145 16.5722 22.4145 17.1552V18.2155H24.6652H26.916L26.8732 16.8393C26.8241 15.2635 26.7384 14.9756 26.1486 14.4032C25.6173 13.8874 24.9602 13.6988 24.1952 13.8421ZM6.95982 19.5912C6.84973 19.61 6.69709 19.6965 6.62068 19.7835C6.41701 20.015 0.769043 33.3936 0.769043 33.6445C0.769043 33.7615 0.863462 33.945 0.978966 34.0522C1.09438 34.1595 2.13354 34.7021 3.28812 35.2581C5.14217 36.1509 5.44343 36.2683 5.86766 36.2641C6.37306 36.2591 6.82519 36.0301 7.12123 35.6293C7.20249 35.5192 8.39635 32.7212 9.7742 29.4114C12.4493 22.9855 12.4702 22.9216 12.1214 22.2555C11.8891 21.8118 11.5379 21.5922 9.53918 20.6404C7.37687 19.6109 7.21957 19.5469 6.95982 19.5912ZM41.9966 19.8108C37.6359 21.337 37.5347 21.3823 37.2353 21.946C36.867 22.6389 36.8844 22.6956 39.4518 29.1903C40.766 32.5146 41.91 35.328 41.9942 35.4422C42.0784 35.5564 42.3071 35.7406 42.5024 35.8517C43.1521 36.2209 43.4934 36.146 45.9259 35.0996C47.1318 34.5809 48.2128 34.0682 48.3284 33.9602C48.4439 33.8523 48.5383 33.6706 48.5383 33.5566C48.5383 33.2912 43.5441 20.2029 43.329 19.9045C43.0574 19.5277 42.8475 19.513 41.9966 19.8108ZM13.9929 19.7316C13.6144 20.0191 13.6582 20.799 14.0615 20.9538C14.2679 21.033 35.0395 21.033 35.2458 20.9538C35.6612 20.7945 35.6893 19.9221 35.2861 19.7063C35.0106 19.5588 14.1878 19.5836 13.9929 19.7316ZM25.703 22.9801C25.0257 23.0982 24.2249 23.3911 23.7735 23.6857C23.1917 24.0654 16.6179 28.9425 16.326 29.211C15.6986 29.7881 15.442 30.8564 15.7133 31.7619C15.8711 32.2886 16.4703 32.9202 17.1319 33.2573C17.5923 33.4918 17.8491 33.5562 18.4577 33.5899C19.5711 33.6516 19.9587 33.5014 22.0305 32.206C23.0253 31.5842 23.891 31.0553 23.9545 31.031C24.0197 31.006 24.1839 31.1817 24.3323 31.4352C24.6996 32.0628 25.4406 32.8276 26.0931 33.2524C27.4141 34.1128 29.2639 34.2752 31.14 33.6957L31.7321 33.5128L34.9718 35.8472C37.2721 37.5046 38.2837 38.1815 38.4605 38.1815C38.742 38.1815 41.0444 36.6504 41.002 36.4913C40.9879 36.4384 40.8941 36.2827 40.7934 36.1454C40.6927 36.008 39.5577 33.2297 38.2711 29.9712C36.9844 26.7127 35.8967 24.0113 35.854 23.9681C35.8113 23.9248 35.4787 23.9854 35.1149 24.1026L34.4534 24.3156L30.8364 23.6472C26.8549 22.9113 26.4206 22.8549 25.703 22.9801ZM11.0789 29.8523C9.74481 33.0736 8.58006 35.8538 8.49058 36.0306C8.40102 36.2074 8.36258 36.3754 8.40512 36.4038C8.44767 36.4323 8.70181 36.598 8.96986 36.7721L9.45726 37.0887L10.738 35.8197C12.131 34.4394 12.5734 34.1571 13.6366 33.9698C15.0745 33.7165 16.6198 34.4422 17.4269 35.7498C17.7211 36.2265 17.8472 36.3354 18.4496 36.6332C19.1896 36.9989 19.7764 37.5669 20.1027 38.233C20.2511 38.5362 20.3737 38.6421 20.7214 38.7675C21.3714 39.0018 22.0381 39.5568 22.5078 40.2544C22.8742 40.7986 23.0124 40.9203 23.593 41.2101C24.4 41.6128 24.936 42.1677 25.338 43.0163C25.6118 43.5942 25.6332 43.7108 25.6314 44.6192C25.6298 45.4842 25.6002 45.6619 25.3787 46.1382C25.2408 46.4348 24.8888 46.9282 24.5966 47.2346C24.0865 47.7693 24.0717 47.7987 24.2262 47.9695C24.5124 48.2858 25.3068 48.5682 25.9132 48.5692C27.1321 48.5713 28.361 47.5915 28.6149 46.4153C28.6742 46.1405 28.7037 46.1185 28.9295 46.1806C29.7261 46.3996 30.6913 46.1186 31.4065 45.4594C31.8436 45.0565 32.3042 44.2649 32.3042 43.9165C32.3042 43.7261 32.3374 43.7189 33.0354 43.7593C33.9169 43.8104 34.3885 43.638 35.0637 43.0181C35.4883 42.6282 35.9401 41.8561 35.9419 41.517C35.9428 41.3772 36.0404 41.3527 36.6193 41.3466C36.9914 41.3427 37.4294 41.2903 37.5928 41.23C38.1431 41.0271 38.7256 40.5358 39.0159 40.0296C39.3621 39.426 39.3665 39.3744 39.0623 39.4901C38.657 39.6441 38.0524 39.594 37.6147 39.37C37.388 39.254 35.9277 38.2403 34.3698 37.1175L31.537 35.0761L30.679 35.2293C29.6061 35.421 28.0632 35.4246 27.266 35.2374C26.2055 34.9883 25.2236 34.4425 24.3525 33.6178L23.5709 32.878L22.4562 33.58C21.1542 34.4 20.4133 34.7597 19.7276 34.9048C17.8693 35.2978 15.8595 34.5534 14.861 33.1022C13.9102 31.7204 14.0273 29.71 15.1319 28.4519C15.2981 28.2627 16.6067 27.2372 18.0398 26.1733C20.4151 24.4098 20.6267 24.2305 20.4337 24.1457C20.31 24.0914 18.825 24.0408 16.8632 24.0241L13.5044 23.9957L11.0789 29.8523ZM13.417 35.4384C13.0342 35.5602 12.7472 35.7906 11.7192 36.8012C10.9358 37.5714 10.4119 38.1668 10.2906 38.425C10.027 38.9855 10.0283 39.9361 10.2934 40.4835C10.6592 41.2393 11.5379 41.8202 12.3153 41.8202C12.5666 41.8202 12.6043 41.8577 12.6621 42.1657C12.8539 43.1883 13.7198 43.9998 14.7494 44.1217L15.1913 44.1741L15.3026 44.6422C15.4916 45.4379 16.2801 46.2348 16.9908 46.3484C17.7388 46.468 17.7293 46.4614 17.8797 46.9751C18.0553 47.5749 18.4615 48.0816 19.0393 48.4212C19.4118 48.6403 19.5777 48.6774 20.1753 48.6756C21.1359 48.6726 21.3823 48.5204 22.8388 47.0306C24.1556 45.6836 24.2805 45.4676 24.2805 44.5354C24.2805 43.3666 23.3947 42.3609 22.2455 42.2248C21.7891 42.1707 21.775 42.1597 21.6801 41.7848C21.4347 40.8163 20.5796 40.0401 19.611 39.9069C19.1874 39.8487 19.1683 39.8327 19.1139 39.4921C18.9748 38.6224 18.0002 37.7297 17.0946 37.6426C16.682 37.603 16.6212 37.5692 16.5745 37.3532C16.2508 35.8592 14.8205 34.9919 13.417 35.4384Z" fill="#8A1538"/>
</svg>
