<svg width="101" height="101" viewBox="0 0 101 101" fill="none" xmlns="http://www.w3.org/2000/svg">
<rect x="53" y="52.1133" width="28.7332" height="10" transform="rotate(-44.4258 53 52.1133)" fill="#DE86A0"/>
<path fill-rule="evenodd" clip-rule="evenodd" d="M56.4916 8.30486C55.5881 8.79249 39.0968 25.4216 38.9601 25.9829C38.7063 27.0255 38.9732 27.9609 40.0961 29.9641C40.6983 31.0386 41.1557 31.9177 41.1123 31.9177C41.069 31.9177 40.1605 31.4317 39.0936 30.8376C35.744 28.9729 35.598 29.0078 32.0853 32.5127L29.5184 35.0737L27.352 35.2456C17.6748 36.0134 11.3946 37.5935 9.08167 39.8422C8.0651 40.8306 7.99601 41.1495 8.00016 44.8389C8.00415 48.4366 8.12289 49.0022 9.0541 49.8609L9.49122 50.2641V68.4567C9.49122 88.7842 9.39921 87.2487 10.6828 88.3486C12.0654 89.5332 14.6515 90.5918 17.9744 91.333C27.9258 93.5527 44.611 93.5562 54.5817 91.3406C59.859 90.168 62.6687 88.5531 63.1231 86.4318C63.24 85.8862 63.3008 81.47 63.3008 73.5136V61.4245L65.8535 58.8729C68.6849 56.0429 68.4719 56.1416 69.9335 56.982C71.7625 58.0335 72.8739 59.4681 75.17 63.7416C77.2956 67.6979 78.554 69.5174 79.7998 70.4353C81.9468 72.0176 84.6214 72.2482 87.0265 71.0581C88.7293 70.2157 91.3828 67.6016 92.1795 65.9816C92.9044 64.5072 93.1532 63.0069 92.9091 61.5801C92.4072 58.647 90.7362 57.0248 85.2144 54.1096C81.801 52.3075 80.5617 51.4874 79.3826 50.2498C78.5148 49.339 77.5836 47.8339 77.5836 47.3419C77.5836 47.2237 78.9745 45.7435 80.6743 44.0528C82.3743 42.362 83.9811 40.646 84.245 40.2395C84.7881 39.4033 84.8786 38.4135 84.4935 37.5235C84.1617 36.7564 74.469 27.1489 73.8812 27.0044C73.6261 26.9416 73.1825 26.8785 72.8955 26.8641C72.4018 26.8391 72.0338 26.3512 66.0449 17.7812C60.3076 9.57075 59.6477 8.68975 58.9823 8.35058C58.0957 7.89886 57.272 7.88373 56.4916 8.30486ZM53.7659 14.7784L49.8099 18.7414L54.5624 24.4477C58.7077 29.4251 59.3149 30.2251 59.3149 30.711C59.3149 31.8664 58.0255 32.4718 57.1061 31.7479C56.8714 31.563 54.6825 29.013 52.2418 26.0808L47.8042 20.7499L44.7574 23.7966C43.0817 25.4723 41.7105 26.8898 41.7105 26.9465C41.7105 27.0032 42.7299 28.8745 43.9759 31.1047C46.4722 35.5732 46.6074 35.9853 45.8034 36.6776C45.5518 36.8943 45.1444 37.07 44.8983 37.068C44.6375 37.0658 42.7186 36.0972 40.2989 34.7464L36.1469 32.4287L34.1181 34.4511C33.0024 35.5634 32.1148 36.4991 32.1461 36.5303C32.1773 36.5616 36.1516 39.3549 40.9776 42.7376L49.7523 48.8881L59.9214 38.709C65.5147 33.1102 70.045 28.4553 69.9888 28.3644C69.892 28.2076 57.8174 10.9251 57.7528 10.8508C57.7358 10.8313 55.9419 12.5988 53.7659 14.7784ZM61.8891 40.7293L50.9288 51.7025L55.4237 56.2023L59.9186 60.7021L70.9162 49.6838L81.9138 38.6656L77.4664 34.211C75.0202 31.7609 72.9806 29.7563 72.9341 29.7563C72.8876 29.7563 67.9173 34.6942 61.8891 40.7293ZM66.4975 40.1059C63.2449 43.3557 60.5869 46.1435 60.5308 46.3638C60.2976 47.2812 61.2499 48.2713 62.1921 48.0909C62.4299 48.0455 64.8852 45.7114 68.4396 42.1522C74.1136 36.4703 74.2952 36.2686 74.2952 35.6467C74.2952 34.8546 73.6833 34.2453 72.8881 34.2453C72.4196 34.2453 71.7312 34.8765 66.4975 40.1059ZM27.0956 38.0867C21.0184 38.5658 15.0823 39.7195 12.4758 40.9282C10.7943 41.7079 10.6463 41.9099 11.3588 42.4539C12.4928 43.3198 12.8457 43.3782 14.3352 42.9462C18.185 41.8301 26.4922 40.7325 31.1094 40.73C33.0738 40.729 33.1002 40.6575 31.5402 39.5664C30.7855 39.0385 30.0257 38.4484 29.8517 38.2549C29.6776 38.0612 29.3787 37.9134 29.1874 37.9261C28.996 37.9389 28.0547 38.011 27.0956 38.0867ZM29.9189 43.5664C27.0994 43.7258 24.486 43.9877 21.615 44.3981C20.3818 44.5745 19.2608 44.7237 19.1238 44.7297C17.9774 44.78 22.1468 45.4148 26.7634 45.893C28.7605 46.0998 41.0198 46.3133 40.8529 46.1384C40.7923 46.0749 39.8991 45.4303 38.8681 44.7061L36.9936 43.3895L34.5773 43.4144C33.2483 43.4282 31.1521 43.4965 29.9189 43.5664ZM10.8532 46.646C10.9022 47.77 10.911 47.7896 11.5672 48.2239C14.8772 50.4145 24.7149 51.862 36.313 51.8646C41.7566 51.8658 48.0215 51.5163 48.0215 51.2112C48.0215 51.1477 47.2928 50.6006 46.4023 49.9952L44.783 48.8949L38.6381 48.991C27.2745 49.1691 18.1717 48.1918 12.8128 46.2187C12.0364 45.9327 11.2668 45.6559 11.1024 45.6033C10.8316 45.5167 10.8084 45.614 10.8532 46.646ZM56.3833 50.2639C55.3564 51.2919 55.2342 51.8789 55.8887 52.6407C56.1878 52.9887 56.4316 53.0989 56.903 53.0989C57.4396 53.0989 57.6448 52.9727 58.4193 52.1659C59.114 51.4422 59.3149 51.116 59.3149 50.7118C59.3149 49.9723 58.6762 49.3747 57.8855 49.3747C57.3647 49.3747 57.1365 49.5098 56.3833 50.2639ZM72.8994 51.8271L70.6276 54.1131L71.6269 54.6889C72.7924 55.3604 74.5467 57.1461 75.5526 58.6852C75.9411 59.2796 76.7999 60.8012 77.461 62.0664C79.3 65.5856 80.8143 67.7955 81.8057 68.4063C82.5289 68.852 82.7678 68.9097 83.8817 68.9067C85.5052 68.9026 85.8989 68.6909 87.8513 66.7733C89.5569 65.0979 90.0098 64.3887 90.1545 63.1667C90.4428 60.7297 89.1102 59.3542 83.7006 56.5057C79.2547 54.1645 77.1198 52.5082 75.8856 50.4426C75.5893 49.9467 75.3073 49.541 75.259 49.541C75.2107 49.541 74.1488 50.5698 72.8994 51.8271ZM12.3146 68.9052V86.0882L12.797 86.4947C14.2583 87.7255 19.6679 89.0401 26.0064 89.7046C31.4977 90.2802 41.1349 90.2795 46.6333 89.7031C52.9729 89.0386 58.3603 87.7318 59.8162 86.5055L60.3114 86.0882V74.7974V63.5067H59.7192C59.3935 63.5067 58.9638 63.424 58.7642 63.323C58.5647 63.2219 56.3463 61.0934 53.8343 58.5933L49.2671 54.0474L46.6099 54.3209C42.6805 54.7253 29.6202 54.7223 25.6809 54.3161C20.3219 53.7635 16.0552 52.9958 13.4906 52.1227L12.3146 51.7221V68.9052ZM15.5456 56.5995C15.1817 56.9636 15.1379 57.1485 15.1379 58.3161C15.1379 59.4691 15.1836 59.6678 15.5222 59.9863C16.0195 60.4538 17.0055 60.4733 17.4537 60.0246C17.853 59.6249 18.0297 58.7432 17.9149 57.7244C17.7588 56.3375 16.435 55.709 15.5456 56.5995ZM35.4421 59.695C34.3991 60.0106 33.8977 60.7624 32.6709 63.8512C32.0379 65.4447 30.8908 68.2824 30.1221 70.157C29.3533 72.0316 28.6096 74.1211 28.4696 74.8004C27.819 77.9552 29.346 81.5364 32.0946 83.302C34.511 84.8544 38.1149 84.8544 40.5314 83.302C43.2793 81.5369 44.8104 77.9573 44.163 74.8122C43.9199 73.6313 39.1646 61.591 38.6015 60.7308C38.0292 59.8565 36.5314 59.3654 35.4421 59.695ZM35.9144 63.3688C35.7106 63.8562 34.5635 66.6864 33.3654 69.6582C31.2449 74.918 31.1871 75.0949 31.1868 76.3099C31.1863 77.7665 31.6591 79.0024 32.6269 80.0748C33.8715 81.4537 36.1605 82.01 38.0311 81.3881C40.3095 80.6304 41.9348 77.6767 41.392 75.2799C41.245 74.6305 36.7934 63.3988 36.4078 62.7038C36.3268 62.558 36.159 62.7841 35.9144 63.3688ZM15.499 63.7251L15.1379 64.11V73.9211V83.7321L15.5222 84.0937C15.9324 84.4795 16.7663 84.5732 17.2905 84.2924C17.923 83.9534 17.9612 83.361 17.9612 73.8978C17.9612 64.4346 17.923 63.8422 17.2905 63.5032C16.7384 63.2074 15.8858 63.3132 15.499 63.7251Z" fill="black"/>
<path d="M40 76.5001C40 78.4331 38.433 80.0001 36.5 80.0001C34.567 80.0001 33 78.4331 33 76.5001C33 74.5671 34.067 66.5 36 66.5C37.933 66.5 40 74.5671 40 76.5001Z" fill="#DE86A0"/>
<circle cx="84" cy="63" r="4" fill="#DE86A0"/>
</svg>
