<svg width="102" height="101" viewBox="0 0 102 101" fill="none" xmlns="http://www.w3.org/2000/svg">
<path fill-rule="evenodd" clip-rule="evenodd" d="M46.4746 38.5149C18.6537 66.5109 17.118 68.0873 16.6281 69.1475C15.7095 71.1357 15.8048 73.5653 16.8728 75.3879C17.0993 75.7745 20.6112 79.4311 24.6772 83.514C31.1002 89.9636 32.1967 90.9956 33.0364 91.3805C34.2391 91.9318 35.5171 92.1152 36.8702 91.9305C38.8713 91.6574 39.3515 91.299 44.178 86.4782C46.8647 83.7948 48.8199 81.7014 49.147 81.1583C49.4592 80.6403 49.792 79.7542 49.9368 79.0558C50.4237 76.7058 49.7378 74.6547 47.7776 72.5991C46.7518 71.5235 46.7109 71.4508 47.0585 71.3199C47.2613 71.2435 47.9038 71.0071 48.4865 70.7945C49.8309 70.3039 49.9687 70.0174 50.1373 67.3612L50.2648 65.3491L52.3492 64.5543C53.4956 64.1171 54.5276 63.6301 54.6424 63.4723C54.8935 63.1267 54.9657 62.6813 55.1394 60.4106L55.2726 58.6691L57.2757 57.9275C58.3774 57.5196 59.4038 57.0369 59.5567 56.8549C59.7368 56.6406 59.8712 56.0661 59.9383 55.2235C59.9954 54.5083 60.0835 53.4943 60.1343 52.9702L60.2267 52.0175L62.1721 51.2995C63.2421 50.9047 64.2789 50.4192 64.4762 50.2209C64.7867 49.9085 64.8499 49.5928 64.9489 47.8612C65.0118 46.7617 65.0945 45.7487 65.1327 45.6102C65.1729 45.4642 66.0424 45.0496 67.1982 44.6249C68.2961 44.2215 69.3234 43.7483 69.4808 43.5733C69.75 43.2739 70.0119 41.2984 70.0373 39.3729L70.0455 38.7616L72.0007 38.0326C74.7286 37.0155 74.6879 37.0639 74.8855 34.6103C74.9748 33.502 75.0491 32.4774 75.0506 32.3335C75.0524 32.1521 75.6724 31.8463 77.0671 31.3386C78.3841 30.8591 79.1873 30.4694 79.3887 30.2119C79.6187 29.9177 79.722 29.4051 79.7978 28.1837C79.9771 25.2882 79.8464 25.4909 82.0641 24.668C83.237 24.2329 84.1192 23.7996 84.3317 23.5544C84.635 23.2041 84.7057 22.776 84.8855 20.2012C85.0236 18.2209 85.0368 17.1493 84.9251 16.9453C84.8336 16.778 83.0408 14.9219 80.9411 12.8206C77.2547 9.13166 77.1004 9 76.464 9C75.8098 9 75.5702 9.23578 46.4746 38.5149ZM56.1524 32.6379L35.8349 53.0834L36.3043 53.8391C37.4916 55.7504 37.974 58.6212 37.4918 60.9072L37.277 61.9257L38.7591 63.4237C40.1548 64.8344 40.2571 64.9046 40.5145 64.6285C40.6647 64.4671 48.774 53.5284 58.535 40.3202C68.2959 27.112 76.6945 15.7522 77.1986 15.0765L78.1152 13.8478L77.2926 13.0201L76.47 12.1925L56.1524 32.6379ZM61.0846 41.4089L42.2068 66.9324L43.3833 68.1374L44.5598 69.3422L45.7246 68.9379C46.3654 68.7154 46.9915 68.458 47.1162 68.3656C47.2693 68.2522 47.4 67.4885 47.5179 66.0172C47.6599 64.2459 47.7537 63.7714 48.0175 63.4887C48.1961 63.2974 49.2444 62.8126 50.3467 62.4112L52.3514 61.6816L52.3595 61.0772C52.3639 60.7446 52.427 59.7311 52.4996 58.8248C52.6037 57.5251 52.7012 57.107 52.9613 56.8455C53.1426 56.6629 54.1423 56.1952 55.1828 55.8061C56.2234 55.417 57.1355 54.9852 57.2097 54.8467C57.2842 54.7082 57.393 53.7076 57.4519 52.6232C57.5346 51.0985 57.6265 50.565 57.8581 50.2689C58.049 50.0247 58.8838 49.6217 60.1646 49.1555L62.1718 48.4248L62.2634 47.4793C62.3137 46.9594 62.4015 45.9486 62.4585 45.2333C62.5252 44.3975 62.6614 43.8114 62.8401 43.5928C62.993 43.4057 64.0064 42.9209 65.0921 42.5155C66.1778 42.1099 67.0899 41.7523 67.1188 41.7209C67.1478 41.6894 67.2463 40.654 67.338 39.42C67.4728 37.6001 67.563 37.1181 67.815 36.8682C67.986 36.699 69.0272 36.2341 70.129 35.8354L72.1321 35.1106L72.299 32.8087C72.4235 31.0917 72.5337 30.4386 72.7327 30.2389C72.8794 30.0917 73.8829 29.6401 74.9626 29.2355C76.0425 28.831 76.9636 28.462 77.0096 28.4157C77.0559 28.3693 77.1644 27.3635 77.2508 26.1808C77.3428 24.9219 77.5011 23.8869 77.6326 23.6844C77.7742 23.4662 78.5884 23.0691 79.8355 22.6101C80.9235 22.2096 81.8655 21.8362 81.9286 21.7805C81.9917 21.7247 82.1065 20.8671 82.1837 19.8744L82.3241 18.0696L81.23 16.9775C80.6284 16.3768 80.0971 15.8854 80.0494 15.8854C80.0016 15.8854 71.4674 27.3709 61.0846 41.4089ZM26.5333 62.4381C19.2585 69.7781 19.1568 69.8901 18.8784 70.8638C18.5537 72.0001 18.6322 72.8356 19.1617 73.8798C19.6491 74.8412 33.3335 88.5167 34.2399 88.9484C35.1456 89.3797 36.6767 89.3772 37.5674 88.9427C38.5035 88.4863 46.7361 80.1702 47.0848 79.3288C47.4641 78.4138 47.42 76.8187 46.9919 75.958C46.7664 75.5049 44.4279 73.0163 40.4818 69.03C37.0947 65.6084 34.3234 62.6809 34.3234 62.5243C34.3234 62.3677 34.4824 61.6565 34.6768 60.944C35.1637 59.1583 35.0674 57.4885 34.3945 56.0463L33.9061 54.9994L26.5333 62.4381ZM26.8952 66.827C25.3468 67.3432 24.2507 68.2746 23.5032 69.7091C23.139 70.408 23.0647 70.7741 23.0607 71.8923C23.0522 74.2563 23.0844 74.3042 28.1289 79.4163C31.8373 83.1744 32.7392 84.0013 33.5921 84.4247C35.9315 85.5862 38.7744 84.8365 40.2162 82.678C41.0064 81.4946 41.2141 80.737 41.1396 79.3095C41.033 77.2706 40.8058 76.953 35.9267 72.027C32.2284 68.2931 31.421 67.5593 30.5907 67.178C29.4339 66.6466 27.8792 66.499 26.8952 66.827ZM27.6114 69.45C26.2972 69.8638 25.5272 71.0998 25.7267 72.4752C25.8317 73.199 26.0403 73.4415 30.0385 77.4886C32.3493 79.8276 34.4427 81.8491 34.6906 81.9809C36.1539 82.7584 38.181 81.7599 38.4436 80.1321C38.6768 78.687 38.599 78.5768 34.1833 74.1038C31.9191 71.8103 29.8763 69.833 29.6436 69.7099C29.053 69.3972 28.1469 69.2814 27.6114 69.45Z" fill="black"/>
<rect x="24" y="72.6562" width="8" height="15.9762" rx="4" transform="rotate(-45 24 72.6562)" fill="#DE86A0"/>
<path d="M75.5 14.5L38.5 52.5L40 63L75.5 14.5Z" fill="#DE86A0"/>
</svg>
