<svg width="52" height="78" viewBox="0 0 52 78" fill="none" xmlns="http://www.w3.org/2000/svg">
<g filter="url(#filter0_d_2172_9657)">
<path d="M41.1875 0H10.5625C6.93945 0 4 2.93945 4 6.5625V63.4375C4 67.0605 6.93945 70 10.5625 70H41.1875C44.8105 70 47.75 67.0605 47.75 63.4375V6.5625C47.75 2.93945 44.8105 0 41.1875 0ZM25.875 65.625C23.4551 65.625 21.5 63.6699 21.5 61.25C21.5 58.8301 23.4551 56.875 25.875 56.875C28.2949 56.875 30.25 58.8301 30.25 61.25C30.25 63.6699 28.2949 65.625 25.875 65.625ZM41.1875 50.8594C41.1875 51.7617 40.4492 52.5 39.5469 52.5H12.2031C11.3008 52.5 10.5625 51.7617 10.5625 50.8594V8.20312C10.5625 7.30078 11.3008 6.5625 12.2031 6.5625H39.5469C40.4492 6.5625 41.1875 7.30078 41.1875 8.20312V50.8594Z" fill="#8A1538"/>
</g>
<defs>
<filter id="filter0_d_2172_9657" x="0" y="0" width="51.75" height="78" filterUnits="userSpaceOnUse" color-interpolation-filters="sRGB">
<feFlood flood-opacity="0" result="BackgroundImageFix"/>
<feColorMatrix in="SourceAlpha" type="matrix" values="0 0 0 0 0 0 0 0 0 0 0 0 0 0 0 0 0 0 127 0" result="hardAlpha"/>
<feOffset dy="4"/>
<feGaussianBlur stdDeviation="2"/>
<feComposite in2="hardAlpha" operator="out"/>
<feColorMatrix type="matrix" values="0 0 0 0 0 0 0 0 0 0 0 0 0 0 0 0 0 0 0.25 0"/>
<feBlend mode="normal" in2="BackgroundImageFix" result="effect1_dropShadow_2172_9657"/>
<feBlend mode="normal" in="SourceGraphic" in2="effect1_dropShadow_2172_9657" result="shape"/>
</filter>
</defs>
</svg>
