<svg width="101" height="101" viewBox="0 0 101 101" fill="none" xmlns="http://www.w3.org/2000/svg">
<path fill-rule="evenodd" clip-rule="evenodd" d="M26.0433 11.396C25.88 11.6514 21.0783 19.4499 15.373 28.726L5 45.5918V48.3758V51.1598L5.97291 51.275C7.62935 51.4713 9.15698 52.4854 9.88706 53.8738C10.0595 54.2016 10.3485 55.0911 10.5294 55.8506L10.858 57.2314L15.9041 57.2841C20.5848 57.3328 20.957 57.3115 21.0491 56.9882C21.104 56.7965 21.2537 56.107 21.3819 55.4561C21.9609 52.5201 23.3512 51.3383 26.2455 51.3224C27.1352 51.3174 27.9523 51.4026 28.0613 51.5117C28.1943 51.6447 25.4971 56.1982 19.8819 65.3203L11.504 78.9307L11.5563 81.6924L11.6084 84.4541L12.5947 84.5809C13.9081 84.7498 14.4808 84.9938 15.3462 85.7537C16.2159 86.5173 16.7606 87.5303 17.0575 88.9354C17.4538 90.8112 17.0113 90.6684 22.4156 90.665C25.0428 90.6632 27.2904 90.5968 27.4102 90.5171C27.5299 90.4374 27.7418 89.7507 27.8808 88.9912C28.4494 85.8884 29.9229 84.5569 32.7916 84.5539C35.5507 84.551 37.366 86.0877 37.9676 88.9354C38.3639 90.8112 37.9215 90.6684 43.3258 90.665C45.9529 90.6632 48.2006 90.5968 48.3203 90.5171C48.4401 90.4374 48.6519 89.7507 48.791 88.9912C49.3595 85.8884 50.8331 84.5569 53.7017 84.5539C56.4609 84.551 58.2761 86.0877 58.8778 88.9354C59.2772 90.8262 58.801 90.6818 64.435 90.622L69.4072 90.5693L69.7177 88.9912C70.0835 87.1318 70.4456 86.3711 71.3124 85.6418C72.0967 84.9818 72.6793 84.7447 73.9179 84.5809L74.8778 84.4541L85.5041 67.1934L96.1302 49.9326L96.1336 47.1216L96.1367 44.3105L95.1997 44.3135C91.8793 44.3238 88.284 46.3881 86.6654 49.2134C86.0649 50.2617 85.9024 50.4143 85.3857 50.4159C84.8827 50.4177 84.7052 50.2676 84.2021 49.4158C83.4093 48.073 81.2952 46.1128 79.9195 45.4448C78.1737 44.5972 76.3987 44.2561 74.2846 44.3618C72.4607 44.453 72.456 44.452 72.7229 44.0367C72.87 43.8075 76.7337 37.5335 81.3089 30.094L89.627 16.5681V13.8628C89.627 11.6286 89.5749 11.1376 89.3283 11.0429C88.799 10.8399 85.6077 11.4946 84.4448 12.0448C82.7866 12.8291 81.3592 14.095 80.3555 15.6709C79.5773 16.8928 79.393 17.0662 78.8616 17.0763C78.3264 17.0865 78.1422 16.9224 77.2939 15.681C75.8223 13.5272 73.582 11.9657 71.084 11.3526C69.6919 11.0107 66.9527 11.0107 65.5605 11.3526C63.0707 11.9637 60.4417 13.903 59.1494 16.0822C58.6444 16.9336 58.4687 17.0806 57.9514 17.0839C57.4194 17.0875 57.2271 16.9153 56.3838 15.681C54.9121 13.5272 52.6718 11.9657 50.1738 11.3526C48.7867 11.0121 46.0474 11.0105 44.6504 11.3494C42.1291 11.9612 39.5592 13.8585 38.2393 16.0828C37.7321 16.9376 37.5599 17.0806 37.0344 17.0839C36.5057 17.0873 36.3183 16.933 35.6768 15.967C33.7797 13.1094 31.0473 11.4788 27.4569 11.0614C26.4294 10.9421 26.3169 10.9685 26.0433 11.396ZM26.5505 12.2056C26.2625 12.5658 6.34969 44.956 6.23686 45.2476C6.17669 45.4028 6.31655 45.4941 6.61422 45.4941C7.395 45.4941 9.2994 46.054 10.4777 46.63C11.882 47.3165 13.543 48.8254 14.4705 50.2573L15.1919 51.3713L25.5064 34.6106L35.821 17.8499L35.4519 17.1617C34.2505 14.9207 32.0487 13.0757 29.7164 12.3553C28.2631 11.9065 26.8432 11.8394 26.5505 12.2056ZM44.0136 12.4216C41.6798 13.2169 39.7389 14.886 38.6569 17.0287C38.4815 17.3759 34.4176 23.9892 29.626 31.725C24.8345 39.4608 20.7373 46.0869 20.5213 46.4499L20.1283 47.1099L21.1419 46.5963C22.6494 45.8325 24.2034 45.4941 26.2061 45.4941C29.2392 45.4941 31.4738 46.2992 33.5317 48.1334C34.1513 48.6857 34.9901 49.6507 35.3955 50.2782L36.1329 51.419L46.3321 34.83C51.9415 25.7062 56.5682 18.0926 56.6136 17.9111C56.7305 17.4428 55.255 15.2807 54.1578 14.3132C52.2783 12.6555 50.246 11.9566 47.3269 11.9641C45.7835 11.9681 45.0451 12.07 44.0136 12.4216ZM64.9238 12.4216C62.5069 13.2452 60.9919 14.5459 59.5765 17.0127C59.2104 17.6509 55.6308 23.4546 51.622 29.9102C47.6129 36.3657 43.7226 42.6683 42.977 43.916C42.2311 45.1637 41.4868 46.3943 41.3231 46.6505L41.0252 47.1166L42.0453 46.5996C43.5595 45.8325 45.111 45.4941 47.1162 45.4941C50.1801 45.4941 52.4238 46.313 54.4945 48.1868C55.1299 48.7618 55.9393 49.6837 56.2932 50.235C56.6471 50.7866 57.0006 51.1661 57.0785 51.0783C57.5064 50.5968 77.5938 18.0434 77.5938 17.8314C77.5938 17.3564 75.9975 15.1328 75.068 14.3132C73.1884 12.6555 71.1562 11.9566 68.237 11.9641C66.6936 11.9681 65.9553 12.07 64.9238 12.4216ZM85.8339 12.4216C83.4133 13.2465 81.8888 14.557 80.493 17.0127C80.1302 17.6509 75.8409 24.6086 70.9611 32.4746C66.0813 40.3406 62.0267 46.8787 61.9508 47.0038C61.8748 47.1291 62.2812 46.9778 62.8539 46.6677C64.039 46.0256 65.8953 45.4941 66.9523 45.4941C67.3922 45.4941 67.7825 45.3606 67.9623 45.1489C68.1234 44.959 72.3686 38.1016 77.3961 29.9102C82.4234 21.7187 86.9664 14.3287 87.4914 13.4878L88.4461 11.959L87.8036 11.9641C87.4503 11.9669 86.5638 12.1726 85.8339 12.4216ZM72.8602 45.246C72.4808 45.2917 72.0595 45.4212 71.9239 45.5338C71.7882 45.6464 70.9473 46.9365 70.055 48.4008C69.1626 49.8652 68.3412 51.088 68.2295 51.118C68.1177 51.148 67.5149 51.2776 66.8897 51.4056C66.2648 51.5338 65.5102 51.8449 65.213 52.0968C64.332 52.8441 63.3533 54.6658 63.1139 56.0048C62.9101 57.1439 62.8547 57.235 62.3065 57.3299C61.7697 57.423 61.0984 58.429 54.6709 68.7731C50.795 75.0108 47.6206 80.1746 47.6167 80.2484C47.6125 80.322 47.9865 80.1738 48.4478 79.9188C49.9797 79.0717 51.4783 78.7474 53.8232 78.7555C55.629 78.7618 56.2283 78.8464 57.3941 79.2607C59.8142 80.1206 61.9196 81.8098 63.0663 83.8114C63.2989 84.2174 63.5522 84.5281 63.6293 84.5018C63.7062 84.4756 68.3911 76.9681 74.0398 67.8187L84.3101 51.1833L83.6303 50.0648C81.3708 46.3481 77.6235 44.6713 72.8602 45.246ZM93.6709 45.3046C90.7245 45.9086 88.3856 47.6353 86.9796 50.2445C86.6628 50.8323 82.4129 57.7493 77.5356 65.6152C72.658 73.4812 68.6296 80.015 68.5834 80.135C68.5371 80.2549 69.0178 80.0959 69.6516 79.7819C70.2853 79.4676 71.5549 79.0719 72.4727 78.9023C73.3906 78.7328 74.2304 78.5681 74.3389 78.5365C74.5014 78.489 94.7113 45.8269 94.9202 45.2736C94.9959 45.0736 94.7709 45.0791 93.6709 45.3046ZM45.7354 51.3876C43.7686 51.9053 42.7564 53.1011 42.2921 55.4561C41.9374 57.2553 41.9019 57.3301 41.4046 57.3301C41.013 57.3301 39.9405 58.9553 33.9517 68.6235C30.1042 74.835 26.8963 80.0229 26.8231 80.1523C26.7497 80.2817 27.0693 80.1778 27.5329 79.9213C29.0727 79.0699 30.5654 78.7472 32.9131 78.7581C35.2751 78.7689 36.7659 79.1457 38.5235 80.1758C39.6578 80.8404 41.4977 82.6748 42.0934 83.7349C42.3463 84.1846 42.6034 84.55 42.6647 84.5468C42.7261 84.5435 46.5195 78.4407 51.0945 70.9848L59.4126 57.4287L56.0452 57.3301L52.6779 57.2314L52.3495 55.8506C51.822 53.6339 51.0789 52.5703 49.4919 51.7607C48.6373 51.3247 46.7041 51.1328 45.7354 51.3876ZM28.7395 52.516C28.5395 52.8208 24.8536 58.7999 20.5487 65.803L12.7214 78.5361L13.9403 78.7699C15.5809 79.0845 16.7338 79.5144 17.8398 80.2241C18.8798 80.8915 20.5147 82.5527 21.0825 83.5191C21.2904 83.8726 21.5318 84.1381 21.6194 84.1089C21.7068 84.0799 25.5338 78.0649 30.1238 70.7424L38.4691 57.4287L35.1185 57.3301L31.7678 57.2314L31.4393 55.8506C31.0395 54.1707 30.6911 53.4881 29.7919 52.6241L29.1029 51.9619L28.7395 52.516Z" fill="black"/>
<path d="M34 46.0001C31.6 42.0001 27 43.0001 25 44.0001L40 17.5003C44.8 11.9003 50.3333 15.1669 52.5 17.5003L34 46.0001Z" fill="#DE86A0"/>
<path d="M57 46.0001C54.6 42.0001 50 43.0001 48 44.0001L63 17.5003C67.8 11.9003 73.3333 15.1669 75.5 17.5003L57 46.0001Z" fill="#DE86A0"/>
<path d="M62 79.5919C59.6 75.5919 55 76.5919 53 77.5919L68 51.092C72.8 45.492 78.3333 48.7587 80.5 51.092L62 79.5919Z" fill="#DE86A0"/>
<g clip-path="url(#clip0_978_17052)">
<path d="M41 79.5919C38.6 75.5919 34 76.5919 32 77.5919L47 51.092C51.8 45.492 57.3333 48.7587 59.5 51.092L41 79.5919Z" fill="#DE86A0"/>
</g>
<defs>
<clipPath id="clip0_978_17052">
<rect width="28" height="22" fill="white" transform="translate(32 58)"/>
</clipPath>
</defs>
</svg>
