<svg width="64" height="88" viewBox="0 0 64 88" fill="none" xmlns="http://www.w3.org/2000/svg">
<path fill-rule="evenodd" clip-rule="evenodd" d="M26.4274 0.130934C25.5494 0.497454 25.4511 0.853124 25.3805 3.92337C25.3237 6.39294 25.2657 6.85237 25.011 6.85237C24.4362 6.85237 20.6448 8.2133 19.2026 8.93727C14.7889 11.1528 11.6238 14.1749 9.7131 17.9979C8.9771 19.4707 8.12373 21.9957 7.89628 23.3734L7.758 24.2117H6.13292C4.68953 24.2117 4.46011 24.2626 4.079 24.6682C3.66533 25.1085 3.65014 25.2799 3.65014 29.4795C3.65014 33.4714 3.68151 33.8728 4.02692 34.2997C4.39659 34.7568 4.47629 34.7666 8.31744 34.8258L12.2312 34.8862L12.2367 37.4889C12.2428 40.4272 12.5206 42.2767 13.329 44.7599C14.725 49.0489 17.4236 52.8675 20.8568 55.4127C22.0558 56.3017 22.1876 56.458 21.8445 56.5848C20.3116 57.1519 14.7321 59.7474 13.5521 60.4423C7.73097 63.8708 3.34083 69.6367 1.59227 76.1502C1.32398 77.1494 0.827269 79.8136 0.487972 82.0711C-0.090608 85.9225 -0.108756 86.206 0.194244 86.6682C0.788605 87.5752 2.04085 87.6717 2.578 86.8517C2.73463 86.6126 3.12896 84.6488 3.45426 82.4878C3.77974 80.3267 4.22379 77.8706 4.44118 77.0296C5.36043 73.4741 7.42995 69.7979 10.0642 67.0407C12.9662 64.003 14.6846 62.9435 21.5027 59.988C24.4662 58.7034 26.7774 57.5851 26.9768 57.3393C27.7917 56.3357 27.3262 55.5776 25.285 54.5849C19.7561 51.8956 16.095 46.4503 15.2916 39.7204C15.1598 38.6171 15.1198 37.1626 15.1981 36.3268L15.3352 34.8641H31.6644H47.9939L48.127 36.3929C48.2002 37.2348 48.1621 38.7192 48.042 39.6971C47.1863 46.6679 43.2684 52.3187 37.5325 54.8556C36.025 55.5221 35.5983 56.4165 36.3469 57.3397C36.5477 57.5875 38.8587 58.7013 41.8729 60.003C48.1998 62.7354 49.7989 63.6941 52.5876 66.4266C54.9664 68.7575 56.5576 71.0248 57.7412 73.7702C58.7437 76.0956 59.169 77.8356 59.8647 82.4572C60.1877 84.6015 60.5483 86.5364 60.6664 86.7572C61.1554 87.6709 62.5026 87.6249 63.1261 86.6735C63.421 86.2232 63.4007 85.9068 62.8298 82.0782C62.4927 79.8168 62.128 77.6115 62.0195 77.1776C60.0738 69.4 55.1586 63.1127 48.2998 59.6282C47.5273 59.2359 45.5924 58.3539 44 57.6686L41.1048 56.4225L42.4777 55.4048C45.7983 52.9431 48.4709 49.2246 49.8683 45.1219C50.7578 42.5107 51.0529 40.6893 51.0734 37.6862L51.0925 34.8862L55.0063 34.8258C58.8474 34.7666 58.9271 34.7568 59.2968 34.2997C59.6424 33.8726 59.6736 33.471 59.6736 29.4519C59.6736 25.1263 59.6677 25.0641 59.2171 24.6406C58.8259 24.2731 58.5316 24.2117 57.163 24.2117H55.5657L55.4274 23.3734C55.2 21.9957 54.3466 19.4707 53.6106 17.9979C51.6999 14.1749 48.5348 11.1528 44.1212 8.93727C42.6789 8.2133 38.8875 6.85237 38.3127 6.85237C38.0578 6.85237 38 6.39037 37.9432 3.89851C37.8483 -0.26044 38.3419 0.0579468 31.9033 0.00507966C29.1124 -0.0178032 26.6482 0.0388114 26.4274 0.130934ZM28.4614 13.5766L28.407 24.0488L27.8534 24.5248C27.1549 25.1257 26.7 25.1257 26.0015 24.525L25.448 24.049L25.3894 16.9303C25.3503 12.1933 25.2624 9.81135 25.1266 9.81135C24.6883 9.81135 21.827 10.8845 20.5163 11.5404C18.4172 12.591 17.2398 13.4008 15.7009 14.8525C12.8709 17.5221 11.1506 21.0606 10.6452 25.2513C10.4542 26.8362 10.0039 27.1707 8.06199 27.1707H6.60912V29.5379V31.9051H31.6619H56.7146V29.5379V27.1707H55.2617C53.3199 27.1707 52.8695 26.8362 52.6785 25.2513C52.065 20.1629 49.4771 15.7871 45.4446 13.0191C43.7673 11.8676 39.1211 9.81135 38.1971 9.81135C38.0614 9.81135 37.9734 12.1933 37.9343 16.9303L37.8757 24.049L37.3222 24.525C36.6237 25.1257 36.1688 25.1257 35.4703 24.5248L34.9167 24.0488L34.8623 13.5766L34.808 3.10432H31.6619H28.5157L28.4614 13.5766ZM29.7878 59.7864C27.3315 60.6001 25.6524 62.5264 25.2545 64.9875C25.0053 66.5286 25.592 68.2331 27.009 70.0853C27.1492 70.2687 24.9876 82.5509 24.2253 85.9016C24.1547 86.2115 24.3007 86.5157 24.7222 86.9373C25.4336 87.6486 25.94 87.6895 26.6203 87.0902C27.0865 86.6798 27.2433 86.0206 28.7027 78.3399C29.5708 73.7714 30.281 69.7957 30.281 69.5049C30.281 69.1392 30.0125 68.7155 29.4101 68.1298C27.5546 66.3266 27.9051 63.8825 30.1668 62.8553C32.1753 61.9431 34.4553 62.966 35.0106 65.0284C35.3014 66.108 34.9377 67.1346 33.9111 68.1323C33.3108 68.7159 33.0427 69.1396 33.0427 69.5049C33.0427 69.7957 33.7552 73.7714 34.6264 78.3399C35.8656 84.8401 36.2921 86.7284 36.588 87.0245C37.4258 87.8623 39.0285 87.1991 39.0246 86.0162C39.0234 85.7117 38.3728 82.0557 37.5786 77.8919C36.6641 73.0973 36.2005 70.2344 36.3148 70.0853C38.2166 67.5993 38.5673 65.6551 37.5479 63.2522C37.0545 62.0895 35.5845 60.6477 34.3249 60.0912C33.121 59.5596 30.9195 59.4116 29.7878 59.7864Z" fill="black"/>
</svg>
