<svg width="13" height="10" viewBox="0 0 13 10" fill="none" xmlns="http://www.w3.org/2000/svg">
<path d="M7.72066 1.52918C7.64697 1.46051 7.58787 1.37771 7.54688 1.28571C7.50589 1.19372 7.48384 1.0944 7.48207 0.993699C7.48029 0.892996 7.49882 0.792967 7.53654 0.699579C7.57426 0.606191 7.6304 0.521357 7.70162 0.450138C7.77284 0.378919 7.85767 0.322775 7.95106 0.285054C8.04445 0.247333 8.14448 0.228808 8.24518 0.230585C8.34588 0.232362 8.4452 0.254404 8.5372 0.295396C8.6292 0.336388 8.712 0.39549 8.78066 0.469176L12.7807 4.46918C12.9211 4.6098 13 4.80043 13 4.99918C13 5.19793 12.9211 5.38855 12.7807 5.52918L8.78066 9.52918C8.712 9.60286 8.6292 9.66197 8.5372 9.70296C8.4452 9.74395 8.34588 9.76599 8.24518 9.76777C8.14448 9.76954 8.04445 9.75102 7.95106 9.7133C7.85767 9.67558 7.77284 9.61943 7.70162 9.54821C7.6304 9.477 7.57426 9.39216 7.53654 9.29877C7.49882 9.20538 7.48029 9.10536 7.48207 9.00465C7.48384 8.90395 7.50589 8.80464 7.54688 8.71264C7.58787 8.62064 7.64697 8.53784 7.72066 8.46918L10.4407 5.74918L0.75066 5.74918C0.551747 5.74918 0.360982 5.67016 0.220329 5.52951C0.0796764 5.38885 0.000659725 5.19809 0.000659734 4.99918C0.000659743 4.80026 0.0796764 4.6095 0.220329 4.46885C0.360982 4.32819 0.551747 4.24918 0.75066 4.24918L10.4407 4.24918L7.72066 1.52918Z" fill="white"/>
</svg>
