<svg width="81" height="81" viewBox="0 0 81 81" fill="none" xmlns="http://www.w3.org/2000/svg">
<path fill-rule="evenodd" clip-rule="evenodd" d="M47.4405 0.22898C45.5653 0.641883 44.1267 1.35581 42.58 2.6414L41.802 3.28803L41.1302 2.68092C40.1737 1.81657 39.1431 1.3937 37.9688 1.3839C35.8467 1.36594 37.1325 0.211993 18.1781 19.1455C5.76063 31.5496 0.8732 36.534 0.541198 37.1332C0.150405 37.8382 0.0823064 38.1451 0.0854092 39.187C0.0898185 40.5939 0.414472 41.3714 1.48135 42.5289C1.83426 42.9119 2.12298 43.2737 2.12298 43.333C2.12298 43.3923 1.64531 44.1554 1.06149 45.0285C0.360091 46.0775 0 46.7778 0 47.0927C0 47.4828 0.356171 47.9296 1.95968 49.552L3.91935 51.5346V63.7059C3.91935 74.3374 3.95202 75.9877 4.17803 76.7488C4.67056 78.4076 5.81077 79.7108 7.40774 80.4401C10.3642 81.7904 13.7292 80.5054 15.1382 77.4884L15.5958 76.5084L15.6774 70.4358C15.7555 64.6248 15.7736 64.3439 16.0958 63.9127C17.2408 62.3803 19.2399 62.3225 20.3586 63.7894C20.6738 64.2024 20.8097 64.64 20.9151 65.5808C21.1498 67.6747 22.1742 69.1984 23.9244 70.0566C25.0968 70.6315 27.1613 70.6315 28.3337 70.0566C29.3721 69.5473 30.352 68.569 30.8688 67.5251L31.2732 66.7084L31.3168 51.2735L31.3604 35.8387L40.7317 26.4471C47.1204 20.0444 50.2238 16.8216 50.4826 16.3205C50.781 15.7429 50.8624 15.323 50.8624 14.3605C50.8624 12.7894 50.5143 12.1034 48.8466 10.3869L47.6042 9.10853L48.2084 8.55467C48.8904 7.9296 49.4378 7.74046 50.0943 7.90298C50.3784 7.97321 51.7876 9.25243 53.9311 11.3854C57.4765 14.9137 57.7081 15.2394 57.3776 16.2311C57.301 16.4611 53.7477 20.4422 49.4815 25.0778C45.2153 29.7135 41.3784 34.0141 40.9553 34.6347C39.7705 36.3719 39.3033 37.9907 39.2878 40.412C39.2765 42.1575 39.3275 42.5315 39.7532 43.8307C40.3966 45.7941 41.3665 47.1814 43.756 49.556L45.7258 51.5135V54.5866C45.7258 56.9056 45.7821 57.7686 45.9551 58.1033C46.0813 58.3471 46.8503 59.1888 47.6641 59.9734C48.8717 61.1377 49.2364 61.4001 49.647 61.4001C50.2358 61.4001 50.9516 62.0277 50.9516 62.5441C50.9516 62.7324 51.0566 63.0848 51.1851 63.3275C51.3135 63.57 54.1266 66.4695 57.4367 69.7709C62.89 75.21 63.5048 75.7734 63.9879 75.7734C64.701 75.7734 65.3226 76.3934 65.3226 77.1049C65.3226 77.5591 65.5623 77.8743 67.005 79.3174L68.6875 81H70.5534H72.4195L76.7098 76.7091L81 72.4182V70.5613V68.7044L79.4146 67.0903C78.0696 65.7213 77.7301 65.4606 77.1762 65.3721C76.3343 65.2373 75.7742 64.6833 75.7742 63.985C75.7742 63.5014 75.2005 62.877 69.6094 57.2754C66.1546 53.814 63.283 51.0655 63.0771 51.0228C62.8749 50.981 62.5238 50.9082 62.2967 50.861C61.8832 50.7749 61.5195 50.1866 61.3376 49.3093C61.2884 49.0723 60.5638 48.2202 59.6358 47.3085L58.0195 45.7203H54.7691H51.5186L49.3524 43.5491C47.068 41.2598 46.7942 40.7956 47.1639 39.8403C47.2508 39.6157 50.8636 35.5848 55.1924 30.883C59.521 26.181 63.3515 21.887 63.7045 21.3408C64.0574 20.7946 64.5439 19.754 64.7856 19.0282C65.1689 17.8775 65.2251 17.4476 65.2251 15.6671C65.2251 13.8867 65.1689 13.4568 64.7856 12.3061C64.5439 11.5802 64.0437 10.5145 63.674 9.93777C62.7923 8.56219 57.0844 2.80097 55.6875 1.87651C53.1964 0.228163 50.1805 -0.374369 47.4405 0.22898ZM47.8032 2.84605C46.5319 3.16814 45.2769 3.80236 44.4051 4.563L43.6845 5.19199L44.6945 6.21151L45.7046 7.23103L46.3893 6.61233C47.3582 5.73687 48.3846 5.31367 49.5635 5.30387C51.4247 5.28819 51.7902 5.53254 55.7032 9.4107C58.1066 11.7926 59.3526 13.1507 59.6145 13.6742C60.3115 15.0669 60.2163 16.8123 59.3751 18.059C59.1845 18.3414 55.5477 22.3613 51.2931 26.9921C47.0386 31.6231 43.3476 35.7284 43.0909 36.1152C42.2536 37.3772 41.8909 38.7401 41.9041 40.5753C41.9239 43.2912 42.662 44.7468 45.382 47.433L47.0337 49.0638L48.0462 48.0512L49.0589 47.0383L47.01 44.9501C45.2756 43.1824 44.9168 42.7278 44.6718 41.9884C44.2907 40.8376 44.3862 39.4743 44.9183 38.4748C45.1438 38.0515 48.7226 34.027 53.1399 29.2296C57.4422 24.5571 61.1504 20.4578 61.3805 20.1199C62.5005 18.4747 62.971 15.8019 62.4806 13.8705C61.9586 11.8148 61.5489 11.2384 58.1397 7.7648C56.3868 5.9786 54.5769 4.2739 54.1176 3.97647C52.3342 2.82155 49.7356 2.35638 47.8032 2.84605ZM36.9889 4.21788C36.7195 4.38807 28.9155 12.1236 19.6469 21.4079C8.1503 32.9242 2.76037 38.4314 2.68623 38.7378C2.62646 38.9848 2.62711 39.3892 2.68786 39.6361C2.84512 40.2764 11.81 49.2515 12.5292 49.4888C12.9113 49.6151 13.2166 49.6154 13.5956 49.4903C14.3265 49.249 48.1089 15.4559 48.2654 14.8096C48.3252 14.5625 48.3245 14.1584 48.2637 13.9113C48.1416 13.4146 39.431 4.54209 38.671 4.1403C38.0744 3.82506 37.5744 3.84809 36.9889 4.21788ZM22.3013 44.8936C17.9604 49.2361 15.6799 51.4008 15.1158 51.7136C14.4134 52.1031 14.1054 52.1712 13.0645 52.1681C11.6578 52.1637 10.8805 51.839 9.7231 50.772C9.34015 50.419 8.97924 50.1302 8.92078 50.1302C8.86248 50.1302 8.29972 50.4727 7.6705 50.8912L6.52622 51.6522L6.57014 63.8353C6.61179 75.4062 6.62943 76.0496 6.92272 76.64C7.3145 77.4289 8.04088 77.9842 9.02562 78.2477C10.4381 78.6255 12.0381 77.9205 12.6741 76.64C12.9551 76.0742 12.9902 75.4755 13.0645 69.9751C13.1457 63.9723 13.1488 63.9264 13.5459 63.1194C14.0556 62.0832 15.0539 61.0847 16.0899 60.575C17.2564 60.0009 19.3242 60.0009 20.4907 60.575C22.2299 61.4309 23.2726 62.9933 23.5085 65.097C23.6651 66.4932 24.1083 67.2223 25.0814 67.684C26.2963 68.2607 27.8772 67.6649 28.4749 66.4051C28.7189 65.8908 28.74 64.5773 28.7021 52.1853L28.6603 38.532L22.3013 44.8936ZM3.61267 45.9363C3.33227 46.3439 3.10282 46.7396 3.10282 46.8157C3.10282 46.8918 3.61462 47.462 4.24025 48.0829C5.49118 49.3243 5.49461 49.325 6.59268 48.443L7.03394 48.0886L5.57822 46.6418L4.12251 45.1951L3.61267 45.9363ZM49.9208 49.9362L48.3245 51.5386L48.3725 52.8786L48.4204 54.2186L51.3582 51.2762L54.296 48.3336H52.9066H51.517L49.9208 49.9362ZM53.1595 53.2303L48.9193 57.4736L49.5578 58.1276C49.9091 58.4874 50.449 58.8651 50.7576 58.967L51.3187 59.1522L55.2209 55.2536C58.9151 51.563 59.1177 51.3291 59.0219 50.8652C58.9348 50.4432 57.7468 48.9869 57.4896 48.9869C57.4403 48.9869 55.4917 50.8964 53.1595 53.2303ZM57.1151 57.1138L53.2379 60.9943L53.4014 61.5638C53.6246 62.3427 64.3155 73.0719 65.1392 73.3436L65.6908 73.5258L69.6089 69.6071L73.5269 65.6884L73.3448 65.1367C73.2163 64.7471 71.5423 62.9665 67.6505 59.0802C62.8725 54.3089 61.6688 53.2335 61.1055 53.2335C61.0433 53.2335 59.2476 54.9797 57.1151 57.1138ZM71.4756 71.4977C66.9785 75.9984 67.1444 75.6337 68.8051 77.3659C69.7276 78.3282 69.8266 78.3867 70.5348 78.3867H71.286L74.8366 74.8329L78.3871 71.279V70.5402C78.3871 69.857 78.3165 69.732 77.4481 68.8765C76.6423 68.0827 75.9034 67.6068 75.4765 67.6068C75.4143 67.6068 73.614 69.3577 71.4756 71.4977Z" fill="black"/>
</svg>
