<svg width="11" height="14" viewBox="0 0 11 14" fill="none" xmlns="http://www.w3.org/2000/svg">
<path d="M2.03015 5.78007C1.96149 5.85376 1.87869 5.91286 1.78669 5.95385C1.69469 5.99485 1.59538 6.01689 1.49468 6.01866C1.39397 6.02044 1.29394 6.00192 1.20056 5.9642C1.10717 5.92647 1.02233 5.87033 0.951115 5.79911C0.879896 5.72789 0.823752 5.64306 0.786031 5.54967C0.74831 5.45628 0.729785 5.35625 0.731562 5.25555C0.733339 5.15485 0.75538 5.05553 0.796372 4.96353C0.837364 4.87153 0.896466 4.78873 0.970153 4.72007L4.97015 0.720072C5.11078 0.579622 5.3014 0.500732 5.50015 0.500732C5.6989 0.500732 5.88953 0.579622 6.03015 0.720072L10.0302 4.72007C10.1038 4.78873 10.1629 4.87153 10.2039 4.96353C10.2449 5.05553 10.267 5.15485 10.2687 5.25555C10.2705 5.35625 10.252 5.45628 10.2143 5.54967C10.1766 5.64306 10.1204 5.72789 10.0492 5.79911C9.97797 5.87033 9.89314 5.92647 9.79975 5.9642C9.70636 6.00192 9.60633 6.02044 9.50563 6.01866C9.40493 6.01689 9.30561 5.99485 9.21362 5.95385C9.12162 5.91286 9.03882 5.85376 8.97015 5.78007L6.25015 3.06007V12.7501C6.25015 12.949 6.17114 13.1398 6.03048 13.2804C5.88983 13.4211 5.69907 13.5001 5.50015 13.5001C5.30124 13.5001 5.11048 13.4211 4.96982 13.2804C4.82917 13.1398 4.75015 12.949 4.75015 12.7501V3.06007L2.03015 5.78007Z" fill="white"/>
</svg>
