<svg width="39" height="38" viewBox="0 0 39 38" fill="none" xmlns="http://www.w3.org/2000/svg">
<path d="M9.67883 37.99C6.64234 37.99 4.27007 36.9424 2.56204 34.8471C0.854015 32.6567 0 29.4186 0 25.1329C0 20.6567 0.99635 16.371 2.98905 12.2757C5.07664 8.18047 8.01825 4.13285 11.8139 0.132854C11.9088 0.0376115 12.0511 -0.0100098 12.2409 -0.0100098C12.5255 -0.0100098 12.7153 0.132848 12.8102 0.418564C13 0.609038 13.0474 0.847133 12.9526 1.13285C10.6752 4.18047 9.10949 7.13285 8.25548 9.98999C7.49635 12.7519 7.11679 15.8471 7.11679 19.2757C7.11679 21.8471 7.44891 23.8471 8.11314 25.2757C8.77737 26.7043 9.67883 27.99 10.8175 29.1329L5.40876 30.1329C5.31387 28.5138 5.74088 27.2757 6.68978 26.4186C7.73358 25.5614 9.06205 25.1329 10.6752 25.1329C12.6679 25.1329 14.1861 25.7043 15.2299 26.8471C16.3686 27.99 16.938 29.5614 16.938 31.5614C16.938 33.6567 16.2737 35.2757 14.9453 36.4186C13.7117 37.4662 11.9562 37.99 9.67883 37.99ZM31.5985 37.99C28.562 37.99 26.1898 36.9424 24.4818 34.8471C22.8686 32.6567 22.062 29.4186 22.062 25.1329C22.062 20.5614 23.0584 16.2281 25.0511 12.1329C27.0438 8.03761 29.9854 4.03761 33.8759 0.132854C33.9708 0.0376115 34.1131 -0.0100098 34.3029 -0.0100098C34.5876 -0.0100098 34.7774 0.132848 34.8723 0.418564C35.062 0.609038 35.1095 0.847133 35.0146 1.13285C32.7372 4.18047 31.1715 7.13285 30.3175 9.98999C29.5584 12.7519 29.1788 15.8471 29.1788 19.2757C29.1788 21.8471 29.4635 23.8948 30.0328 25.4186C30.6971 26.8471 31.5985 28.0852 32.7372 29.1329L27.4708 30.1329C27.3759 28.5138 27.8029 27.2757 28.7518 26.4186C29.7007 25.5614 31.0292 25.1329 32.7372 25.1329C34.7299 25.1329 36.2482 25.7043 37.292 26.8471C38.4307 27.99 39 29.5614 39 31.5614C39 33.6567 38.3358 35.2757 37.0073 36.4186C35.7737 37.4662 33.9708 37.99 31.5985 37.99Z" fill="#1A1A1A"/>
</svg>
