<svg width="101" height="101" viewBox="0 0 101 101" fill="none" xmlns="http://www.w3.org/2000/svg">
<path fill-rule="evenodd" clip-rule="evenodd" d="M19.8725 14.2211C19.4194 14.369 18.7424 14.6795 18.3676 14.9109C17.6389 15.3615 16.2422 16.7912 15.8921 17.4454C15.6769 17.8474 6 51.0462 6 51.3824C6 51.4822 9.45964 53.8638 13.6882 56.6746L21.3763 61.7854L21.3816 63.1169L21.3867 64.4484H18.8148H16.2428L16.2996 73.572L16.3564 82.6955L16.8695 83.7895C17.602 85.3509 18.4682 86.2429 19.9694 86.9819C21.1194 87.5482 21.4733 87.6272 22.8621 87.627C24.1544 87.627 24.6432 87.5331 25.5293 87.1152C27.2236 86.3163 28.5135 84.8289 29.1487 82.9421C29.2586 82.6156 30.6481 82.5969 54.6199 82.5969H79.9746V75.1031V67.6094L87.52 67.5577L95.0654 67.5061V58.4318V49.3576L89.9858 49.3049L84.9062 49.2523V43.2424V37.2325L89.9858 37.1798L95.0654 37.1271L95.1167 28.1022L95.168 19.0773H62.8289H30.4899L29.9999 18.0072C29.3365 16.5583 28.0841 15.251 26.7411 14.6061C25.7449 14.1278 25.3687 14.0652 23.1621 14.0118C21.4674 13.9707 20.4387 14.0362 19.8725 14.2211ZM19.9072 17.5833C19.4732 17.8444 18.9714 18.3096 18.7919 18.6169C18.5416 19.0462 10.2651 47.1597 9.64468 49.6892C9.51981 50.1978 9.7301 50.3615 15.1707 53.992C18.2814 56.0676 20.9525 57.8144 21.1066 57.8734C21.3449 57.9649 21.3867 57.064 21.3867 51.8445V45.7082H22.8662H24.3457V51.8445C24.3457 57.064 24.3875 57.9649 24.6258 57.8734C25.0273 57.7193 36.1816 50.2609 36.1816 50.1465C36.1816 49.8176 27.2445 19.3366 27.0236 18.9118C26.7149 18.3187 26.0339 17.656 25.3944 17.3266C25.1525 17.2021 24.0273 17.1055 22.8299 17.1065C20.9279 17.1082 20.6107 17.1599 19.9072 17.5833ZM31.2964 22.2829C31.3449 22.4186 32.1312 25.1251 33.0435 28.2977L34.7021 34.0658L38.105 34.0678L41.5078 34.0695V28.0529V22.0363H36.3578C32.3221 22.0363 31.2269 22.0896 31.2964 22.2829ZM44.6641 28.0529V34.0695H55.7109H66.7578V28.0529V22.0363H55.7109H44.6641V28.0529ZM69.9141 28.0529V34.0695H80.9609H92.0078V28.0529V22.0363H80.9609H69.9141V28.0529ZM37.3666 43.1931L39.0931 49.1604L47.8951 49.2116L56.6973 49.2631V43.2444V37.2258H46.1686H35.6401L37.3666 43.1931ZM59.6562 43.2424V49.259H70.8018H81.9473V43.2424V37.2258H70.8018H59.6562V43.2424ZM31.3486 57.0634L24.4443 61.6855L24.3863 63.067L24.3283 64.4484H32.9181H41.5078V58.4318V52.4152L39.8804 52.4283L38.2529 52.4415L31.3486 57.0634ZM44.6641 58.4318V64.4484H55.7109H66.7578V58.4318V52.4152H55.7109H44.6641V58.4318ZM69.9141 58.4318V64.4484H80.9609H92.0078V58.4318V52.4152H80.9609H69.9141V58.4318ZM19.4141 74.8244C19.4141 82.8644 19.4223 82.9208 20.7478 83.9318C21.2818 84.3389 21.7025 84.4697 22.6433 84.5204C24.1394 84.6009 25.2022 84.0632 25.8672 82.8888C26.3061 82.114 26.3118 82.0092 26.3152 74.8542L26.3184 67.6047H22.8662H19.4141V74.8244ZM29.4746 73.6213V79.6379H40.5215H51.5684V73.6213V67.6047H40.5215H29.4746V73.6213ZM54.7246 73.6213V79.6379H65.7715H76.8184V73.6213V67.6047H65.7715H54.7246V73.6213Z" fill="black"/>
<path fill-rule="evenodd" clip-rule="evenodd" d="M87.7201 63H74.2799C73.5726 63 73 62.8897 73 62.7536V54.2463C73 54.1103 73.5726 54 74.2799 54H87.7201C88.4268 54 89 54.1103 89 54.2463V62.7536C89 62.8897 88.4268 63 87.7201 63Z" fill="#DE86A0"/>
<path fill-rule="evenodd" clip-rule="evenodd" d="M77.7201 48H64.2799C63.5726 48 63 47.8897 63 47.7536V39.2463C63 39.1103 63.5726 39 64.2799 39H77.7201C78.4268 39 79 39.1103 79 39.2463V47.7536C79 47.8897 78.4268 48 77.7201 48Z" fill="#DE86A0"/>
<path fill-rule="evenodd" clip-rule="evenodd" d="M61.7201 33H48.2799C47.5726 33 47 32.8897 47 32.7536V24.2463C47 24.1103 47.5726 24 48.2799 24H61.7201C62.4268 24 63 24.1103 63 24.2463V32.7536C63 32.8897 62.4268 33 61.7201 33Z" fill="#DE86A0"/>
<path fill-rule="evenodd" clip-rule="evenodd" d="M87.7201 33H74.2799C73.5726 33 73 32.8897 73 32.7536V24.2463C73 24.1103 73.5726 24 74.2799 24H87.7201C88.4268 24 89 24.1103 89 24.2463V32.7536C89 32.8897 88.4268 33 87.7201 33Z" fill="#DE86A0"/>
<path fill-rule="evenodd" clip-rule="evenodd" d="M71.7201 79H58.2799C57.5726 79 57 78.8897 57 78.7536V70.2463C57 70.1103 57.5726 70 58.2799 70H71.7201C72.4268 70 73 70.1103 73 70.2463V78.7536C73 78.8897 72.4268 79 71.7201 79Z" fill="#DE86A0"/>
<path fill-rule="evenodd" clip-rule="evenodd" d="M61.7201 63H48.2799C47.5726 63 47 62.8897 47 62.7536V54.2463C47 54.1103 47.5726 54 48.2799 54H61.7201C62.4268 54 63 54.1103 63 54.2463V62.7536C63 62.8897 62.4268 63 61.7201 63Z" fill="#DE86A0"/>
<path fill-rule="evenodd" clip-rule="evenodd" d="M53.7201 48H40.2799C39.5726 48 39 47.8897 39 47.7536V39.2463C39 39.1103 39.5726 39 40.2799 39H53.7201C54.4268 39 55 39.1103 55 39.2463V47.7536C55 47.8897 54.4268 48 53.7201 48Z" fill="#DE86A0"/>
<path fill-rule="evenodd" clip-rule="evenodd" d="M47.7201 78H34.2799C33.5726 78 33 77.8897 33 77.7536V69.2463C33 69.1103 33.5726 69 34.2799 69H47.7201C48.4268 69 49 69.1103 49 69.2463V77.7536C49 77.8897 48.4268 78 47.7201 78Z" fill="#DE86A0"/>
</svg>
