<svg width="19" height="19" viewBox="0 0 19 19" fill="none" xmlns="http://www.w3.org/2000/svg">
<path d="M9.5 0.90625C7.72615 0.90625 5.99214 1.43226 4.51723 2.41776C3.04233 3.40326 1.89278 4.80398 1.21396 6.44281C0.535136 8.08163 0.357525 9.88495 0.703586 11.6247C1.04965 13.3645 1.90384 14.9626 3.15814 16.2169C4.41244 17.4712 6.01052 18.3254 7.75029 18.6714C9.49006 19.0175 11.2934 18.8399 12.9322 18.161C14.571 17.4822 15.9717 16.3327 16.9572 14.8578C17.9427 13.3829 18.4688 11.6489 18.4688 9.875C18.4664 7.49705 17.5208 5.21716 15.8393 3.53569C14.1578 1.85423 11.878 0.908567 9.5 0.90625ZM10.1563 14.9062V15.5975C10.1563 15.7715 10.0871 15.9385 9.96404 16.0615C9.84097 16.1846 9.67405 16.2538 9.5 16.2538C9.32596 16.2538 9.15904 16.1846 9.03597 16.0615C8.9129 15.9385 8.84375 15.7715 8.84375 15.5975V14.9062C8.27354 14.821 7.73938 14.5752 7.30375 14.1975C6.9928 13.9368 6.73675 13.6169 6.55048 13.2564C6.36422 12.8959 6.25146 12.502 6.21875 12.0975C6.20768 11.9682 6.23518 11.8386 6.29778 11.7249C6.36037 11.6112 6.45526 11.5187 6.57044 11.4589C6.68563 11.3992 6.81593 11.3749 6.9449 11.3892C7.07387 11.4035 7.1957 11.4557 7.295 11.5393C7.42896 11.6507 7.51379 11.8104 7.53125 11.9837C7.54799 12.2178 7.61161 12.446 7.71833 12.655C7.82506 12.8639 7.97271 13.0493 8.1525 13.2C8.51408 13.5091 8.98142 13.6659 9.45625 13.6375C10.8213 13.6375 11.4688 13.1125 11.4688 12.045C11.4688 11.3362 10.8475 10.575 9.5 10.575C6.6475 10.575 6.21875 8.825 6.21875 7.81875C6.24207 7.19125 6.45773 6.58608 6.83649 6.08523C7.21525 5.58439 7.73882 5.21208 8.33625 5.01875C8.5025 4.96742 8.67167 4.9295 8.84375 4.905V4.2225C8.84375 4.04845 8.9129 3.88153 9.03597 3.75846C9.15904 3.63539 9.32596 3.56625 9.5 3.56625C9.67405 3.56625 9.84097 3.63539 9.96404 3.75846C10.0871 3.88153 10.1563 4.04845 10.1563 4.2225V4.93125C10.8432 5.04582 11.473 5.38419 11.9477 5.89374C12.4225 6.40328 12.7155 7.05544 12.7813 7.74875C12.7884 7.91613 12.7314 8.07992 12.6217 8.20656C12.512 8.3332 12.358 8.4131 12.1913 8.42988C12.0247 8.44666 11.8579 8.39905 11.7251 8.29682C11.5924 8.19458 11.5038 8.04545 11.4775 7.88C11.4289 7.40513 11.2007 6.96677 10.8397 6.65451C10.4786 6.34225 10.0119 6.17967 9.535 6.2H9.3775C9.16436 6.19832 8.95212 6.2278 8.7475 6.2875C8.52362 6.36052 8.31677 6.47798 8.13936 6.63285C7.96194 6.78771 7.81761 6.97678 7.715 7.18875C7.60978 7.39847 7.55014 7.62808 7.54 7.8625C7.54 8.58 7.77625 9.28 9.50875 9.28C11.6613 9.28 12.79 10.68 12.79 12.0625C12.8017 12.4228 12.7416 12.7818 12.6134 13.1187C12.4851 13.4555 12.2912 13.7636 12.0429 14.0249C11.7946 14.2862 11.4969 14.4956 11.167 14.6409C10.8371 14.7862 10.4817 14.8645 10.1213 14.8712L10.1563 14.9062Z" fill="white"/>
</svg>
