<svg width="69" height="53" viewBox="0 0 69 53" fill="none" xmlns="http://www.w3.org/2000/svg">
<path fill-rule="evenodd" clip-rule="evenodd" d="M52.46 0.0509047C52.1023 0.150607 37.2404 11.0377 37.0572 11.334C36.9974 11.4308 38.092 11.4871 39.9864 11.4845L43.0111 11.4805L47.9045 7.8663C50.596 5.87852 52.8546 4.25208 52.9236 4.25208C52.9926 4.25208 55.2584 5.8819 57.9587 7.87386L62.8686 11.4955L65.9343 11.4519L69 11.4082L61.8065 6.10141C57.85 3.18269 54.3905 0.643009 54.1187 0.457756C53.5282 0.0552464 52.9513 -0.0862668 52.46 0.0509047ZM40.3577 4.50054V6.83953L41.6442 5.86019L42.9307 4.88085V3.5212V2.16154H41.6442H40.3577V4.50054ZM17.6371 3.78187C15.9463 4.12906 14.1115 5.25602 12.975 6.64511C9.24018 11.2096 11.5242 18.0974 17.2814 19.6325C18.3742 19.9239 20.3326 19.9057 21.393 19.5942C23.9172 18.8527 25.7982 17.166 26.8454 14.7048C27.4044 13.3908 27.493 10.9507 27.0363 9.44707C26.0293 6.13148 23.1278 3.85295 19.7004 3.68651C18.9892 3.65194 18.0605 3.69487 17.6371 3.78187ZM48.2516 9.58843C44.2916 12.5292 43.5898 12.9917 42.985 13.0598L42.2874 13.1385V22.2849V31.4313L52.9411 31.39L63.5948 31.3487L63.6363 22.2227L63.678 13.0967H63.0513C62.3228 13.0967 62.2268 13.0341 56.6993 8.9558C54.6316 7.43002 52.9128 6.18487 52.88 6.18873C52.8474 6.19259 50.7646 7.72238 48.2516 9.58843ZM49.9899 12.4949C47.9771 13.8325 48.655 16.8365 51.0516 17.1988C51.8195 17.3147 52.9374 16.8093 53.4406 16.1185C53.9336 15.4416 53.9668 14.13 53.5107 13.3546C52.808 12.1599 51.1158 11.7468 49.9899 12.4949ZM50.5783 14.0974C50.4407 14.2939 50.328 14.5504 50.328 14.6675C50.328 14.9608 51.0622 15.6696 51.366 15.6696C51.7394 15.6696 52.2577 15.0767 52.2577 14.6493C52.2577 13.8103 51.0559 13.4152 50.5783 14.0974ZM55.4128 14.343C54.1917 16.2441 48.8807 25.675 48.8807 25.9419C48.8807 26.3129 49.2846 26.7656 49.6157 26.7656C49.7421 26.7656 49.9742 26.6369 50.1314 26.4797C50.4039 26.2072 56.7914 15.2385 57.0047 14.677C57.1319 14.342 56.5631 13.7399 56.1194 13.7399C55.9264 13.7399 55.6468 13.9786 55.4128 14.343ZM22.9097 24.1386C20.7872 26.0122 20.3146 26.2835 19.176 26.2825C18.1999 26.2819 17.7482 26.0065 15.5473 24.0718L13.8135 22.5475L11.6879 22.6197C10.0478 22.6754 9.34471 22.7709 8.60852 23.0383C4.86646 24.3975 1.93246 28.1362 0.53309 33.3281C-0.017526 35.3712 -0.174316 39.2125 0.217579 41.0626C0.706122 43.3696 1.87264 45.2155 3.26912 45.8916C4.1724 46.3288 5.36642 46.5405 6.30603 46.4297L7.06988 46.3396V41.0071C7.06988 35.3759 7.0813 35.2885 7.81427 35.2885C8.69246 35.2885 8.67799 35.1515 8.67799 43.4421C8.67799 50.8298 8.68909 51.1083 9.00218 51.615C9.65717 52.6749 9.47497 52.6561 19.1212 52.6561C27.4357 52.6561 27.855 52.6419 28.4419 52.3425C29.5972 51.7531 29.5834 51.8623 29.5834 43.3564C29.5834 35.1593 29.5695 35.2885 30.4471 35.2885C31.1762 35.2885 31.1915 35.3981 31.1915 40.6275V45.5804L40.5587 45.5795C46.5061 45.579 50.1443 45.518 50.524 45.4125C51.7678 45.0671 52.733 43.7703 52.733 42.4446C52.733 41.2348 51.9336 40.0731 50.73 39.5339C50.5531 39.4547 47.3182 39.3535 43.5416 39.3091C38.2146 39.2466 36.6278 39.1816 36.4659 39.0197C36.3112 38.8653 36.2329 37.779 36.1642 34.8386C36.0813 31.2866 36.0325 30.7471 35.7035 29.7406C34.711 26.7038 32.9023 24.4047 30.5934 23.2454C29.5417 22.7172 28.0396 22.4282 26.3672 22.4319L24.8395 22.4354L22.9097 24.1386ZM53.4478 23.5341C52.473 23.977 52.0165 24.7088 52.0165 25.8292C52.0165 26.5035 52.1044 26.8606 52.3529 27.1961C53.5122 28.7606 55.4961 28.7746 56.6427 27.2261C57.4761 26.1006 56.9689 24.2592 55.6408 23.5896C54.7736 23.1523 54.3143 23.1406 53.4478 23.5341ZM53.8658 25.1575C53.2315 25.7917 53.6477 26.7656 54.5528 26.7656C55.0032 26.7656 55.4739 26.2542 55.4739 25.7649C55.4739 25.3812 54.9077 24.8358 54.509 24.8358C54.3321 24.8358 54.0427 24.9806 53.8658 25.1575Z" fill="#8A1538"/>
</svg>
