<svg width="69" height="68" viewBox="0 0 69 68" fill="none" xmlns="http://www.w3.org/2000/svg">
<g filter="url(#filter0_d_2172_5530)">
<path d="M55.8737 0.916016L52.6945 7.94518L45.6654 11.1243L52.6945 14.3035L55.8737 21.3327L59.082 14.3035L66.082 11.1243L59.082 7.94518L55.8737 0.916016ZM33.9987 3.83268C17.957 3.83268 4.83203 16.9577 4.83203 32.9994V62.166H63.1654V32.9994C63.1654 28.7118 62.2029 24.6285 60.5404 20.9535L56.9237 28.8869C57.157 30.2285 57.332 31.541 57.332 32.9994C57.332 45.9202 46.9195 56.3327 33.9987 56.3327C21.0779 56.3327 10.6654 45.9202 10.6654 32.9994V32.6202C14.4209 31.2133 17.8459 29.0471 20.7265 26.2569C23.6071 23.4666 25.8813 20.1123 27.407 16.4035C30.1426 19.7668 33.5936 22.4779 37.5088 24.3397C41.424 26.2014 45.705 27.167 50.0404 27.166C51.3378 27.1649 52.6338 27.0772 53.9195 26.9035L49.6029 17.3952L35.7487 11.1243L46.0445 6.45768C42.3695 4.79518 38.2862 3.83268 33.9987 3.83268ZM25.2487 32.2702C24.2818 32.2702 23.3544 32.6543 22.6707 33.338C21.987 34.0217 21.6029 34.9491 21.6029 35.916C21.6029 36.883 21.987 37.8103 22.6707 38.494C23.3544 39.1777 24.2818 39.5619 25.2487 39.5619C25.7275 39.5619 26.2016 39.4675 26.6439 39.2843C27.0862 39.1011 27.4881 38.8326 27.8267 38.494C28.1652 38.1555 28.4338 37.7536 28.617 37.3112C28.8002 36.8689 28.8945 36.3948 28.8945 35.916C28.8945 35.4372 28.8002 34.9632 28.617 34.5208C28.4338 34.0785 28.1652 33.6766 27.8267 33.338C27.4881 32.9995 27.0862 32.7309 26.6439 32.5477C26.2016 32.3645 25.7275 32.2702 25.2487 32.2702ZM42.7487 32.2702C41.7818 32.2702 40.8544 32.6543 40.1707 33.338C39.487 34.0217 39.1029 34.9491 39.1029 35.916C39.1029 36.883 39.487 37.8103 40.1707 38.494C40.8544 39.1777 41.7818 39.5619 42.7487 39.5619C43.7156 39.5619 44.643 39.1777 45.3267 38.494C46.0104 37.8103 46.3945 36.883 46.3945 35.916C46.3945 34.9491 46.0104 34.0217 45.3267 33.338C44.643 32.6543 43.7156 32.2702 42.7487 32.2702Z" fill="#8A1538"/>
</g>
<defs>
<filter id="filter0_d_2172_5530" x="0.832031" y="0.916016" width="69.25" height="69.25" filterUnits="userSpaceOnUse" color-interpolation-filters="sRGB">
<feFlood flood-opacity="0" result="BackgroundImageFix"/>
<feColorMatrix in="SourceAlpha" type="matrix" values="0 0 0 0 0 0 0 0 0 0 0 0 0 0 0 0 0 0 127 0" result="hardAlpha"/>
<feOffset dy="4"/>
<feGaussianBlur stdDeviation="2"/>
<feComposite in2="hardAlpha" operator="out"/>
<feColorMatrix type="matrix" values="0 0 0 0 0 0 0 0 0 0 0 0 0 0 0 0 0 0 0.25 0"/>
<feBlend mode="normal" in2="BackgroundImageFix" result="effect1_dropShadow_2172_5530"/>
<feBlend mode="normal" in="SourceGraphic" in2="effect1_dropShadow_2172_5530" result="shape"/>
</filter>
</defs>
</svg>
