<svg width="70" height="66" viewBox="0 0 70 66" fill="none" xmlns="http://www.w3.org/2000/svg">
<g filter="url(#filter0_d_2172_7148)">
<path d="M63.3202 21.4036C66.9661 17.7577 65.3036 13.4994 63.3202 11.4286L54.5702 2.67857C50.8952 -0.96726 46.6661 0.69524 44.5952 2.67857L39.6369 7.66607H32.0827C26.5411 7.66607 23.3327 10.5827 21.6994 13.9369L8.74941 26.8869V38.5536L6.67857 40.5952C3.03274 44.2702 4.69524 48.4994 6.67857 50.5702L15.4286 59.3202C17.0036 60.8952 18.6952 61.4786 20.2994 61.4786C22.3702 61.4786 24.2661 60.4577 25.4036 59.3202L33.2786 51.4161H43.7494C48.7077 51.4161 51.2161 48.3244 52.1202 45.2911C55.4161 44.4161 57.2244 41.9077 57.9536 39.4577C62.4744 38.2911 64.1661 34.0036 64.1661 30.9994V22.2494H62.4452L63.3202 21.4036ZM58.3327 30.9994C58.3327 32.3119 57.7786 33.9161 55.4161 33.9161H52.4994V36.8327C52.4994 38.1452 51.9452 39.7494 49.5827 39.7494H46.6661V42.6661C46.6661 43.9786 46.1119 45.5827 43.7494 45.5827H30.8869L21.3202 55.1494C20.4161 55.9952 19.8911 55.4994 19.5702 55.1786L10.8494 46.4869C10.0036 45.5827 10.4994 45.0577 10.8202 44.7369L14.5827 40.9452V29.2786L20.4161 23.4452V28.0827C20.4161 31.6119 22.7494 36.8327 29.1661 36.8327C35.5827 36.8327 37.9161 31.6119 37.9161 28.0827H58.3327V30.9994ZM59.1786 17.2619L54.2202 22.2494H32.0827V28.0827C32.0827 29.3952 31.5286 30.9994 29.1661 30.9994C26.8036 30.9994 26.2494 29.3952 26.2494 28.0827V19.3327C26.2494 17.9911 26.7452 13.4994 32.0827 13.4994H42.0286L48.6786 6.84941C49.5827 6.00357 50.1077 6.49941 50.4286 6.82024L59.1494 15.5119C59.9952 16.4161 59.4994 16.9411 59.1786 17.2619Z" fill="#8A1538"/>
</g>
<defs>
<filter id="filter0_d_2172_7148" x="0.523438" y="0.523438" width="68.9531" height="68.9551" filterUnits="userSpaceOnUse" color-interpolation-filters="sRGB">
<feFlood flood-opacity="0" result="BackgroundImageFix"/>
<feColorMatrix in="SourceAlpha" type="matrix" values="0 0 0 0 0 0 0 0 0 0 0 0 0 0 0 0 0 0 127 0" result="hardAlpha"/>
<feOffset dy="4"/>
<feGaussianBlur stdDeviation="2"/>
<feComposite in2="hardAlpha" operator="out"/>
<feColorMatrix type="matrix" values="0 0 0 0 0 0 0 0 0 0 0 0 0 0 0 0 0 0 0.25 0"/>
<feBlend mode="normal" in2="BackgroundImageFix" result="effect1_dropShadow_2172_7148"/>
<feBlend mode="normal" in="SourceGraphic" in2="effect1_dropShadow_2172_7148" result="shape"/>
</filter>
</defs>
</svg>
