<svg width="101" height="101" viewBox="0 0 101 101" fill="none" xmlns="http://www.w3.org/2000/svg">
<path fill-rule="evenodd" clip-rule="evenodd" d="M47.5007 7.18768C43.0507 7.65028 37.3325 9.60262 33.8825 11.8372C31.8874 13.1296 30.763 14.9894 30.4632 17.4932C30.3672 18.2941 30.0489 23.6201 29.756 29.3288C29.1582 40.9724 29.1404 40.6263 30.3974 41.7248C30.967 42.2227 31 42.3132 31 43.3793C31 46.1361 31.6581 48.538 32.7205 49.6584C32.9804 49.9324 33.5877 50.4121 34.0702 50.7242C34.5526 51.0364 35.0875 51.4492 35.2588 51.6415C35.43 51.8337 36.4002 53.751 37.4147 55.9017C40.0177 61.4203 40.1146 61.603 41.0554 62.7758C42.626 64.733 44.987 66.2755 47.4912 66.9801C49.0482 67.4183 52.7249 67.434 54.3333 67.0095C57.1733 66.2596 60.0302 64.2624 61.5114 61.991C61.8574 61.4605 63.0767 59.0244 64.2211 56.5775C66.4212 51.873 66.5814 51.6359 68.4628 50.2951C70.066 49.1527 70.7344 47.5447 70.9305 44.3577C71.0339 42.6776 71.0839 42.4803 71.5268 42.0002C72.0763 41.4051 72.3714 40.8828 72.6012 40.0987C72.7744 39.5081 71.8526 19.6497 71.5407 17.251C71.3042 15.4319 70.6584 14.1304 69.346 12.8278C68.466 11.9545 67.8384 11.5539 65.7368 10.5231C59.7975 7.60976 53.87 6.52567 47.5007 7.18768ZM47.6667 9.97703C44.2484 10.368 40.9763 11.3393 37.6974 12.9363C35.2884 14.1094 34.2061 14.9775 33.6293 16.1989C33.2923 16.9126 33.2161 17.5498 33.0091 21.3862C32.8791 23.7917 32.7288 26.4082 32.6749 27.2005L32.5768 28.6412H33.066C33.7023 28.6412 34.8319 28.323 37.3246 27.4413C41.8621 25.8364 45.3398 25.2488 50.2982 25.2488C55.9333 25.2488 59.8254 26.0196 65.3168 28.2236C67.776 29.2104 69.4211 29.5766 69.4211 29.1371C69.4211 28.4264 68.8886 18.6376 68.806 17.828C68.5796 15.6132 67.6375 14.5736 64.4211 12.9897C59.0791 10.3589 53.3442 9.32776 47.6667 9.97703ZM44.7395 15.5452C44.0744 15.8119 43.9825 16.2677 43.9825 19.295C43.9825 22.142 43.9905 22.2036 44.4132 22.6243L44.8437 23.053H50.9726C56.743 23.053 57.1258 23.0335 57.5156 22.7197C57.9154 22.3978 57.9318 22.2873 57.9861 19.5549C58.0472 16.4802 57.933 15.8955 57.2079 15.5667C56.6816 15.3278 45.3302 15.3084 44.7395 15.5452ZM46.7895 19.2112V20.259H51H55.2105V19.2112V18.1634H51H46.7895V19.2112ZM46.7018 28.1218C43.9909 28.4265 41.4072 29.0332 38.0779 30.1468C35.9951 30.8432 34.2772 31.3116 33.5604 31.3781L32.4035 31.4857V32.2154C32.4035 32.6169 32.3186 34.3782 32.2151 36.1294C31.9918 39.9019 31.9954 39.9132 33.3904 39.75C33.8914 39.6915 35.0081 39.375 35.8718 39.0469C40.9982 37.0996 45.1514 36.3105 50.2982 36.3058C53.6725 36.3026 56.2754 36.5955 59.2456 37.312C61.2268 37.7899 64.9768 39.0827 66.2661 39.7322C67.5161 40.3617 68.5005 40.5761 69.0679 40.3421C69.9318 39.9861 69.9832 39.6827 69.7811 36.1449C69.6796 34.3709 69.5967 32.7428 69.5967 32.5266C69.5965 32.2003 69.4998 32.1332 69.0263 32.1311C68.0609 32.1267 66.4304 31.6689 64.1489 30.7613C59.4332 28.8855 55.8518 28.1367 51.0877 28.0305C49.4474 27.994 47.4737 28.035 46.7018 28.1218ZM48.1053 39.1271C44.3242 39.356 41.9663 39.8811 36.7018 41.6667C35.3509 42.1249 34.147 42.5224 34.0263 42.5501C33.553 42.6588 33.9004 46.3993 34.4739 47.3711C34.6379 47.6489 35.2233 48.1494 35.7749 48.4835C36.3265 48.8176 37.0447 49.4013 37.3711 49.7808C37.7146 50.1802 38.906 52.475 40.1996 55.2289C42.5449 60.2217 43.2616 61.3833 44.6891 62.5065C49.0947 65.9729 56.1704 65.0168 59.1126 60.5577C59.4465 60.0518 60.6882 57.578 61.8723 55.0604C63.1175 52.4126 64.2775 50.1896 64.6237 49.7869C64.9528 49.4041 65.6735 48.8176 66.2251 48.4835C67.4449 47.7448 67.7854 47.2036 68.0119 45.6442C68.3414 43.3754 68.3481 43.3948 67.0965 42.9935C66.4935 42.8002 64.9251 42.2042 63.6112 41.6691C58.6482 39.6483 53.4832 38.8016 48.1053 39.1271ZM73.0219 51.4487C70.3886 52.7944 68.6316 54.8164 67.6512 57.6295C67.0547 59.3407 67.0788 62.2998 67.7032 64.0432C67.9518 64.7376 68.363 65.6584 68.6168 66.0897C69.2639 67.1887 70.8482 68.8471 71.8821 69.5074L72.7544 70.0644V71.7926C72.7544 73.0785 72.697 73.5207 72.5302 73.5207C72.407 73.5207 70.4925 73.2034 68.2758 72.8154C65.6658 72.3585 64.0911 72.0016 63.807 71.8022C63.073 71.287 62.5677 70.0267 62.3109 68.0704C62.1193 66.6103 62.0047 66.2209 61.6939 65.9701C60.7582 65.2161 59.4163 65.9336 59.4265 67.1825C59.4381 68.5958 59.7879 70.4678 60.2132 71.3927C60.7181 72.4906 60.7967 72.3631 59.0702 73.2441C54.0605 75.8006 49.0081 75.8969 44.0702 73.5301C41.4947 72.2958 41.5975 72.4204 42.0502 71.0834C42.2854 70.388 42.4642 69.3073 42.5274 68.1982L42.6282 66.4248L42.1412 66.0436C41.0958 65.2251 40.0654 65.8342 39.88 67.3804C39.8205 67.8762 39.7272 68.659 39.6726 69.12C39.5474 70.176 38.9628 71.2278 38.2805 71.6241C37.9537 71.8142 34.9647 72.4298 30.386 73.2504C22.1368 74.7286 20.8012 75.0448 19.4304 75.8445C18.1644 76.5832 16.4718 78.2783 15.8502 79.4299C15.2839 80.4795 11 93.1179 11 93.7392C11 93.9611 11.1939 94.3355 11.4307 94.5713L11.8612 95H51H90.1388L90.5693 94.5713C90.8061 94.3355 91 93.9611 91 93.7392C91 93.0887 86.68 80.3869 86.1537 79.4902C85.5784 78.5098 83.9702 76.7929 83.1612 76.2952L82.5789 75.937V73.0008V70.0644L83.4591 69.5023C83.9432 69.1932 84.7998 68.4399 85.3628 67.8283C89.2386 63.618 89.1044 57.4521 85.0497 53.4393C83.7677 52.1708 81.8651 50.9936 81.0965 50.9936C80.9321 50.9936 80.5668 51.2232 80.2847 51.504L79.7719 52.0145V55.3459V58.6773H77.6667H75.5614L75.5558 55.3157C75.55 51.7993 75.5118 51.606 74.7397 51.1967C74.2051 50.9133 74.0147 50.9412 73.0219 51.4487ZM71.923 55.7849C70.3623 57.5513 69.7047 59.7788 70.0875 62.0013C70.5051 64.4245 72.0151 66.5066 74.1232 67.5659C74.7072 67.8592 75.25 68.1994 75.3293 68.3216C75.4088 68.4437 75.5132 69.7973 75.5614 71.3293L75.6491 74.1148L77.3158 74.4162C80.0589 74.9123 79.7719 75.2099 79.7719 71.8699C79.7719 70.1338 79.8491 68.8281 79.967 68.5707C80.0791 68.3258 80.5821 67.9329 81.1497 67.6472C84.8349 65.7911 86.4209 61.1767 84.6184 57.5546C84.2803 56.8754 83.6833 56.0091 83.2914 55.6295L82.5789 54.9392V57.7767C82.5789 60.5564 82.5702 60.6228 82.1482 61.0426L81.7177 61.4713H77.7767C75.6091 61.4713 73.7086 61.4228 73.5533 61.3634C72.9777 61.1435 72.8426 60.5287 72.7544 57.7269L72.6667 54.943L71.923 55.7849ZM38.8947 74.4172C38.6535 74.514 37.9825 74.6893 37.4035 74.8068L36.3509 75.0204L36.3028 78.0251L36.2549 81.0297H51.0002H65.7453L65.6972 78.1124L65.6491 75.195L64.5965 74.9815C64.0175 74.8639 63.3533 74.6968 63.1203 74.61C62.7753 74.4815 62.4498 74.5908 61.366 75.1996C54.7239 78.9291 47.2579 78.8566 40.8767 75.0003C39.4649 74.1473 39.5244 74.1647 38.8947 74.4172ZM31.8772 75.8074C31.443 75.8916 30.6732 76.0458 30.1667 76.1501L29.2456 76.3395V84.2727V92.2059H51.0018H72.7579L72.7123 84.304L72.6667 76.4021L71 76.1054C70.0833 75.9421 69.1558 75.8047 68.9386 75.7998L68.5439 75.7909V79.8073V83.8238H51H33.4561V79.72V75.6162L33.0614 75.6354C32.8442 75.6459 32.3114 75.7233 31.8772 75.8074ZM24.1 77.2031C23.1516 77.3798 21.9502 77.7182 21.4302 77.955C20.3946 78.4271 18.923 79.6999 18.3544 80.6157C18.0905 81.0409 14.3333 91.8265 14.3333 92.1591C14.3333 92.1848 17.057 92.2059 20.386 92.2059H26.4386V84.5223C26.4386 77.3128 26.4196 76.84 26.1316 76.8603C25.9626 76.8722 25.0486 77.0265 24.1 77.2031ZM75.5614 84.6096V92.2059H81.5914H87.6216L85.9767 87.1995C85.0721 84.4458 84.1396 81.7752 83.9049 81.2646C83.373 80.108 82.0398 78.7613 80.8158 78.1438C79.9993 77.732 76.8628 77.0133 75.8826 77.0133C75.5763 77.0133 75.5614 77.3641 75.5614 84.6096Z" fill="black"/>
<rect x="33" y="86" width="36" height="4" fill="#DE86A0"/>
<rect x="33" y="86" width="36" height="4" fill="#DE86A0"/>
<rect x="47" y="18" width="8" height="2" fill="#DE86A0"/>
<path d="M51 39C55.7431 39 59.8428 40.2621 61.791 42.0928C63.132 43.0958 64 44.6966 64 46.5C64 48.7211 62.6825 50.6328 60.7871 51.501C60.9252 52.1456 61 52.8141 61 53.5C61 58.7467 56.7467 63 51.5 63C46.2533 63 42 58.7467 42 53.5C42 52.9308 42.0525 52.3737 42.1484 51.832C39.7644 51.2296 38 49.0712 38 46.5C38 44.6966 38.868 43.0958 40.209 42.0928C42.1572 40.2621 46.2569 39 51 39Z" fill="#DE86A0"/>
</svg>
