<svg width="69" height="69" viewBox="0 0 69 69" fill="none" xmlns="http://www.w3.org/2000/svg">
<path fill-rule="evenodd" clip-rule="evenodd" d="M46.5082 0.205991C45.457 0.488596 44.5971 0.998955 43.7578 1.83841C42.8985 2.69768 42.4069 3.53984 42.1186 4.6468C41.8134 5.8186 41.8068 27.0254 42.1115 27.6145C42.5331 28.4301 43.6287 28.9399 44.4518 28.7038C44.6916 28.635 46.1594 27.6655 47.7137 26.5494L50.5396 24.5201H57.0462C64.1777 24.5201 64.4698 24.4933 65.8256 23.7139C66.6428 23.244 67.7576 22.1206 68.2349 21.2857C68.9717 19.9972 69 19.6626 69 12.2564C69 4.78157 68.978 4.53454 68.1903 3.15777C67.716 2.32869 66.44 1.07928 65.6627 0.682659C64.3357 0.00572853 64.1286 -0.00801761 55.394 0.00155079C48.7095 0.00882816 47.1039 0.0457541 46.5082 0.205991ZM58.7049 7.87526C58.4328 8.05989 57.1236 9.12077 55.7955 10.2327L53.3807 12.2545L52.9359 11.7096C52.4265 11.0858 51.6625 10.6378 51.1152 10.6421C50.9083 10.6438 50.4794 10.763 50.1618 10.9071C49.7212 11.1071 49.5225 11.3057 49.3225 11.7464C48.7988 12.9006 49.0552 13.503 50.9097 15.477L52.2262 16.8785L52.9795 16.9408C53.4423 16.9793 53.8543 16.9383 54.0481 16.8347C54.2215 16.7418 55.9863 15.3106 57.9697 13.6543C61.12 11.0235 61.5959 10.576 61.7341 10.1149C62.2826 8.28428 60.282 6.80509 58.7049 7.87526ZM9.00346 18.4614C5.40318 18.8812 2.53482 21.1247 1.2067 24.5596C0.191773 27.1839 -0.000269249 28.9526 2.83104e-07 35.6667C0.000135049 41.5068 0.00107844 41.5133 0.943094 42.152C1.3893 42.4546 1.49833 42.4681 2.96459 42.4042C3.81698 42.3672 4.98945 42.2292 5.57015 42.0976C6.77928 41.8237 6.73103 42.0091 6.07661 40.1511C5.38067 38.1758 5.25561 37.0465 5.25561 32.7408C5.25561 28.5445 5.37677 27.3747 6.00855 25.4722C6.76081 23.2068 7.95592 21.2278 9.69669 19.3653C10.7985 18.1865 10.8446 18.2467 9.00346 18.4614ZM20.2521 18.4669C16.0737 18.8632 12.3567 21.3958 10.4779 25.1265C10.1036 25.87 9.43336 27.8964 9.43336 28.2851C9.43336 28.4904 9.6091 28.5571 10.4778 28.6813C15.5185 29.4016 20.8719 28.5479 25.5449 26.2784C27.0765 25.5345 29.4247 24.057 30.4443 23.1957L30.9035 22.808L30.3096 22.1636C29.0235 20.7682 27.0636 19.5534 25.122 18.9483C24.1536 18.6466 23.6899 18.5698 21.8318 18.4039C21.5724 18.3807 20.8615 18.4091 20.2521 18.4669ZM32.3436 26.8065C30.5381 28.2627 27.2141 30.087 24.602 31.0553C20.0955 32.7256 14.6976 33.314 9.84938 32.6635L9.11989 32.5655L9.2083 34.641C9.3176 37.2086 9.62069 38.5463 10.5027 40.3551C12.0145 43.4557 14.971 45.8621 18.3953 46.7793C19.938 47.1926 22.7883 47.1963 24.3563 46.787C26.4555 46.239 28.4118 45.1435 29.9007 43.6818C30.6666 42.93 31.9393 41.311 31.9393 41.0885C31.9393 41.0264 30.0139 40.9573 27.6605 40.9349C22.7648 40.8883 22.7084 40.8761 22.1291 39.7456C21.7786 39.0612 21.8138 38.4843 22.2496 37.7752C22.7652 36.9361 22.891 36.9186 28.4063 36.9186H33.3903L33.4716 36.6154C33.5162 36.4485 33.5529 34.705 33.5529 32.7408C33.553 29.7312 33.5119 28.9702 33.2914 27.9023C33.1476 27.2053 32.9817 26.5879 32.9227 26.5305C32.8635 26.473 32.603 26.5972 32.3436 26.8065ZM37.5321 32.852C37.5321 37.3486 37.5031 37.6425 36.8402 39.8636C36.6554 40.4827 36.5404 41.0254 36.5844 41.0695C36.6285 41.1137 37.1023 41.0761 37.6374 40.9862C41.2258 40.383 43.5742 37.0137 42.8399 33.5223C42.3385 31.1389 40.2999 29.1179 37.9364 28.6615L37.5321 28.5833V32.852ZM8.59768 46.5068C6.45934 47.667 4.56669 49.8571 3.59664 52.2935C2.91297 54.0104 2.82982 55.0078 2.82982 61.4855V67.4194L3.15811 67.9798C3.80391 69.0815 2.35154 69.0041 21.5862 68.9625C38.5896 68.9257 38.6594 68.9245 39.03 68.6477C39.2347 68.4948 39.5272 68.2024 39.68 67.9978C39.9481 67.6391 39.9594 67.4348 40.0009 62.2112C40.0494 56.086 39.9404 54.4616 39.3657 52.7516C38.484 50.1274 36.3885 47.6373 34.0175 46.3959L33.3205 46.0309L32.394 46.8732C31.2559 47.9081 29.7762 48.9167 28.5538 49.4906L27.6322 49.9235L27.6295 51.1418C27.6232 54.0341 26.3965 56.1108 24.0306 57.2343C23.1167 57.6683 22.8334 57.7367 21.7549 57.7839C19.8657 57.8665 18.4875 57.3788 17.1646 56.1594C15.8219 54.9217 15.2283 53.4584 15.2283 51.3868V49.9948L14.386 49.5722C13.0433 48.8985 11.446 47.8084 10.4875 46.9119C10.0001 46.4558 9.54818 46.0843 9.48363 46.0863C9.41894 46.0882 9.0203 46.2774 8.59768 46.5068ZM19.1373 51.3945C19.1388 51.9941 19.4527 52.7598 19.866 53.1731C21.2429 54.55 23.5838 53.5897 23.5838 51.6478V51.1217L21.3602 51.1177C19.1947 51.1136 19.1365 51.1209 19.1373 51.3945Z" fill="#8A1538"/>
</svg>
