<svg width="14" height="17" viewBox="0 0 14 17" fill="none" xmlns="http://www.w3.org/2000/svg">
<path d="M7 16C7 16 1 11.5 1 7.00003C1 3.25003 4 1.00003 7 1.00003C10 1.00003 13 3.25003 13 7.00003C13 11.5 7 16 7 16ZM7 9.25003C7.59674 9.25003 8.16903 9.01298 8.59099 8.59102C9.01295 8.16906 9.25 7.59677 9.25 7.00003C9.25 6.40329 9.01295 5.831 8.59099 5.40904C8.16903 4.98708 7.59674 4.75003 7 4.75003C6.40326 4.75003 5.83097 4.98708 5.40901 5.40904C4.98705 5.831 4.75 6.40329 4.75 7.00003C4.75 7.59677 4.98705 8.16906 5.40901 8.59102C5.83097 9.01298 6.40326 9.25003 7 9.25003Z" stroke="white" stroke-width="1.5"/>
</svg>
