<svg width="75" height="83" viewBox="0 0 75 83" fill="none" xmlns="http://www.w3.org/2000/svg">
<path fill-rule="evenodd" clip-rule="evenodd" d="M32.4241 0.035663C29.9889 0.319855 28.5403 0.629706 27.8996 1.00354C27.1038 1.46767 26.4936 2.30141 26.2381 3.27367C26.0801 3.8747 25.9814 3.96694 25.1244 4.3143C22.931 5.20342 19.4373 7.19845 18.9222 7.85615C18.561 8.31735 18.6726 9.13193 19.1482 9.50414C19.3846 9.68927 19.7049 9.84078 19.8598 9.84078C20.0148 9.84078 20.7208 9.45997 21.4286 8.9947C22.6153 8.21455 25.6541 6.59709 25.9383 6.59417C26.0055 6.59336 26.0607 13.0237 26.0607 20.8837V35.1745H22.2263H18.3919L18.3916 32.3732C18.3914 29.2183 18.2655 28.7371 17.2664 28.0729C16.7413 27.7238 16.5568 27.7043 13.7752 27.7043H10.8385L10.9415 26.4914C11.3011 22.2563 13.2974 17.3386 16.0197 13.9819C16.8707 12.9323 16.9817 12.6462 16.7516 12.0934C16.5304 11.5617 16.1523 11.3023 15.5989 11.3023C14.7783 11.3023 12.6697 14.0962 11.1253 17.2298C9.67644 20.1698 8.7526 23.3992 8.50083 26.4042C8.3938 27.6827 8.3845 27.7043 7.94999 27.7043C7.35133 27.7043 6.49782 28.3125 6.13037 29.0009C5.87012 29.4882 5.82819 29.9532 5.82819 32.349V35.1311L4.21383 35.2084C2.82986 35.2747 2.49048 35.3494 1.83537 35.7315C0.462494 36.5323 -0.285945 38.2308 0.102062 39.6649C0.326578 40.4944 4.72764 48.1733 5.55195 49.1735C6.73898 50.6141 8.71964 51.8637 10.8047 52.4877C11.7258 52.7634 13.2308 52.7839 36.2585 52.8349C50.8728 52.8672 61.3578 52.8271 62.2834 52.7353C65.0525 52.461 67.0865 51.5272 68.8916 49.7016C69.6643 48.92 70.3637 47.8526 72.2102 44.6362C75.1687 39.483 75.2728 39.2039 74.769 37.7826C74.419 36.7952 73.946 36.208 73.1058 35.718C72.4771 35.3512 72.1205 35.274 70.7507 35.2084L69.1363 35.1311V32.3855C69.1363 29.9751 69.0972 29.5637 68.8151 29.0134C68.4577 28.3162 67.5993 27.7043 66.9786 27.7043C66.5879 27.7043 66.5684 27.654 66.4614 26.3645C65.9081 19.7037 62.3818 13.0336 57.0982 8.65432C54.954 6.87723 51.9456 5.08714 49.6792 4.24025C48.99 3.98269 48.8852 3.87697 48.7289 3.28244C48.4715 2.30303 47.863 1.46864 47.0718 1.00987C45.7864 0.264641 43.9873 0.0621335 38.2165 0.0132524C35.3448 -0.0111069 32.7382 -0.000875998 32.4241 0.035663ZM32.5057 2.46689C29.3849 2.88311 28.9663 3.00896 28.6893 3.61405C28.5605 3.89532 28.5082 8.51807 28.5082 19.5922V35.1745H29.7977H31.0872L31.1438 32.2631C31.2066 29.0364 31.2616 28.8562 32.4225 28.0697C32.9499 27.7124 33.0631 27.7043 37.4823 27.7043C41.9014 27.7043 42.0147 27.7124 42.542 28.0697C43.7029 28.8562 43.7579 29.0364 43.8207 32.2631L43.8774 35.1745H45.1669H46.4564V28.5163C46.4564 22.0745 46.467 21.8475 46.7827 21.5333C47.2224 21.0956 48.1058 21.1042 48.5114 21.5502C48.8048 21.8727 48.8249 22.2658 48.8683 28.5332L48.9143 35.1745H52.7434H56.5726L56.5729 32.3732C56.5731 29.2183 56.6991 28.7371 57.6981 28.0729C58.2232 27.7238 58.4077 27.7043 61.1894 27.7043H64.126L64.0236 26.4974C63.8 23.8658 62.8165 20.4779 61.5423 17.9507C59.9168 14.7271 56.6299 11.0188 53.6533 9.05105C52.3775 8.20741 49.3251 6.59287 49.0063 6.59287C48.957 6.59287 48.8954 8.96027 48.8694 11.8538C48.8254 16.7624 48.8014 17.1379 48.5114 17.4565C48.1058 17.9024 47.2224 17.911 46.7827 17.4734C46.4671 17.1593 46.4564 16.9321 46.4564 10.5792C46.4564 6.04268 46.3993 3.88525 46.272 3.60723C45.8664 2.72087 44.4409 2.51691 38.2165 2.45422C35.3448 2.42531 32.7749 2.431 32.5057 2.46689ZM35.9231 5.2752C35.0801 5.65634 34.1491 6.73481 33.9037 7.61467C33.7681 8.10088 33.7273 10.3358 33.7621 15.3622C33.8156 23.0936 33.7848 22.8432 34.8135 23.8671C36.8281 25.8722 40.3009 25.0209 41.0757 22.3323C41.3118 21.5126 41.2852 8.3396 41.0456 7.54419C40.7927 6.70379 39.8562 5.64351 39.0415 5.2752C38.6554 5.10062 38.0059 4.97606 37.4823 4.97606C36.9587 4.97606 36.3091 5.10062 35.9231 5.2752ZM36.5775 7.80353L36.1769 8.20205V14.9398V21.6775L36.5591 22.1197C37.0833 22.7262 37.8812 22.7262 38.4055 22.1197L38.7876 21.6775V14.9398V8.20205L38.387 7.80353C38.1346 7.55214 37.8001 7.40485 37.4823 7.40485C37.1644 7.40485 36.8299 7.55214 36.5775 7.80353ZM8.27567 32.6574V35.1745H12.1101H15.9444V32.6574V30.1402H12.1101H8.27567V32.6574ZM33.5663 32.6574V35.1745H37.4823H41.3982V32.6574V30.1402H37.4823H33.5663V32.6574ZM59.0201 32.6574V35.1745H62.8545H66.6889V32.6574V30.1402H62.8545H59.0201V32.6574ZM3.11377 37.8004C2.78091 37.9609 2.40171 38.5661 2.40171 38.9374C2.40171 39.3523 7.10349 47.2707 7.74717 47.9399C8.64752 48.8761 9.68982 49.5259 11.0317 49.9876L12.1101 50.3585H37.4823H62.8545L63.9328 49.9876C65.2747 49.5259 66.317 48.8761 67.2174 47.9399C67.861 47.2707 72.5628 39.3523 72.5628 38.9374C72.5628 38.5437 72.1758 37.9599 71.8029 37.7907C71.2612 37.5452 3.62366 37.5546 3.11377 37.8004ZM14.355 45.3564C13.5477 45.5137 13.2181 46.7518 13.8233 47.3542C14.1465 47.6759 14.3671 47.679 37.4823 47.679C60.5974 47.679 60.818 47.6759 61.1412 47.3542C61.5536 46.9438 61.5601 46.2047 61.1556 45.7076L60.8438 45.3242L37.7822 45.3046C25.0983 45.2938 14.5561 45.3171 14.355 45.3564ZM12.1916 55.6258C10.7417 56.0664 9.51703 57.1442 8.858 58.5595L8.44209 59.4526L8.44046 69.154C8.439 78.3384 8.45564 78.8994 8.75293 79.6782C9.20391 80.8595 10.0507 81.8007 11.2397 82.4423L12.2732 83H37.4823H62.6913L63.7356 82.4367C64.3926 82.0821 65.0076 81.5865 65.3938 81.1001C66.5668 79.6231 66.541 79.9099 66.4898 68.9367L66.4441 59.1278L66.0094 58.3159C65.4886 57.3426 64.5891 56.459 63.5887 55.9377L62.8545 55.5551L45.0314 55.5118C27.3459 55.4688 27.2059 55.4709 26.8793 55.796C26.4645 56.2088 26.4567 56.947 26.862 57.4453L27.174 57.8287L44.7984 57.9099C62.3624 57.9907 62.4244 57.9922 62.8834 58.3308C63.1367 58.5177 63.5091 58.9122 63.7111 59.2074L64.0782 59.7443L64.0756 69.1798L64.0728 78.6153L63.7085 79.2527C63.4812 79.6501 63.0731 80.0324 62.6249 80.2677L61.9057 80.6453H37.508H13.1104L12.4075 80.3065C12.0208 80.1202 11.5386 79.7365 11.3362 79.4539L10.9679 78.9401L10.9234 69.3477L10.8788 59.7553L11.2497 59.2129C11.4536 58.9146 11.8276 58.5177 12.0807 58.3308C12.5178 58.0081 12.7916 57.987 17.5205 57.9099L22.4998 57.8287L22.8933 57.373C23.3755 56.8147 23.3889 56.4589 22.9486 55.9019L22.6106 55.4739L17.605 55.4879C14.852 55.4955 12.416 55.5576 12.1916 55.6258ZM13.8233 60.833C13.5056 61.1492 13.497 61.3743 13.497 69.2657V77.3738L13.9269 77.7103C14.4174 78.0944 14.6254 78.1202 15.1846 77.8667C15.8619 77.5594 15.9444 77.1018 15.9444 73.6546V70.4143H18.4735H21.0026V73.6704C21.0026 76.2102 21.0551 77.0273 21.2413 77.3857C21.6288 78.1315 22.3209 78.2577 23.0201 77.7103L23.45 77.3738V69.2657C23.45 61.3743 23.4414 61.1492 23.1237 60.833C22.6378 60.3494 21.7645 60.3999 21.3408 60.9361C21.0238 61.3372 21.0026 61.5713 21.0026 64.6712V67.9784H18.4826H15.9627L15.9128 64.5535C15.8635 61.1779 15.8573 61.124 15.4776 60.8184C14.9782 60.4161 14.2354 60.4228 13.8233 60.833ZM26.5187 60.7924C26.3838 60.9486 26.2273 61.2062 26.1707 61.3647C26.1142 61.5232 26.9488 65.1771 28.0255 69.4845C29.7453 76.3642 30.0336 77.3606 30.397 77.6815C30.6246 77.8826 30.9132 78.0469 31.0387 78.0469C31.4637 78.0469 32.0611 77.6879 32.2169 77.3389C32.3023 77.1478 33.2449 73.5051 34.3118 69.2441L36.2515 61.497L35.9124 61.0431C35.4332 60.4017 34.5443 60.333 34.094 60.9027C33.8819 61.1713 33.3229 63.0944 32.4881 66.4285C31.784 69.241 31.1612 71.4894 31.1041 71.4249C31.0472 71.3603 30.4278 69.0121 29.728 66.2063C28.8694 62.7653 28.3577 61.0081 28.1554 60.8067C27.7705 60.4236 26.8439 60.4155 26.5187 60.7924ZM41.9337 60.8509C40.8923 61.2494 39.8041 62.271 39.2694 63.3527L38.8692 64.1621L38.8214 70.699L38.7737 77.2359L39.1811 77.6414C39.6982 78.1561 40.3218 78.1587 40.8345 77.6483C41.2344 77.2504 41.2351 77.2442 41.2351 73.832V70.4143H43.8457H46.4564V73.894V77.3738L46.8863 77.7103C47.3781 78.0953 47.5845 78.1203 48.1508 77.8634C48.8965 77.5253 48.9285 77.2031 48.8737 70.5582C48.8227 64.3925 48.818 64.3152 48.4336 63.4687C47.9456 62.3939 46.5823 61.124 45.5356 60.769C44.4938 60.4156 42.9813 60.4501 41.9337 60.8509ZM55.0005 60.6755C53.5777 61.1125 52.0578 62.6757 51.6731 64.0981C51.5649 64.4979 51.5186 66.531 51.5484 69.5639C51.5943 74.2045 51.6104 74.4223 51.966 75.1401C52.4419 76.1016 53.341 76.9945 54.3699 77.5276C55.5094 78.1182 57.4157 78.1302 58.6122 77.5546C60.2711 76.7564 61.4676 74.9528 61.4676 73.2501C61.4676 72.3506 61.0536 71.8759 60.2691 71.8759C59.5686 71.8759 59.2231 72.2608 59.0379 73.2472C58.7664 74.6941 57.8339 75.5298 56.491 75.5298C55.5091 75.5298 54.9431 75.2113 54.3291 74.3135C53.9704 73.7889 53.962 73.6744 53.962 69.3187C53.962 64.3206 54.0096 64.0666 55.0837 63.3402C56.6023 62.3132 59.0172 63.3954 59.0194 65.104C59.0212 66.43 60.089 67.0852 61.0376 66.3426C61.4038 66.0561 61.4674 65.8812 61.4659 65.1652C61.4628 63.5429 60.3576 61.8463 58.7753 61.0355C57.8699 60.5715 55.9389 60.3874 55.0005 60.6755ZM42.7851 63.0999C42.3275 63.2896 41.6147 64.0764 41.4087 64.6193C41.3132 64.8706 41.2351 65.7294 41.2351 66.5274V67.9784H43.8457H46.4564V66.5513C46.4564 64.8726 46.0736 63.9101 45.1677 63.3108C44.5906 62.929 43.4427 62.8275 42.7851 63.0999Z" fill="black"/>
</svg>
