<svg width="69" height="71" viewBox="0 0 69 71" fill="none" xmlns="http://www.w3.org/2000/svg">
<path fill-rule="evenodd" clip-rule="evenodd" d="M34.1286 0.071226C33.6404 0.265922 33.5207 0.663061 33.5207 2.08679C33.5207 3.17142 33.569 3.4784 33.7804 3.73973C34.1336 4.17589 34.88 4.17589 35.2332 3.73973C35.6046 3.28103 35.6144 0.804082 35.2464 0.378625C34.9397 0.0238904 34.5301 -0.0888133 34.1286 0.071226ZM25.5546 2.52803C25.3644 2.71821 25.2088 3.00828 25.2088 3.17255C25.2088 3.46671 26.1717 5.25785 26.5887 5.73938C27.0382 6.25852 27.9535 5.97197 28.2184 5.22925C28.2809 5.05386 28.0981 4.57261 27.6713 3.78974C26.7782 2.15117 26.2476 1.8349 25.5546 2.52803ZM42.1324 2.56959C41.6992 3.00786 40.7055 4.72744 40.7055 5.03892C40.7055 5.15149 40.837 5.41056 40.9976 5.6147C41.3053 6.00592 41.79 6.09397 42.2579 5.84363C42.5573 5.68345 43.8049 3.48065 43.8049 3.11239C43.8049 2.77668 43.1718 2.18217 42.8144 2.18217C42.6498 2.18217 42.343 2.35658 42.1324 2.56959ZM31.6363 6.7802C27.6828 7.62801 24.8246 10.0194 23.7135 13.4094C23.339 14.552 23.3075 14.8113 23.3137 16.6928C23.3242 19.8957 23.765 21.0875 26.3652 24.9431C27.9482 27.2903 28.4513 28.289 28.7484 29.6741C28.9617 30.6689 29.3474 30.9216 30.6517 30.9216H31.6892V26.6434V22.3651L30.7558 21.8192C29.1279 20.8672 27.9925 19.2562 27.6046 17.3476C27.2207 15.4596 28.073 14.0161 29.5714 14.0161C30.7949 14.0161 31.7994 14.8706 32.6137 16.6042C33.0158 17.46 33.2213 18.2553 33.6074 20.45C33.6701 20.8065 34.2787 20.9917 34.9223 20.8503C35.2922 20.769 35.3473 20.6868 35.4256 20.0995C35.5747 18.9814 36.0348 17.2587 36.3936 16.4747C36.7733 15.6456 37.7348 14.5252 38.3314 14.2165C38.5447 14.1062 39.0346 14.0161 39.4199 14.0161C40.6765 14.0161 41.445 14.9652 41.4361 16.506C41.424 18.6213 40.0883 20.795 38.1174 21.9073L37.3244 22.3549V26.6382V30.9216H38.3874C39.696 30.9216 40.0285 30.6679 40.2747 29.4814C40.5144 28.3273 41.2392 26.9305 42.7241 24.7614C45.1327 21.2429 45.6924 19.739 45.7013 16.7632C45.7073 14.7637 45.5501 13.9018 44.926 12.5105C43.596 9.54538 40.8947 7.5208 37.254 6.76033C35.9797 6.49421 32.9195 6.50492 31.6363 6.7802ZM19.5102 8.57233C19.0875 8.99496 19.0466 9.54439 19.4107 9.90857C19.7636 10.2615 21.735 11.3393 22.0276 11.3393C22.3753 11.3393 22.9547 10.6983 22.9547 10.3137C22.9547 9.90279 22.5757 9.54158 21.4684 8.89677C20.2456 8.18463 19.9473 8.13518 19.5102 8.57233ZM47.5352 8.88959C46.2589 9.62695 46.059 9.82756 46.059 10.3699C46.059 10.7758 46.6157 11.3393 47.0168 11.3393C47.1353 11.3393 47.7568 11.0449 48.398 10.6851C49.6969 9.9559 50.0332 9.501 49.7432 8.86479C49.6074 8.56669 49.0927 8.23999 48.7588 8.23999C48.7041 8.23999 48.1536 8.53232 47.5352 8.88959ZM29.4777 16.2214C29.3664 16.5115 29.6382 17.5581 30.0278 18.3399C30.3282 18.9425 31.343 20.0444 31.4755 19.9119C31.5805 19.8069 31.0444 17.7823 30.7653 17.2292C30.5064 16.7164 29.8733 15.9884 29.6862 15.9884C29.6207 15.9884 29.527 16.0932 29.4777 16.2214ZM38.8087 16.3483C38.6253 16.5464 38.3473 16.9803 38.191 17.3128C37.8665 18.0031 37.4263 19.6046 37.5001 19.8261C37.5832 20.0756 38.5149 19.1479 38.9097 18.4223C39.5103 17.3188 39.7099 15.9884 39.2749 15.9884C39.2021 15.9884 38.9923 16.1504 38.8087 16.3483ZM47.2066 20.3823C46.9287 21.5858 45.8806 23.6095 44.468 25.6698C42.9185 27.9299 42.4661 28.7759 42.2021 29.9078C41.9612 30.9402 41.7854 31.2817 41.1561 31.9403C40.2611 32.8766 39.991 32.9127 34.2041 32.8653L29.083 32.8235L28.4107 32.4283C27.5493 31.922 27.1387 31.2772 26.7537 29.827C26.4233 28.5827 25.9674 27.7645 24.0179 24.9169L22.8975 23.2803L21.9387 23.3489C18.8824 23.5677 16.3229 26.8195 16.661 30.0544L16.7458 30.8661L15.8229 31.0242C12.4969 31.5939 10.2433 34.7004 10.7103 38.0715C11.0753 40.7056 13.2295 42.8743 15.9134 43.3096C17.1166 43.5048 49.5407 43.511 50.8872 43.3163C55.1553 42.6992 58.3122 39.1577 58.357 34.9367C58.374 33.3518 58.1629 32.4397 57.4316 30.936C56.1737 28.3491 53.6249 26.5783 50.6154 26.2002L49.889 26.1089L49.788 25.0989C49.662 23.8376 49.3865 22.7595 48.9412 21.7844C48.5807 20.9949 47.6602 19.6512 47.48 19.6512C47.4224 19.6512 47.2993 19.9802 47.2066 20.3823ZM33.7209 22.8791C33.6882 22.9118 33.6615 24.7346 33.6615 26.9301V30.9216H34.5089H35.3565L35.319 26.8816L35.2817 22.8415L34.5309 22.8306C34.118 22.8247 33.7534 22.8465 33.7209 22.8791ZM29.3308 34.1203C28.6791 34.2459 28.3965 35.0909 28.8092 35.6801L29.0284 35.9933H34.3831C37.5869 35.9933 39.8408 35.9382 39.9942 35.8561C40.6249 35.5185 40.4401 34.4342 39.7084 34.1792C39.2715 34.0269 30.0855 33.9746 29.3308 34.1203ZM29.781 37.6071C29.347 38.041 29.3396 38.5311 29.7612 38.9272C30.0818 39.2283 30.1621 39.2335 34.5409 39.2335H38.9945L39.2864 38.8623C39.6699 38.3748 39.6551 38.0294 39.2326 37.6071L38.8869 37.2612H34.5068H30.1267L29.781 37.6071ZM32.5345 40.7809C32.5345 40.9348 32.7195 41.2675 32.9456 41.5206C33.3463 41.969 33.386 41.9807 34.5068 41.9807C35.6277 41.9807 35.6674 41.969 36.0681 41.5206C36.2942 41.2675 36.4791 40.9348 36.4791 40.7809C36.4791 40.5155 36.38 40.5014 34.5068 40.5014C32.6337 40.5014 32.5345 40.5155 32.5345 40.7809ZM8.05273 46.1937C7.17477 46.4811 6.51939 47.0408 6.08802 47.8711C5.76386 48.4952 5.70793 48.777 5.70567 49.7995C5.70342 50.7983 5.76414 51.1283 6.07126 51.7887C7.01431 53.8165 8.62695 54.743 10.3448 54.2435C13.0008 53.4715 14.192 49.2685 12.3496 47.1701C12.1146 46.9024 11.668 46.5538 11.3571 46.3951C10.626 46.0222 8.89787 45.9168 8.05273 46.1937ZM33.0515 46.2244C31.6778 46.6465 30.7031 48.1053 30.7031 49.7393C30.7031 52.5131 32.9384 54.8195 35.1401 54.3169C37.4043 53.8002 38.9024 50.7413 38.0773 48.3197C37.4475 46.4715 35.2412 45.5517 33.0515 46.2244ZM58.3859 46.1275C57.2924 46.3937 56.4149 47.1905 55.99 48.3031C55.6358 49.2305 55.7471 50.8745 56.2362 51.9431C57.2045 54.058 59.2101 54.9351 60.9953 54.0243C61.6932 53.6682 62.502 52.7375 62.9382 51.7887C63.2364 51.1398 63.303 50.7808 63.3078 49.7995C63.3129 48.7305 63.2687 48.5209 62.896 47.8455C62.4051 46.9555 61.8199 46.4702 60.9057 46.1952C60.2071 45.9849 59.0943 45.955 58.3859 46.1275ZM5.06298 55.8617C1.81965 56.6909 0.679934 57.3174 0.287162 58.4867C0.06429 59.1504 -0.0887052 64.7568 0.0575278 66.9027C0.138111 68.0857 0.221934 68.4862 0.462698 68.8396C0.866318 69.4325 1.37996 69.7978 2.0097 69.9398L2.52715 70.0564V66.1907V62.325L2.87301 61.9792C3.06319 61.789 3.35129 61.6334 3.51331 61.6334C3.67532 61.6334 3.96342 61.789 4.1536 61.9792L4.49946 62.325V66.2073V70.0898L9.46547 70.0528L14.4315 70.0157L14.5074 66.0006C14.5493 63.7924 14.5967 61.9774 14.6131 61.9674C14.6294 61.9575 14.8272 61.8729 15.0526 61.7796C15.4757 61.6044 15.9823 61.748 16.2256 62.1124C16.2825 62.1976 16.33 63.9842 16.3312 66.0828C16.3324 68.1813 16.3693 69.9343 16.4132 69.9782C16.5379 70.1029 17.4898 69.8016 17.9061 69.5057C18.1125 69.3589 18.4188 68.9555 18.5864 68.6089C18.8774 68.008 18.8917 67.7883 18.8982 63.8552C18.9061 58.9707 18.8195 58.3434 18.0274 57.5514C17.3922 56.9162 16.538 56.5723 13.909 55.8937L11.9776 55.3949L11.2386 55.7129C10.2455 56.1402 8.81094 56.1491 7.73969 55.7346C7.31353 55.5698 6.90146 55.4376 6.82398 55.4411C6.74649 55.4447 5.95404 55.6339 5.06298 55.8617ZM29.8578 55.9272C26.7015 56.7711 25.9302 57.1762 25.4319 58.2523C25.1583 58.8431 25.1352 59.1795 25.0925 63.1991C25.042 67.9618 25.0955 68.4059 25.816 69.1876C26.2389 69.6466 27.2643 70.1384 27.4976 69.9942C27.556 69.9581 27.6037 68.1936 27.6037 66.0731V62.2173L27.9749 61.9254C28.4362 61.5625 28.7456 61.5566 29.173 61.9025L29.5056 62.1717L29.5472 66.1288L29.5886 70.0862H34.5068H39.4251L39.4665 66.1288L39.5081 62.1717L39.8407 61.9025C40.2681 61.5566 40.5775 61.5625 41.0387 61.9254L41.4099 62.2173V66.0731C41.4099 68.1936 41.4577 69.9581 41.516 69.9942C41.7493 70.1384 42.7748 69.6466 43.1977 69.1876C43.9181 68.4059 43.9717 67.9618 43.9211 63.1991C43.8779 59.1287 43.8583 58.8492 43.5707 58.2273C43.0701 57.1437 42.0333 56.6337 38.6201 55.7915C37.0927 55.4147 37.0063 55.408 36.5069 55.6289C35.2622 56.1792 33.8781 56.187 32.5955 55.6511C31.929 55.3727 31.9337 55.3721 29.8578 55.9272ZM54.9344 55.9246C52.4435 56.5872 51.605 56.9326 50.9862 57.5514C50.1918 58.3458 50.1052 58.9723 50.1143 63.855C50.1216 67.7871 50.1362 68.0078 50.4271 68.6087C50.5949 68.9553 50.9011 69.3589 51.1075 69.5057C51.5238 69.8016 52.4757 70.1029 52.6004 69.9782C52.6444 69.9343 52.6813 68.1813 52.6824 66.0828C52.6837 63.9842 52.7312 62.1976 52.7881 62.1124C53.0314 61.748 53.538 61.6044 53.961 61.7796C54.1864 61.8729 54.3842 61.9575 54.4006 61.9674C54.4169 61.9774 54.4644 63.7924 54.5062 66.0006L54.5822 70.0157L59.5482 70.0528L64.5142 70.0898V66.2073V62.325L64.86 61.9792C65.2987 61.5404 65.7019 61.5404 66.1406 61.9792L66.4865 62.325V66.1907V70.0564L67.004 69.9398C68.1576 69.6796 68.7147 68.9547 68.9046 67.4669C69.1014 65.9248 68.9696 59.1945 68.7289 58.4867C68.426 57.5963 67.5321 56.9364 65.9536 56.4376C65.2007 56.1996 64.0351 55.8701 63.3635 55.7054L62.1422 55.4058L61.3207 55.7194C60.2179 56.1402 58.7601 56.1457 57.8264 55.7328C57.4558 55.5688 57.0497 55.4396 56.924 55.4455C56.7982 55.4514 55.9029 55.6671 54.9344 55.9246Z" fill="#E7C873"/>
</svg>
